<svg xmlns="http://www.w3.org/2000/svg" width="61.349" height="42.929" viewBox="0 0 61.349 42.929">
  <g id="dollar_1_" data-name="dollar (1)" transform="translate(0 -75.35)">
    <g id="Group_148" data-name="Group 148" transform="translate(32.636 99.369)">
      <path id="Path_213" data-name="Path 213" d="M295.293,326.45v6.772c0,2.322-6.124,4.229-13.666,4.229s-13.617-1.858-13.617-4.18l-.012-.758-.1-5.378h.037c1.076,1.992,6.7,3.52,13.47,3.52,7.542,0,13.812-1.882,13.812-4.2Z" transform="translate(-267.79 -319.776)" fill="#ed664c"/>
      <path id="Path_214" data-name="Path 214" d="M294.5,271.862v6.662h-.073c0,2.322-6.258,4.2-13.812,4.2-6.772,0-12.395-1.528-13.47-3.52h-.024l-.024-1.43-.1-5.757c.464,2.188,6.393,3.924,13.629,3.924,7.432,0,13.666-1.821,13.849-4.095h.024Z" transform="translate(-267 -271.85)" fill="#ed664c"/>
    </g>
    <path id="Path_215" data-name="Path 215" d="M294.127,240.854a.339.339,0,0,1-.012.11c-.2,2.274-6.43,4.095-13.849,4.095-7.236,0-13.152-1.736-13.629-3.924a1.108,1.108,0,0,1-.037-.281,1.26,1.26,0,0,1,.073-.428c.7-2.1,6.393-3.753,13.372-3.777h.208C287.808,236.637,294.127,238.52,294.127,240.854Z" transform="translate(-234.012 -141.583)" fill="#fdc75b"/>
    <g id="Group_149" data-name="Group 149" transform="translate(18.47 80.802)">
      <path id="Path_216" data-name="Path 216" d="M213.787,182.584v.171c-6.98.037-12.688,1.675-13.372,3.777l-.587-.293c-1.381,0-2.726-.061-3.985-.183l-.318.061a13.407,13.407,0,0,0-4.425-7.481l.11-.122a36.568,36.568,0,0,0,8.617.953c7.542,0,13.861-1.895,13.861-4.217h.1v7.334Z" transform="translate(-186.211 -168.49)" fill="#ed664c"/>
      <path id="Path_217" data-name="Path 217" d="M178.676,119.95v6.76h-.1c0,2.322-6.32,4.217-13.861,4.217a35.934,35.934,0,0,1-8.617-.953l-.11.122a13.421,13.421,0,0,0-4.755-2.628l.037-.122-.171-7.126c.464,2.2,6.393,3.936,13.629,3.936,7.53,0,13.837-1.882,13.861-4.2Z" transform="translate(-151.1 -119.95)" fill="#ed664c"/>
    </g>
    <path id="Path_218" data-name="Path 218" d="M178.227,89.555v.012c-.024,2.322-6.332,4.2-13.861,4.2-7.236,0-13.152-1.736-13.629-3.936a1.11,1.11,0,0,1-.037-.281c0-2.322,6.112-4.2,13.654-4.2S178.227,87.245,178.227,89.555Z" transform="translate(-132.279 -8.778)" fill="#fdc75b"/>
    <g id="Group_150" data-name="Group 150" transform="translate(23.664 98.367)">
      <path id="Path_219" data-name="Path 219" d="M202.694,320.476l.1,5.378-.66.012a35.2,35.2,0,0,1-8.361-.9l-.171-.183a13.467,13.467,0,0,0,3.789-5.928h.33a40.515,40.515,0,0,0,4.315.208l.648-.012Z" transform="translate(-193.6 -312.103)" fill="#ed664c"/>
      <path id="Path_220" data-name="Path 220" d="M229.695,264.836l.1,5.757-.648.012c-1.5,0-2.958-.073-4.315-.208h-.33a13.38,13.38,0,0,0,.6-3.985,13.96,13.96,0,0,0-.269-2.7l.318-.061c1.259.122,2.6.183,3.985.183l.587.293a1.312,1.312,0,0,0-.073.428A2.26,2.26,0,0,0,229.695,264.836Z" transform="translate(-220.723 -263.65)" fill="#ed664c"/>
    </g>
    <path id="Path_221" data-name="Path 221" d="M36.549,187.258a13.962,13.962,0,0,1,.269,2.7,13.334,13.334,0,1,1-.269-2.7Z" transform="translate(-8.778 -88.83)" fill="#fdc75b"/>
    <path id="Path_222" data-name="Path 222" d="M56.386,95.115A34.745,34.745,0,0,0,47.3,93.844V80.8a1.193,1.193,0,0,0-.183-.611c-.342-1.479-1.992-2.677-4.914-3.557A36.392,36.392,0,0,0,32.086,75.35a35.478,35.478,0,0,0-10.023,1.283c-2.212.685-4.865,1.956-4.865,4.144a1.892,1.892,0,0,0,.037.4l.134,5.574a14.632,14.632,0,1,0-2.738,29.006,14.543,14.543,0,0,0,9.216-3.276,36.148,36.148,0,0,0,7.823.856c.623,3.386,7.957,4.938,14.79,4.938a34.983,34.983,0,0,0,10.023-1.308c2.225-.685,4.865-1.968,4.865-4.156V99.381a1.4,1.4,0,0,0-.012-.232C61.264,97.45,59.6,96.093,56.386,95.115ZM19.839,87.451,19.753,84a14.046,14.046,0,0,0,2.64,1.015A36.128,36.128,0,0,0,32.086,86.2a36.454,36.454,0,0,0,10.121-1.283,14.941,14.941,0,0,0,2.652-1.063v3.2a.664.664,0,0,0-.11.477c0,.159-.587,1-3.239,1.809A34.126,34.126,0,0,1,32.1,90.531a34.971,34.971,0,0,1-8.324-.917c-.037-.012-.061-.012-.1-.024A15.743,15.743,0,0,0,19.839,87.451ZM32.086,93A36.484,36.484,0,0,0,42.22,91.717a14.825,14.825,0,0,0,2.64-1.051v3.2C39.6,94.04,34.213,95.14,32.209,97.34h-.122c-1.173,0-2.31-.049-3.361-.122a14.23,14.23,0,0,0-2.188-4.547A47.688,47.688,0,0,0,32.086,93ZM29.2,99.675c.709.049,1.455.073,2.212.086l.073,4.327c-.856-.012-1.7-.049-2.506-.11a14.929,14.929,0,0,0,.281-2.86C29.263,100.64,29.238,100.164,29.2,99.675Zm-.9,6.711c1.039.086,2.115.147,3.239.159v.22l.073,4.144a36.7,36.7,0,0,1-5.659-.489A15.34,15.34,0,0,0,28.3,106.385Zm5.672-.073-.012-1.027-.049-2.811a14.837,14.837,0,0,0,2.665,1.027,36.128,36.128,0,0,0,9.693,1.186,36.587,36.587,0,0,0,9.987-1.247,14.05,14.05,0,0,0,2.677-1.051v3.239c0,.122-.073.269-.073.4,0,.171-.574,1-3.215,1.809a33.819,33.819,0,0,1-9.375,1.173C39.482,109.025,34.922,107.5,33.969,106.312Zm24.923-7.053v.012c-.012.183-.623,1.027-3.337,1.834a33.955,33.955,0,0,1-9.29,1.149,34.1,34.1,0,0,1-9.009-1.088c-2.628-.758-3.349-1.6-3.423-1.858,0-.024,0-.037-.012-.037h0a.073.073,0,0,1,.012-.049c.11-.33.978-1.137,3.508-1.846a33.231,33.231,0,0,1,8.715-1.051h.208a34.257,34.257,0,0,1,9.412,1.161C58.269,98.269,58.868,99.076,58.892,99.259ZM22.8,78.993a33.018,33.018,0,0,1,9.29-1.186A34.127,34.127,0,0,1,41.5,78.993c2.652.807,3.239,1.638,3.239,1.8h0c0,.171-.6,1.015-3.251,1.809a34.54,34.54,0,0,1-9.4,1.173,33.561,33.561,0,0,1-9.009-1.1c-2.628-.758-3.361-1.589-3.423-1.858,0-.024-.012-.024-.012-.024h0C19.655,80.557,20.217,79.775,22.8,78.993Zm.037,31.145a12.185,12.185,0,1,1-8.2-21.2,12.449,12.449,0,0,1,3.606.538,12.236,12.236,0,0,1,8.336,9.18,12.979,12.979,0,0,1,.244,2.457,12.218,12.218,0,0,1-3.985,9.021Zm32.942,4.5a32.634,32.634,0,0,1-9.3,1.2,33.262,33.262,0,0,1-9.278-1.161c-2.579-.795-3.117-1.613-3.117-1.8v-.024l-.061-3.545a16.035,16.035,0,0,0,3.044,1.112,37.618,37.618,0,0,0,9.18,1.051,36.146,36.146,0,0,0,10.1-1.283,15.066,15.066,0,0,0,2.567-1.039v3.679C58.917,112.986,58.354,113.841,55.775,114.636Z" transform="translate(0 0)"/>
    <path id="Path_223" data-name="Path 223" d="M86.608,208.3a2.181,2.181,0,0,1,2.176,2.176,1.222,1.222,0,0,0,2.445,0,4.609,4.609,0,0,0-3.361-4.449v-.55a1.222,1.222,0,1,0-2.445,0V206a4.613,4.613,0,0,0,1.186,9.07,2.176,2.176,0,1,1-2.164,2.176,1.222,1.222,0,1,0-2.445,0,4.656,4.656,0,0,0,3.423,4.462v1.063a1.222,1.222,0,1,0,2.445,0v-1.076a4.623,4.623,0,0,0-1.259-9.07,2.164,2.164,0,1,1,0-4.327Z" transform="translate(-71.977 -113.144)"/>
  </g>
</svg>
