<?xml version="1.0" encoding="utf-8"?>
<!-- Generator: Adobe Illustrator 23.0.5, SVG Export Plug-In . SVG Version: 6.00 Build 0)  -->
<svg version="1.1" id="Capa_1" xmlns="http://www.w3.org/2000/svg" xmlns:xlink="http://www.w3.org/1999/xlink" x="0px" y="0px"
	 viewBox="0 0 480 480" style="enable-background:new 0 0 480 480;" xml:space="preserve">
<style type="text/css">
	.st0{fill:#FFFFFF;}
</style>
<g>
	<g>
		<g>
			<path class="st0" d="M176,0c-35.3,0-64,28.7-64,64v288H8c-4.4,0-8,3.6-8,8v56c0,35.3,28.7,64,64,64h312v-0.5
				c32-4.1,56-31.3,56-63.5V64c0-26.5,21.5-48,48-48V0H176z M64,464c-26.5,0-48-21.5-48-48v-48h288v48c0,18.4,7.9,35.9,21.7,48H64z
				 M416,64v352c0,26.5-21.5,48-48,48s-48-21.5-48-48v-56c0-4.4-3.6-8-8-8H128V64c0-26.5,21.5-48,48-48h261.8
				C424,28.1,416,45.6,416,64z"/>
		</g>
	</g>
	<g>
		<g>
			<rect x="192" y="32" class="st0" width="160" height="16"/>
		</g>
	</g>
	<g>
		<g>
			<rect x="144" y="64" class="st0" width="256" height="16"/>
		</g>
	</g>
	<g>
		<g>
			<rect x="160" y="112" class="st0" width="80" height="16"/>
		</g>
	</g>
	<g>
		<g>
			<rect x="160" y="144" class="st0" width="64" height="16"/>
		</g>
	</g>
	<g>
		<g>
			<rect x="160" y="176" class="st0" width="96" height="16"/>
		</g>
	</g>
	<g>
		<g>
			<rect x="160" y="208" class="st0" width="48" height="16"/>
		</g>
	</g>
	<g>
		<g>
			<rect x="160" y="240" class="st0" width="80" height="16"/>
		</g>
	</g>
	<g>
		<g>
			<rect x="352" y="112" class="st0" width="32" height="16"/>
		</g>
	</g>
	<g>
		<g>
			<rect x="352" y="144" class="st0" width="32" height="16"/>
		</g>
	</g>
	<g>
		<g>
			<rect x="352" y="176" class="st0" width="32" height="16"/>
		</g>
	</g>
	<g>
		<g>
			<rect x="352" y="208" class="st0" width="32" height="16"/>
		</g>
	</g>
	<g>
		<g>
			<rect x="352" y="240" class="st0" width="32" height="16"/>
		</g>
	</g>
	<g>
		<g>
			<path class="st0" d="M400,352v-8c0-13.3-10.7-24-24-24v-16h-16v16c-13.3,0-24,10.7-24,24v16c0,13.3,10.7,24,24,24h16
				c4.4,0,8,3.6,8,8v16c0,4.4-3.6,8-8,8h-16c-4.4,0-8-3.6-8-8v-8h-16v8c0,13.3,10.7,24,24,24v16h16v-16c13.3,0,24-10.7,24-24v-16
				c0-13.3-10.7-24-24-24h-16c-4.4,0-8-3.6-8-8v-16c0-4.4,3.6-8,8-8h16c4.4,0,8,3.6,8,8v8H400z"/>
		</g>
	</g>
	<g>
		<g>
			<rect x="160" y="320" class="st0" width="128" height="16"/>
		</g>
	</g>
	<g>
		<g>
			<rect x="160" y="288" class="st0" width="128" height="16"/>
		</g>
	</g>
</g>
</svg>
