<?xml version="1.0" encoding="utf-8"?>
<!-- Generator: Adobe Illustrator 24.0.0, SVG Export Plug-In . SVG Version: 6.00 Build 0)  -->
<svg version="1.1" id="Layer_1" xmlns="http://www.w3.org/2000/svg" xmlns:xlink="http://www.w3.org/1999/xlink" x="0px" y="0px"
	 viewBox="0 0 511 511" style="enable-background:new 0 0 511 511;" xml:space="preserve">
<style type="text/css">
	.st0{fill:#FFFFFF;}
	.st1{fill:none;}
</style>
<path class="st0" d="M503,323.3H358.3c-1.6,5.6-3.5,11.3-5,17.1h141c-4.6,86.1-75.7,153.5-161.9,153.6H178.7
	c-86.2-0.1-157.3-67.5-161.9-153.6h127.5c-1.7-4.6-3.3-9.3-4.8-13.9c-0.4-1.1-0.5-2.1-0.5-3.2H8c-4.7,0-8.5,3.8-8.5,8.5
	c0.1,98.9,80.3,179.1,179.2,179.2h153.6c98.9-0.1,179.1-80.3,179.2-179.2C511.5,327.1,507.7,323.3,503,323.3z"/>
<line class="st1" x1="119" y1="332.3" x2="114" y2="332.3"/>
<path class="st0" d="M387,349.4c-11.2-0.1-22.5-0.1-33.7-0.1v0.1H387z"/>
<path class="st0" d="M119,349.4c7-0.4,15-0.4,22.3,0"/>
<path class="st0" d="M434.7,116.7c-0.8-13-9.6-24.2-22.1-28.1l9-9c15.5-15.1,17.1-39.4,3.7-56.5c-14.5-17.6-40.5-20.2-58.2-5.7
	c-1,0.9-2,1.8-3,2.7l-10,10C349,13.6,331.4,4.3,314.8,9.5c-13.1,4.1-22,16.3-22,30v12.1c-15.1-8.7-34.4-3.5-43.1,11.6
	c-3,5.2-4.4,11.1-4.2,17v10.7c-5.3-3-11.4-4.5-17.4-4.2c-17.1,1.3-30.2,15.7-29.9,32.8v113.6l-45,45l11.1,11.1l45-45H340
	c17.4,0,31.5-14.1,31.5-31.5c0-5.5-1.5-11-4.2-15.8h10.8c17.1,0.4,31.6-12.8,32.8-29.8c0.3-6.2-1.1-12.3-4.3-17.6
	c7.4-0.9,14.2-4.3,19.3-9.6C432,133.8,435.1,125.4,434.7,116.7z M414.6,129.2c-3,3.2-7.1,4.9-11.4,4.9h-23.6c-4.4,0-7.9,3.5-7.9,7.9
	s3.5,7.9,7.9,7.9c8.7,0,15.8,7,15.8,15.7c0,0.3,0,0.6,0,0.9c-0.9,8.7-8.4,15.2-17.1,14.9h-38.1c-4.4,0-7.9,3.5-7.9,7.9
	s3.5,7.9,7.9,7.9c8.7,0,15.8,7.1,15.8,15.8s-7.1,15.8-15.8,15.8h-115L241,213h51.9v-15.8h-36.2l31.5-31.5h44v-15.8H304l31.5-31.5
	h36.2v-15.8h-20.4l33.8-33.8L374,57.7l-33.8,33.8V71.1h-15.8v36.2l-31.5,31.5v-28.3H277v44L245.5,186v-36.2h-15.8v51.9L214,217.6
	v-97.9c-0.3-8.7,6.2-16.2,14.9-17.1c8.7-0.5,16.1,6.2,16.6,14.9c0,0.3,0,0.6,0,0.9c0,4.4,3.5,7.9,7.9,7.9s7.9-3.5,7.9-7.9V80.3
	c-0.3-8.7,6.2-16.2,14.9-17.1c8.7-0.5,16.1,6.2,16.6,14.9c0,0.3,0,0.6,0,0.9c0,4.4,3.5,7.9,7.9,7.9s7.9-3.5,7.9-7.9V39.6
	c0-8.7,7-15.8,15.7-15.8c0.3,0,0.6,0,0.9,0c8.7,0.9,15.2,8.4,14.9,17.1v6.5c0,4.4,3.5,7.9,7.9,7.9c2.1,0,4.1-0.8,5.6-2.3l21.7-21.7
	c10-10,26.2-9.9,36.2,0.1c0.6,0.6,1.1,1.2,1.6,1.8c8.2,10.7,7,25.9-2.7,35.3l-20.7,20.7c-3.1,3.1-3.1,8.1,0,11.1
	c1.5,1.5,3.5,2.3,5.6,2.3h6.5c8.7-0.3,16.2,6.2,17.1,14.9C419.2,121.9,417.6,126.1,414.6,129.2z"/>
<path class="st0" d="M99.5,153.1c23.6,0,42.6-19.1,42.7-42.7v-4.3l7.5-5.6c17.3-13,20.9-37.6,7.9-55s-37.6-20.9-55-7.9l-3,2.3
	l-3-2.3c-17.3-13-42-9.5-55,7.9s-9.5,42,7.9,55l7.5,5.6v4.3C56.8,134,75.9,153.1,99.5,153.1z M54.4,56.8c3.4-5.1,8.7-8.6,14.7-9.6
	c1.3-0.2,2.5-0.3,3.8-0.3c4.8,0,9.4,1.6,13.2,4.4l8.2,6.1c3,2.3,7.2,2.3,10.2,0l8.1-6.1c9.8-7.4,23.7-5.4,31.1,4.4
	s5.4,23.7-4.4,31.1L128.4,95c-2.2,1.6-3.4,4.1-3.4,6.8v8.5c0,14.1-11.5,25.6-25.6,25.6s-25.6-11.5-25.6-25.6v-8.5
	c0-2.7-1.3-5.2-3.4-6.8l-10.9-8.2C50.2,79.8,47.9,66.6,54.4,56.8z"/>
<rect x="187.2" y="16.6" class="st0" width="17.1" height="17.1"/>
<path class="st0" d="M460.3,110.4v17.1c18.9,0,34.1-15.3,34.1-34.1s-15.3-34.1-34.1-34.1v17.1c9.4,0,17.1,7.6,17.1,17.1
	S469.7,110.4,460.3,110.4z"/>
<rect x="16.6" y="136" class="st0" width="17.1" height="17.1"/>
<rect x="-0.5" y="101.9" class="st0" width="17.1" height="17.1"/>
<path class="st0" d="M33.6,272.6h8.5v25.6c0,4.7,3.8,8.5,8.5,8.5h34.1c4.7,0,8.5-3.8,8.5-8.5v-25.6h8.5c18.8,0,34.1-15.3,34.1-34.1
	s-15.3-34.1-34.1-34.1h-1.1C96.1,186,77.5,175,59.3,179.7c-12,3.1-21.5,12.5-24.6,24.6h-1.1c-18.8,0-34.1,15.3-34.1,34.1
	S14.8,272.6,33.6,272.6z M76.3,289.6H59.2v-17.1h17.1V289.6z M33.6,221.4h8.5c4.7,0,8.5-3.8,8.5-8.5c0-9.4,7.6-17.1,17.1-17.1
	s17.1,7.6,17.1,17.1c0,4.7,3.8,8.5,8.5,8.5h8.5c9.4,0,17.1,7.6,17.1,17.1c0,9.4-7.6,17.1-17.1,17.1H33.6c-9.4,0-17.1-7.6-17.1-17.1
	C16.6,229,24.2,221.4,33.6,221.4z"/>
<path class="st0" d="M451.8,229.9c-14.1,0-25.6,11.5-25.6,25.6s11.5,25.6,25.6,25.6s25.6-11.5,25.6-25.6S465.9,229.9,451.8,229.9z
	 M451.8,264c-4.7,0-8.5-3.8-8.5-8.5c0-4.7,3.8-8.5,8.5-8.5s8.5,3.8,8.5,8.5C460.3,260.2,456.5,264,451.8,264z"/>
<path class="st0" d="M451.8,195.8c-33,0-59.7,26.7-59.7,59.7s26.7,59.7,59.7,59.7s59.7-26.7,59.7-59.7S484.7,195.8,451.8,195.8z
	 M451.8,298.2c-23.6,0-42.7-19.1-42.7-42.7s19.1-42.7,42.7-42.7s42.7,19.1,42.7,42.7C494.4,279,475.3,298.1,451.8,298.2z"/>
<path class="st0" d="M339.3,312.2c-6-10.3-18-14.1-29.6-17.8c-5.8-1.6-11.4-3.8-16.7-6.5c-4.8-3.1-9.3-6.8-13.4-10.8
	c-8.6-8-18.4-17-30.8-17c-12.4,0-22.2,9.1-30.8,17c-4.1,4.1-8.5,7.7-13.4,10.9c-5.3,2.8-10.9,4.9-16.7,6.5
	c-11.6,3.7-23.6,7.5-29.6,17.8c-5.8,10-3.2,22.1-0.6,33.8c1.5,6,2.4,12.2,2.7,18.4c-0.3,6.2-1.2,12.4-2.7,18.4
	c-2.5,11.7-5.1,23.9,0.6,33.8c4.6,6.9,11.4,12,19.4,14.3l-24.5,31.4c-1.4,1.8-1,4.3,0.7,5.6c0.8,0.7,1.9,0.9,3,0.8l28.7-3.6
	l7.1,24.8c0.4,1.5,1.6,2.6,3.1,2.8c0.3,0,0.5,0.1,0.8,0.1c1.2,0,2.4-0.6,3.2-1.6l25.7-33c6.3,6.1,14.6,9.8,23.4,10.4
	c8.8-0.6,17.1-4.3,23.4-10.4l25.7,33c0.8,1,1.9,1.6,3.2,1.6c0.3,0,0.5,0,0.8-0.1c1.5-0.3,2.7-1.4,3.1-2.8l7.1-24.8l28.7,3.6
	c2.2,0.3,4.2-1.3,4.5-3.5c0.1-1.1-0.2-2.1-0.8-3L320,431c7.9-2.4,14.8-7.4,19.3-14.3c5.8-10,3.2-22.1,0.6-33.8
	c-1.5-6-2.4-12.2-2.7-18.4c0.3-6.2,1.2-12.4,2.7-18.4C342.5,334.3,345.1,322.2,339.3,312.2z M198.3,480.3l-5.9-20.5
	c-0.5-1.9-2.4-3.1-4.4-2.9l-22.5,2.8l20.2-25.9l2.2,0.7c5.8,1.6,11.4,3.8,16.7,6.5c4.8,3.1,9.3,6.8,13.4,10.8l1.4,1.3L198.3,480.3z
	 M332.1,459.7l-22.5-2.8c-2-0.2-3.8,1-4.4,2.9l-5.9,20.5l-21.1-27.1l1.4-1.3c4.1-4.1,8.5-7.7,13.4-10.9c5.3-2.8,10.9-4.9,16.7-6.5
	l2.2-0.7L332.1,459.7z M332.1,384.6c2.3,10.7,4.5,20.9,0.3,28.1c-4.4,7.6-14.4,10.8-25.1,14.2c-6.3,1.8-12.5,4.2-18.3,7.2
	c-5.4,3.4-10.3,7.4-14.8,11.9c-8.3,7.7-16.1,14.9-25.4,14.9s-17.1-7.2-25.4-14.9c-4.5-4.5-9.5-8.5-14.8-11.9c-5.8-3-12-5.5-18.3-7.2
	c-10.6-3.4-20.7-6.6-25.1-14.2c-4.2-7.3-2-17.4,0.3-28.1c1.7-6.6,2.6-13.3,2.9-20.1c-0.3-6.8-1.2-13.5-2.9-20.1
	c-2.3-10.7-4.5-20.9-0.3-28.1c4.4-7.6,14.4-10.8,25.1-14.2c6.3-1.8,12.5-4.2,18.3-7.2c5.4-3.4,10.3-7.4,14.8-11.9
	c8.3-7.7,16.1-14.9,25.4-14.9s17.1,7.2,25.4,14.9c4.5,4.5,9.5,8.5,14.8,11.9c5.8,3,12,5.5,18.3,7.2c10.6,3.4,20.7,6.6,25.1,14.2
	c4.2,7.3,2,17.4-0.3,28.1c-1.7,6.6-2.6,13.3-2.9,20.1C329.5,371.2,330.4,378,332.1,384.6z"/>
<path class="st0" d="M248.8,292.1c-39.9,0-72.3,32.4-72.3,72.3s32.4,72.3,72.3,72.3s72.3-32.4,72.3-72.3S288.8,292.2,248.8,292.1z
	 M248.8,428.8c-35.5,0-64.3-28.8-64.3-64.3s28.8-64.3,64.3-64.3s64.3,28.8,64.3,64.3S284.3,428.7,248.8,428.8z"/>
<path class="st0" d="M288.7,344.4h-24.6l-7.6-23.4c-1.4-4.2-5.9-6.5-10.1-5.1c-2.4,0.8-4.3,2.7-5.1,5.1l-7.6,23.4H209
	c-4.4,0-8,3.6-8,8c0,2.6,1.2,5,3.3,6.5l19.9,14.5l-7.6,23.4c-1.4,4.2,0.9,8.8,5.2,10.1c2.4,0.8,5.1,0.4,7.2-1.1l19.9-14.5l19.9,14.5
	c2.8,2.1,6.6,2.1,9.4,0c2.8-2,4-5.7,2.9-9l-7.6-23.4l19.9-14.5c3.6-2.6,4.4-7.6,1.8-11.2C293.7,345.6,291.3,344.4,288.7,344.4z
	 M288.7,352.4l-22.3,16.2c-1.4,1-2,2.8-1.5,4.5l8.5,26.2l-22.3-16.2c-1.4-1-3.3-1-4.7,0l-22.3,16.2l8.5-26.2
	c0.5-1.7-0.1-3.5-1.5-4.5L209,352.4h27.5c1.7,0,3.3-1.1,3.8-2.8l8.5-26.2l8.5,26.2c0.5,1.7,2.1,2.8,3.8,2.8H288.7z"/>
</svg>
