<?xml version="1.0" encoding="utf-8"?>
<!-- Generator: Adobe Illustrator 23.0.2, SVG Export Plug-In . SVG Version: 6.00 Build 0)  -->
<svg version="1.1" id="Icons" xmlns="http://www.w3.org/2000/svg" xmlns:xlink="http://www.w3.org/1999/xlink" x="0px" y="0px"
	 viewBox="0 0 512 512" style="enable-background:new 0 0 512 512;" xml:space="preserve">
<style type="text/css">
	.st0{fill:#FFFFFF;}
</style>
<path class="st0" d="M411.2,439.6c-3.8,0-6.9-3.1-6.9-6.9c0-2,0.9-3.9,2.4-5.2c3.8-3.3,7.4-6.7,10.8-10.1
	c57.6-57.8,80.1-141.7,59.2-220.5c-1.1-3.7,0.9-7.5,4.6-8.6c3.7-1.1,7.5,0.9,8.6,4.6c0,0.2,0.1,0.3,0.1,0.5
	c22.2,83.6-1.7,172.6-62.7,233.9c-3.6,3.6-7.5,7.2-11.5,10.7C414.5,439,412.9,439.6,411.2,439.6z"/>
<path class="st0" d="M285.5,496.2c-3.8,0-6.9-3.1-6.9-7c0-3.5,2.6-6.4,6.1-6.8c6.6-0.8,13.1-1.9,19.5-3.3c3.7-0.8,7.4,1.5,8.2,5.3
	c0.8,3.7-1.5,7.4-5.3,8.2c-6.9,1.5-13.9,2.7-20.9,3.5C286,496.2,285.7,496.2,285.5,496.2L285.5,496.2z"/>
<path class="st0" d="M234.2,497.1c-0.2,0-0.4,0-0.6,0c-56.2-5.2-108.9-30-148.8-69.9c-2.7-2.7-2.6-7.1,0.2-9.8
	c2.7-2.6,6.9-2.6,9.6,0c37.7,37.6,87.3,60.9,140.3,65.9c3.8,0.2,6.8,3.4,6.6,7.2C241.3,494.4,238,497.3,234.2,497.1L234.2,497.1z"/>
<path class="st0" d="M351.8,477.8c-3.8,0-6.9-3.1-6.9-6.9c0-2.8,1.6-5.2,4.1-6.4c6.1-2.7,12-5.7,17.8-8.9c3.3-1.9,7.5-0.8,9.5,2.5
	c1.9,3.3,0.8,7.5-2.5,9.5c-6.2,3.5-12.6,6.7-19.1,9.6C353.7,477.6,352.7,477.8,351.8,477.8L351.8,477.8z"/>
<path class="st0" d="M21.8,285.5c-3.6,0-6.5-2.7-6.9-6.3C2.1,146.1,99.7,27.8,232.8,15c72-6.9,143.3,18.7,194.4,69.8
	c2.7,2.7,2.7,7.1,0,9.8c-2.7,2.7-7.1,2.7-9.8,0l0,0c-89.2-89.2-233.7-89.2-322.9,0C46.3,142.8,22.2,210,28.7,277.9
	c0.4,3.8-2.4,7.2-6.2,7.5C22.3,285.5,22,285.5,21.8,285.5L21.8,285.5z"/>
<path class="st0" d="M422.3,96.6H367c-3.8,0-6.9-3.1-6.9-6.9c0-3.8,3.1-6.9,6.9-6.9h48.4V34.3c0-3.8,3.1-6.9,6.9-6.9
	c3.8,0,6.9,3.1,6.9,6.9v55.4C429.2,93.5,426.1,96.6,422.3,96.6z"/>
<path class="st0" d="M89.7,484.6c-3.8,0-6.9-3.1-6.9-6.9v-55.4c0-3.8,3.1-6.9,6.9-6.9H145c3.8,0,6.9,3.1,6.9,6.9
	c0,3.8-3.1,6.9-6.9,6.9H96.6v48.4C96.6,481.5,93.5,484.6,89.7,484.6z"/>
<path class="st0" d="M273.6,406.1h-35.2c-5.7,0-10.6-4.3-11.2-10l-1.7-15.4c-14.1-3.3-27.6-8.8-39.9-16.5l-12.1,9.6
	c-4.5,3.6-11,3.2-15-0.8l-24.9-24.9c-4.1-4.1-4.4-10.5-0.9-15l9.7-12.1c-7.7-12.3-13.2-25.8-16.5-39.9l-15.4-1.7
	c-5.7-0.6-10-5.5-10-11.2V233c0-5.8,4.3-10.6,10-11.2l15.4-1.7c3.3-14.1,8.8-27.6,16.5-39.9l-9.7-12.1c-3.6-4.5-3.2-11,0.9-15
	l24.9-24.9c4.1-4.1,10.5-4.4,15-0.8l12.1,9.6c12.3-7.7,25.8-13.2,39.9-16.5l1.7-15.4c0.6-5.7,5.5-10,11.2-10h35.2
	c5.7,0,10.6,4.3,11.2,10l1.7,15.4c14.1,3.3,27.6,8.8,39.9,16.5l12.1-9.6c4.5-3.6,11-3.2,15,0.8l24.9,24.9c4.1,4.1,4.4,10.5,0.9,15
	l-9.7,12.1c7.7,12.3,13.2,25.8,16.5,39.9l15.4,1.7c5.7,0.6,10,5.5,10,11.2v35.2c0,5.7-4.3,10.6-10,11.2l-15.4,1.7
	c-3.3,14.1-8.8,27.6-16.5,39.9l9.6,12.1c3.6,4.5,3.2,11-0.9,15L353.5,373c-4.1,4.1-10.5,4.4-15,0.8l-12.1-9.6
	c-12.3,7.6-25.8,13.2-39.9,16.5l-1.7,15.4C284.2,401.8,279.3,406.1,273.6,406.1L273.6,406.1z M240.7,392.3h30.6l2-18.1
	c0.3-3,2.6-5.4,5.5-6c15.8-3,30.8-9.2,44.1-18.2c2.5-1.7,5.8-1.6,8.2,0.3l14.2,11.3L367,340l-11.3-14.2c-1.9-2.4-2-5.7-0.3-8.2
	c9-13.3,15.2-28.3,18.2-44c0.6-3,3-5.2,6-5.5l18.1-2v-30.6l-18.1-2.1c-3-0.3-5.4-2.6-6-5.5c-3-15.8-9.2-30.8-18.2-44.1
	c-1.7-2.5-1.6-5.8,0.3-8.2l11.3-14.2l-21.6-21.6l-14.2,11.3c-2.4,1.9-5.7,2-8.2,0.3c-13.3-9-28.3-15.2-44.1-18.2c-3-0.6-5.2-3-5.5-6
	l-2-18.1h-30.6l-2,18.1c-0.3,3-2.6,5.4-5.5,6c-15.8,3-30.8,9.2-44.1,18.2c-2.5,1.7-5.8,1.6-8.2-0.3l-14.2-11.3L145,161.3l11.3,14.2
	c1.9,2.4,2,5.7,0.3,8.2c-9,13.3-15.2,28.3-18.2,44.1c-0.6,3-3,5.2-6,5.5l-18.1,2.1v30.6l18.1,2c3,0.3,5.4,2.6,6,5.5
	c3,15.8,9.2,30.8,18.2,44.1c1.7,2.5,1.6,5.8-0.3,8.2L145,340l21.6,21.7l14.2-11.3c2.4-1.9,5.7-2,8.2-0.3c13.3,9,28.3,15.2,44.1,18.2
	c3,0.6,5.2,3,5.5,6L240.7,392.3z"/>
<path class="st0" d="M256,342.6c-50.8,0-92-41.2-92-92s41.2-92,92-92s92,41.2,92,92l0,0C348,301.4,306.8,342.6,256,342.6z
	 M256,172.4c-43.2,0-78.2,35-78.2,78.2s35,78.2,78.2,78.2s78.2-35,78.2-78.2C334.1,207.5,299.2,172.5,256,172.4L256,172.4z"/>
</svg>
