<?xml version="1.0" encoding="utf-8"?>
<!-- Generator: Adobe Illustrator 23.0.2, SVG Export Plug-In . SVG Version: 6.00 Build 0)  -->
<svg version="1.1" id="Capa_1" xmlns="http://www.w3.org/2000/svg" xmlns:xlink="http://www.w3.org/1999/xlink" x="0px" y="0px"
	 viewBox="0 0 512 512" style="enable-background:new 0 0 512 512;" xml:space="preserve">
<style type="text/css">
	.st0{fill:#FFFFFF;}
</style>
<g>
	<g>
		<g>
			<path class="st0" d="M318.1,376.5c15,0,29.9-5.7,41.3-17.1c22.8-22.8,22.8-59.9,0-82.7c-22.8-22.8-59.9-22.8-82.7,0
				c-22.8,22.8-22.8,59.9,0,82.7C288.2,370.8,303.1,376.5,318.1,376.5L318.1,376.5z M287.4,287.4c8.5-8.5,19.6-12.7,30.7-12.7
				c11.1,0,22.3,4.2,30.7,12.7c16.9,16.9,16.9,44.5,0,61.5c-16.9,16.9-44.5,16.9-61.5,0C270.4,331.9,270.4,304.3,287.4,287.4
				L287.4,287.4z"/>
			<path class="st0" d="M250.1,250.1c-27.9,27.9-36,69.4-20.5,105.7c1.6,3.8,6,5.6,9.8,4c3.8-1.6,5.6-6,4-9.8
				c-13-30.6-6.2-65.7,17.3-89.2c31.7-31.7,83.2-31.7,114.9,0c31.7,31.7,31.7,83.2,0,114.9c-15.2,15.2-35.4,23.7-57,23.8
				c-0.2,0-0.3,0-0.5,0c-21.3,0-41.4-8.2-56.7-23.1c-3-2.9-7.7-2.8-10.6,0.1c-2.9,3-2.8,7.7,0.1,10.6c18.1,17.6,41.9,27.3,67.2,27.3
				c0.2,0,0.4,0,0.6,0c25.5-0.1,49.4-10.2,67.5-28.2c37.5-37.5,37.5-98.6,0-136.1C348.6,212.6,287.6,212.6,250.1,250.1L250.1,250.1z
				"/>
			<path class="st0" d="M497.6,284.5H471c-4-18.1-11-35.1-21-50.6l18.8-18.8c2.7-2.7,4.2-6.3,4.2-10.2s-1.5-7.4-4.2-10.2l-27.3-27.3
				c-2.7-2.7-6.3-4.2-10.2-4.2s-7.4,1.5-10.2,4.2l-18.8,18.8c-15.5-9.9-32.6-17-50.6-21v-26.7c0-7.9-6.4-14.4-14.4-14.4h-38.6
				c-4.5,0-8.5,2-11.1,5.2h-4.9c-3.2-14-8.7-27.2-16.3-39.3L281,75.8c5.1-5.1,5.1-13.4,0-18.4l-22.1-22.1c-2.5-2.5-5.7-3.8-9.2-3.8
				s-6.8,1.4-9.2,3.8l-14.4,14.4c-12.1-7.6-25.3-13.1-39.3-16.3V13c0-7.2-5.8-13-13-13h-31.2c-7.2,0-13,5.9-13,13v20.4
				c-14,3.2-27.2,8.7-39.3,16.3L75.8,35.3c-2.5-2.5-5.7-3.8-9.2-3.8s-6.8,1.4-9.2,3.8L35.3,57.3c-5.1,5.1-5.1,13.4,0,18.4l14.4,14.4
				c-7.6,12.1-13.1,25.3-16.3,39.3H13.1c-7.2,0-13,5.9-13,13v31.2c0,7.2,5.9,13,13,13h20.4c3.2,14,8.7,27.2,16.3,39.3l-14.4,14.4
				c-5.1,5.1-5.1,13.4,0,18.4L57.4,281c5.1,5.1,13.4,5.1,18.4,0l14.4-14.4c12.1,7.6,25.3,13.1,39.3,16.3v4.9
				c-3.2,2.6-5.3,6.6-5.3,11.1v38.6c0,7.9,6.4,14.4,14.4,14.4h26.7c4,18.1,11,35.1,21,50.6l-18.8,18.8c-2.7,2.7-4.2,6.3-4.2,10.2
				s1.5,7.4,4.2,10.2l27.3,27.3c2.7,2.7,6.3,4.2,10.2,4.2c3.8,0,7.4-1.5,10.2-4.2l18.8-18.8c15.5,9.9,32.6,17,50.6,21v26.7
				c0,7.9,6.4,14.4,14.4,14.4h38.6c7.9,0,14.4-6.4,14.4-14.4V471c18.1-4,35.1-11,50.6-21l18.8,18.8c2.7,2.7,6.3,4.2,10.2,4.2
				s7.4-1.5,10.2-4.2l27.3-27.3c2.7-2.7,4.2-6.3,4.2-10.2s-1.5-7.4-4.2-10.2L450,402.4c9.9-15.5,17-32.6,21-50.6h26.7
				c7.9,0,14.4-6.4,14.4-14.4v-38.6C512,290.9,505.5,284.5,497.6,284.5L497.6,284.5z M134.2,268.5c-13.3-2.9-25.8-8-37.1-15.4
				c-5.1-3.3-12-2.6-16.3,1.7L66.6,269l-19.3-19.3l14.1-14.2c4.3-4.3,5-11.2,1.7-16.3c-7.3-11.4-12.5-23.9-15.4-37.1
				c-1.3-6-6.7-10.3-12.7-10.3H15v-27.3h20c6.1,0,11.5-4.3,12.7-10.3c2.9-13.3,8-25.8,15.4-37.1c3.3-5.1,2.6-12-1.7-16.3L47.3,66.6
				l19.3-19.3l14.1,14.1c4.3,4.3,11.2,5,16.3,1.7c11.4-7.3,23.9-12.5,37.1-15.4c6-1.3,10.3-6.7,10.3-12.7V15h27.3v20
				c0,6.1,4.3,11.5,10.3,12.7c13.3,2.9,25.8,8,37.1,15.4c5.1,3.3,12,2.6,16.3-1.7l14.1-14.1L269,66.6l-14.1,14.1
				c-4.3,4.3-5,11.2-1.7,16.3c7.3,11.4,12.5,23.9,15.4,37.1c1.3,6,6.7,10.3,12.7,10.3h3.2v20.8c-18.1,4-35.1,11-50.6,21L215,167.4
				c-0.2-0.2-0.5-0.4-0.7-0.6c2.6-17.3-2.7-35.5-16-48.8c-15.7-15.7-39.3-20.8-60.1-13c-3.9,1.4-5.8,5.8-4.4,9.6
				c1.4,3.9,5.8,5.8,9.6,4.4c15.3-5.7,32.7-2,44.2,9.6c9.7,9.7,13.6,23,11.8,35.6c-1.8,0.7-3.4,1.8-4.8,3.2l-27.3,27.3
				c-1.4,1.4-2.5,3-3.2,4.8c-2,0.3-4,0.5-6,0.5c-11.2,0-21.7-4.4-29.6-12.3c-13.2-13.2-16-33.8-6.9-50c2-3.6,0.7-8.2-2.9-10.2
				c-3.6-2-8.2-0.7-10.2,2.9c-12.4,22.1-8.5,50,9.4,68c11.1,11.1,25.6,16.6,40.2,16.6c2.9,0,5.7-0.2,8.6-0.7
				c0.2,0.2,0.4,0.5,0.7,0.7l18.8,18.8c-9.9,15.5-17,32.6-21,50.6h-20.8v-3.2C144.5,275.1,140.2,269.8,134.2,268.5L134.2,268.5z
				 M497,336.8h-26.6c-6.7,0-12.6,4.8-14,11.4c-3.6,16.6-10.1,32.3-19.3,46.5c-3.6,5.7-2.9,13.2,1.9,18l18.8,18.8l-26.4,26.4
				L412.6,439c-4.7-4.7-12.3-5.5-18-1.9c-14.3,9.2-29.9,15.7-46.6,19.3c-6.6,1.4-11.4,7.3-11.4,14V497h-37.3v-26.6
				c0-6.7-4.8-12.6-11.4-14c-16.6-3.6-32.3-10.1-46.5-19.3c-5.7-3.6-13.2-2.9-18,1.9l-18.8,18.8l-26.4-26.4l18.8-18.8
				c4.7-4.7,5.5-12.3,1.9-18c-9.2-14.2-15.7-29.9-19.3-46.5c-1.4-6.6-7.3-11.4-14-11.4h-26.6v-37.3h26.6c6.7,0,12.6-4.8,14-11.4
				c3.6-16.6,10.1-32.3,19.3-46.5c3.6-5.7,2.9-13.2-1.9-18l-18.8-18.8l26.4-26.4l18.8,18.8c4.7,4.7,12.3,5.5,18,1.9
				c14.3-9.2,29.9-15.7,46.5-19.3c6.6-1.4,11.4-7.3,11.4-14v-26.6h37.3v26.6c0,6.7,4.8,12.6,11.4,14c16.6,3.6,32.3,10.1,46.6,19.3
				c5.7,3.6,13.2,2.9,18-1.9l18.8-18.8l26.4,26.4L439,223.6c-4.7,4.7-5.5,12.3-1.9,18c9.2,14.2,15.7,29.9,19.3,46.6
				c1.4,6.6,7.3,11.4,14,11.4H497L497,336.8L497,336.8z"/>
		</g>
	</g>
</g>
</svg>
