<svg xmlns="http://www.w3.org/2000/svg" width="232" height="232" viewBox="0 0 232 232">
  <g id="Group_187" data-name="Group 187" transform="translate(-898.036 -255.479)">
    <circle id="Ellipse_19" data-name="Ellipse 19" cx="116" cy="116" r="116" transform="translate(898.036 255.479)" fill="#fafbff"/>
    <circle id="Ellipse_18" data-name="Ellipse 18" cx="85.5" cy="85.5" r="85.5" transform="translate(928.036 285.479)" fill="#f6f8fe"/>
    <g id="Group_168" data-name="Group 168" transform="translate(913.673 323.717)">
      <path id="Path_245" data-name="Path 245" d="M74,103.053h49.255L142.928,83.38V10H74Z" transform="translate(-8.109 -8.109)" fill="#ffc9ce" fill-rule="evenodd"/>
      <path id="Path_246" data-name="Path 246" d="M334.426,417.654V397.98H354.1Z" transform="translate(-219.28 -322.709)" fill="#f44340" fill-rule="evenodd"/>
      <path id="Path_247" data-name="Path 247" d="M65.891,76.03a1.891,1.891,0,0,0,1.891-1.891V3.783h65.146V7.566a1.891,1.891,0,1,0,3.783,0V1.891A1.891,1.891,0,0,0,134.82,0H65.891A1.891,1.891,0,0,0,64,1.891V74.139A1.891,1.891,0,0,0,65.891,76.03Z" fill-rule="evenodd"/>
      <path id="Path_248" data-name="Path 248" d="M134.82,110a1.891,1.891,0,0,0-1.891,1.891v50.683H115.146a1.891,1.891,0,0,0-1.891,1.891v17.782H67.783v-3.783a1.891,1.891,0,1,0-3.783,0v5.675a1.891,1.891,0,0,0,1.891,1.891h49.255l.03,0c.052,0,.1,0,.155-.007.032,0,.063-.01.094-.014s.06-.007.089-.013.063-.015.095-.023.057-.013.085-.022.058-.021.086-.031.059-.019.088-.031.051-.024.076-.036.062-.027.092-.043.047-.027.069-.041.061-.034.089-.054.052-.038.078-.058.049-.034.072-.053a1.569,1.569,0,0,0,.14-.126l19.674-19.673a1.833,1.833,0,0,0,.164-.191c.013-.016.026-.033.038-.05a1.939,1.939,0,0,0,.131-.207l.006-.013a1.879,1.879,0,0,0,.093-.212c.007-.019.015-.039.021-.059a1.957,1.957,0,0,0,.065-.234.015.015,0,0,1,0-.005,1.934,1.934,0,0,0,.029-.237c0-.021,0-.043,0-.064s0-.042,0-.064V111.9A1.891,1.891,0,0,0,134.82,110Zm-17.782,69.573V166.361h13.216Z" transform="translate(0 -89.199)" fill-rule="evenodd"/>
      <path id="Path_249" data-name="Path 249" d="M305.608,105.551a1.891,1.891,0,0,0-2.674,0l-4.274,4.274-4.275-4.274a1.891,1.891,0,1,0-2.675,2.674l4.274,4.274-4.274,4.275a1.891,1.891,0,1,0,2.675,2.674l4.275-4.274,4.274,4.274a1.891,1.891,0,1,0,2.674-2.674l-4.274-4.275,4.274-4.274A1.89,1.89,0,0,0,305.608,105.551Z" transform="translate(-184.194 -85.138)" fill-rule="evenodd"/>
      <path id="Path_250" data-name="Path 250" d="M145.025,266.857c4.73-3.811,11.485-6,18.535-6s13.805,2.186,18.535,6a1.891,1.891,0,1,0,2.373-2.946c-5.39-4.343-13.011-6.834-20.908-6.834s-15.518,2.491-20.908,6.834a1.891,1.891,0,1,0,2.373,2.946Z" transform="translate(-63.204 -208.456)" fill-rule="evenodd"/>
      <path id="Path_251" data-name="Path 251" d="M142.5,119.445a1.891,1.891,0,0,0,2.675,0l4.274-4.274,4.274,4.274a1.891,1.891,0,0,0,2.675-2.674l-4.274-4.274,4.274-4.275a1.891,1.891,0,0,0-2.675-2.675l-4.274,4.274-4.274-4.274a1.891,1.891,0,1,0-2.675,2.675l4.274,4.275L142.5,116.77A1.892,1.892,0,0,0,142.5,119.445Z" transform="translate(-63.207 -85.135)" fill-rule="evenodd"/>
      <path id="Path_252" data-name="Path 252" d="M65.891,425.779A1.891,1.891,0,1,0,64,423.887,1.894,1.894,0,0,0,65.891,425.779Z" transform="translate(0 -342.183)" fill-rule="evenodd"/>
      <path id="Path_253" data-name="Path 253" d="M430.336,70a1.891,1.891,0,1,0,1.891,1.891A1.894,1.894,0,0,0,430.336,70Z" transform="translate(-295.517 -56.764)" fill-rule="evenodd"/>
    </g>
  </g>
</svg>
