<svg xmlns="http://www.w3.org/2000/svg" width="232" height="232" viewBox="0 0 232 232">
  <g id="Group_186" data-name="Group 186" transform="translate(-890 -236)">
    <circle id="Ellipse_19" data-name="Ellipse 19" cx="116" cy="116" r="116" transform="translate(890 236)" fill="#fafbff"/>
    <circle id="Ellipse_18" data-name="Ellipse 18" cx="85.5" cy="85.5" r="85.5" transform="translate(920 266)" fill="#f6f8fe"/>
    <path id="Path_228" data-name="Path 228" d="M83.316,385.68h-3.7a1.456,1.456,0,1,0,0,2.913h3.7a1.456,1.456,0,1,0,0-2.913Z" transform="translate(904.36 -1.863)" fill="#223e60"/>
    <path id="Path_229" data-name="Path 229" d="M133.4,385.68h-3.7a1.456,1.456,0,1,0,0,2.913h3.7a1.456,1.456,0,1,0,0-2.913Z" transform="translate(863.397 -1.863)" fill="#223e60"/>
    <path id="Path_230" data-name="Path 230" d="M183.476,385.68h-3.7a1.456,1.456,0,1,0,0,2.913h3.7a1.456,1.456,0,1,0,0-2.913Z" transform="translate(822.434 -1.863)" fill="#223e60"/>
    <path id="Path_231" data-name="Path 231" d="M233.556,385.68h-3.7a1.456,1.456,0,1,0,0,2.913h3.7a1.456,1.456,0,1,0,0-2.913Z" transform="translate(781.471 -1.863)" fill="#223e60"/>
    <path id="Path_233" data-name="Path 233" d="M71.9,11.6H3.335A3.35,3.35,0,0,0,0,14.935v13.02A3.35,3.35,0,0,0,3.335,31.29H9.641V81.157a1.456,1.456,0,0,0,2.913,0V26.28a3.437,3.437,0,0,1,3.437-3.437H60.28a6.32,6.32,0,0,0-1.019,3.437l-.087,54.877a1.456,1.456,0,0,0,2.913,0l.087-49.852H71.9a3.35,3.35,0,0,0,3.335-3.335V14.935A3.35,3.35,0,0,0,71.9,11.6Zm.422,16.37a.422.422,0,0,1-.422.422H62.173V26.28a3.437,3.437,0,0,1,3.437-3.437h1.456a1.456,1.456,0,1,0,0-2.913H7.806a1.456,1.456,0,1,0,0,2.913h2.913A6.292,6.292,0,0,0,9.685,26.28v2.112H3.335a.422.422,0,0,1-.422-.422h0V14.935a.422.422,0,0,1,.422-.422H71.9a.422.422,0,0,1,.422.422h0Z" transform="translate(968.291 304.116)" fill="#223e60"/>
    <path id="Path_234" data-name="Path 234" d="M105.3,149.553h16.37a1.456,1.456,0,1,0,0-2.913H105.3a1.456,1.456,0,1,0,0,2.913Z" transform="translate(883.355 193.66)" fill="#223e60"/>
    <path id="Path_235" data-name="Path 235" d="M229.856,149.553h8.127a1.456,1.456,0,1,0,0-2.913h-8.127a1.456,1.456,0,1,0,0,2.913Z" transform="translate(781.471 193.66)" fill="#223e60"/>
    <path id="Path_236" data-name="Path 236" d="M105.3,196.193h16.37a1.456,1.456,0,1,0,0-2.913H105.3a1.456,1.456,0,1,0,0,2.913Z" transform="translate(883.355 155.511)" fill="#223e60"/>
    <path id="Path_237" data-name="Path 237" d="M229.856,196.193h8.127a1.456,1.456,0,1,0,0-2.913h-8.127a1.456,1.456,0,1,0,0,2.913Z" transform="translate(781.471 155.511)" fill="#223e60"/>
    <path id="Path_238" data-name="Path 238" d="M105.3,242.913h16.37a1.456,1.456,0,1,0,0-2.913H105.3a1.456,1.456,0,1,0,0,2.913Z" transform="translate(883.355 117.296)" fill="#223e60"/>
    <path id="Path_239" data-name="Path 239" d="M229.856,242.913h8.127a1.456,1.456,0,1,0,0-2.913h-8.127a1.456,1.456,0,1,0,0,2.913Z" transform="translate(781.471 117.296)" fill="#223e60"/>
    <g id="check" transform="translate(1018.054 369)">
      <path id="Path_243" data-name="Path 243" d="M11.428,0A11.428,11.428,0,1,0,22.856,11.428,11.441,11.441,0,0,0,11.428,0Zm0,0" fill="#2196f3"/>
      <path id="Path_244" data-name="Path 244" d="M152.24,166.954l-6.19,6.19a.951.951,0,0,1-1.347,0l-3.1-3.1a.952.952,0,0,1,1.347-1.347l2.422,2.422,5.517-5.517a.952.952,0,0,1,1.347,1.347Zm0,0" transform="translate(-135.019 -157.948)" fill="#fafafa"/>
    </g>
  </g>
</svg>
