<svg height="512pt" viewBox="0 -17 512.001 512" width="512pt" xmlns="http://www.w3.org/2000/svg"><path d="m449.5625 478.699219h-387.125c-22.988281 0-41.625-18.636719-41.625-41.625v-279.933594h470.375v279.933594c0 22.988281-18.636719 41.625-41.625 41.625zm0 0" fill="#636363"/><path d="m468.292969 157.140625h-447.480469v120.25c2.839844 1.007813 5.773438 1.828125 8.800781 2.417969l191.175781 35.425781h70.425782l177.078125-32.8125v154.652344c0 22.988281-18.636719 41.625-41.625 41.625h22.894531c22.988281 0 41.625-18.636719 41.625-41.625v-279.933594zm0 0" fill="#494949"/><path d="m289.300781 294.421875v45.785156h-66.601562v-45.785156zm0 0" fill="#c9d2e3"/><path d="m222.699219 294.421875h66.601562v20.8125h-66.601562zm0 0" fill="#adbbd5"/><path d="m256 294.421875h33.300781l189.082031-35.035156c19.53125-3.832031 33.617188-20.949219 33.617188-40.847657v-68.683593c0-22.988281-18.636719-41.628907-41.625-41.628907h-428.75c-22.988281 0-41.625 18.640626-41.625 41.628907v68.683593c0 19.898438 14.085938 37.015626 33.617188 40.847657l189.082031 35.035156zm0 0" fill="#636363"/><path d="m470.375 108.226562h-24.976562c22.988281 0 41.625 18.640626 41.625 41.628907v79.171875c0 12.398437-5.464844 23.710937-14.308594 31.40625l5.667968-1.046875c19.53125-3.832031 33.617188-20.949219 33.617188-40.847657v-68.683593c0-22.988281-18.636719-41.628907-41.625-41.628907zm0 0" fill="#494949"/><path d="m259.105469 392.3125 22.890625-7.15625c4.347656-1.355469 7.304687-5.378906 7.304687-9.933594v-35.015625h-66.601562v35.015625c0 4.554688 2.957031 8.578125 7.304687 9.933594l22.890625 7.15625c2.023438.632812 4.1875.632812 6.210938 0zm0 0" fill="#ffd664"/><path d="m272.648438 340.207031v47.871094l9.347656-2.921875c4.347656-1.355469 7.304687-5.378906 7.304687-9.933594v-35.015625zm0 0" fill="#f9c646"/><path d="m193.5625 108.226562h-62.441406v-20.8125c0-5.746093 4.660156-10.40625 10.40625-10.40625h41.628906c5.746094 0 10.40625 4.660157 10.40625 10.40625zm0 0" fill="#ffd664"/><path d="m180.03125 77.007812v8.328126c0 5.746093-4.65625 10.40625-10.402344 10.40625h-38.507812v12.488281h62.441406v-20.8125c0-5.75-4.660156-10.410157-10.40625-10.410157zm0 0" fill="#f9c646"/><path d="m380.878906 108.226562h-62.441406v-20.8125c0-5.746093 4.660156-10.40625 10.40625-10.40625h41.628906c5.746094 0 10.40625 4.660157 10.40625 10.40625zm0 0" fill="#ffd664"/><path d="m367.351562 77.007812v8.328126c0 5.746093-4.660156 10.40625-10.40625 10.40625h-38.503906v12.488281h62.4375v-20.8125c0-5.75-4.660156-10.410157-10.40625-10.410157zm0 0" fill="#f9c646"/><path d="m366.308594 77.007812h-33.300782v-18.730468c0-13.769532-11.203124-24.976563-24.976562-24.976563h-104.0625c-13.773438 0-24.976562 11.203125-24.976562 24.976563v18.730468h-33.300782v-18.730468c0-32.132813 26.140625-58.277344 58.273438-58.277344h104.066406c32.132812 0 58.277344 26.144531 58.277344 58.277344zm0 0" fill="#c9d2e3"/><g fill="#adbbd5"><path d="m164.421875 58.277344v18.730468h14.570313v-18.730468c0-13.769532 11.203124-24.976563 24.976562-24.976563h-14.570312c-13.769532 0-24.976563 11.203125-24.976563 24.976563zm0 0"/><path d="m308.03125 0h-14.566406c32.132812 0 58.273437 26.140625 58.273437 58.277344v18.730468h14.570313v-18.730468c0-32.132813-26.140625-58.277344-58.277344-58.277344zm0 0"/></g></svg>