<?xml version="1.0" encoding="utf-8"?>
<!-- Generator: Adobe Illustrator 24.0.0, SVG Export Plug-In . SVG Version: 6.00 Build 0)  -->
<svg version="1.1" id="Layer_1" xmlns="http://www.w3.org/2000/svg" xmlns:xlink="http://www.w3.org/1999/xlink" x="0px" y="0px"
	 viewBox="0 0 511 511" style="enable-background:new 0 0 511 511;" xml:space="preserve">
<style type="text/css">
	.st0{fill:#88B337;}
	.st1{fill:#E5E5E5;}
	.st2{fill:#6B962A;}
	.st3{fill:#DE4C3C;}
	.st4{fill:#FDB62F;}
	.st5{fill:#638724;}
	.st6{fill:#DEDEDE;}
	.st7{fill:#EF2648;}
	.st8{fill:#FFA511;}
	.st9{fill:#FFDC13;}
	.st10{fill:#F08015;}
	.st11{fill:#E5AF17;}
	.st12{fill:#B20D24;}
</style>
<path class="st0" d="M67.8,101.9c0,0-28.8-17.5-26.8-40.2s35.3-28,35.3-28L99.6,47c0,0,37.6-18.2,51.6,0s-15.4,54.9-15.4,54.9
	L130,119c0,0,7,26.1-17,25.6S67.8,124,67.8,124l6.1-22.2"/>
<path class="st1" d="M332.3,511.5H178.7C84.4,511.5,8,435.1,8,340.8h495C503,435.1,426.6,511.5,332.3,511.5z"/>
<path class="st0" d="M399.1,101.9H392l22.4-22.4c13.7-13.2,15.2-34.7,3.5-49.7c-12.7-15.5-35.5-17.7-51-5c-0.9,0.8-1.8,1.5-2.6,2.4
	l-23.5,23.5v-7.1c0.3-14-10.3-25.8-24.2-27.1c-14.1-0.8-26.2,10.1-26.9,24.2c0,0.5,0,0.9,0,1.4v42.7c0-14.1-11.4-25.6-25.6-25.6
	c-0.5,0-0.9,0-1.4,0c-13.9,1.2-24.5,13.1-24.2,27.1v41.2c0-14.1-11.4-25.6-25.6-25.6c-0.5,0-0.9,0-1.4,0
	c-13.9,1.2-24.5,13.1-24.2,27.1v126.5h145.1c14.1,0,25.6-11.5,25.6-25.6l0,0c0-14.1-11.5-25.6-25.6-25.6h41.2
	c14,0.3,25.8-10.3,27.1-24.2c0.8-14.1-10.1-26.2-24.2-26.9c-0.5,0-0.9,0-1.4,0h25.6c14.1,0,25.6-11.4,25.6-25.6c0-0.5,0-0.9,0-1.4
	C424.9,112.2,413.1,101.6,399.1,101.9z"/>
<g>
	<polygon class="st2" points="381,73.8 368.9,61.7 332.3,98.4 332.3,76.3 315.2,76.3 315.2,115.4 281.1,149.6 281.1,119 264,119 
		264,166.6 229.9,200.8 229.9,161.6 212.8,161.6 212.8,217.8 130,300.7 142.1,312.7 224.9,229.9 281.1,229.9 281.1,212.8 242,212.8 
		276.1,178.7 323.8,178.7 323.8,161.6 293.2,161.6 327.3,127.5 366.4,127.5 366.4,110.4 344.4,110.4 	"/>
	<path class="st2" d="M99.5,153.1c-23.6,0-42.6-19.1-42.7-42.7v-4.3l-7.5-5.6c-17.3-13-20.9-37.6-7.9-55s37.6-20.9,55-7.9l3,2.3
		l3-2.3c17.3-13,42-9.5,55,7.8c0.4,0.6,0.9,1.2,1.3,1.8l0,0c11.6,17.3,7.6,40.7-9.1,53.2l-7.5,5.6v4.3
		C142.1,134,123,153.1,99.5,153.1z M73,47c-1.3,0-2.6,0.1-3.8,0.3c-6,1-11.4,4.5-14.7,9.6c-6.5,9.8-4.3,23,5.1,30.1l10.9,8.2
		c2.2,1.6,3.4,4.1,3.4,6.8v8.5c0,14.1,11.5,25.6,25.6,25.6s25.6-11.5,25.6-25.6V102c0-2.7,1.3-5.2,3.4-6.8l10.9-8.2
		c9.8-7.4,11.8-21.3,4.4-31.1s-21.3-11.8-31.1-4.4l-8.1,6.1c-3,2.3-7.2,2.3-10.2,0l-8.2-6.1C82.4,48.5,77.7,47,73,47z"/>
</g>
<g>
	<path class="st3" d="M460.3,127.5v-17.1c9.4,0,17.1-7.6,17.1-17.1s-7.6-17.1-17.1-17.1v-17c18.9,0,34.1,15.3,34.1,34.1
		S479.2,127.5,460.3,127.5z"/>
	<rect x="187.2" y="16.6" class="st3" width="17.1" height="17.1"/>
	<rect x="238.4" y="289.6" class="st3" width="17.1" height="17.1"/>
	<rect x="16.6" y="136" class="st3" width="17.1" height="17.1"/>
	<rect x="-0.5" y="101.9" class="st3" width="17.1" height="17.1"/>
</g>
<path class="st4" d="M366.4,315.2h-17.1c0-9.4-7.6-17.1-17.1-17.1s-17.1,7.6-17.1,17.1H298c0-18.9,15.3-34.1,34.1-34.1
	S366.4,296.4,366.4,315.2z"/>
<path class="st0" d="M101.9,212.8h-8.5c0-14.1-11.5-25.6-25.6-25.6s-25.6,11.5-25.6,25.6h-8.5C19.5,212.8,8,224.3,8,238.4
	S19.5,264,33.6,264h68.3c14.1,0,25.6-11.5,25.6-25.6S116,212.8,101.9,212.8z"/>
<rect x="50.7" y="264" class="st5" width="34.1" height="34.1"/>
<path class="st1" d="M451.8,204.3c-28.3,0-51.2,22.9-51.2,51.2s22.9,51.2,51.2,51.2s51.2-22.9,51.2-51.2S480,204.3,451.8,204.3z
	 M451.8,281.1c-14.1,0-25.6-11.5-25.6-25.6s11.5-25.6,25.6-25.6s25.6,11.5,25.6,25.6S465.9,281.1,451.8,281.1z"/>
<path class="st6" d="M385,336.8c-67.4,89.1-166.5,139.4-242.6,166.7c11.9,2.6,24.1,4,36.3,4h153.6c94.3,0,170.7-76.4,170.7-170.7
	H385L385,336.8z"/>
<path d="M503,322.3H8c-4.7,0-8.5,3.8-8.5,8.5c0.1,98.9,80.3,179.1,179.2,179.2h153.6c98.9-0.1,179.1-80.3,179.2-179.2
	C511.5,326.1,507.7,322.3,503,322.3z M332.3,493H178.7c-86.2-0.1-157.3-67.5-161.9-153.6h477.4C489.6,425.4,418.5,492.9,332.3,493z"
	/>
<path d="M434.6,125.7c-0.9-14.1-10.4-26.2-23.9-30.4l9.7-9.7c16.7-16.4,18.5-42.7,4-61.1c-15.7-19.1-43.9-21.9-63-6.2
	c-1.1,0.9-2.2,1.9-3.2,2.9L347.4,32c-5.5-18-24.6-28-42.5-22.4c-14.2,4.5-23.9,17.6-23.8,32.5v13.1c-16.4-9.4-37.3-3.8-46.7,12.6
	c-3.2,5.6-4.8,12-4.5,18.4v11.6c-5.7-3.3-12.3-4.8-18.9-4.5c-18.5,1.4-32.7,17-32.3,35.5v123L130,300.7l12.1,12.1l48.7-48.7h141.5
	c18.9,0,34.1-15.3,34.1-34.1c0-6-1.6-11.9-4.6-17.1h11.7c18.6,0.4,34.2-13.8,35.5-32.3c0.4-6.7-1.2-13.3-4.6-19.1
	c8-0.9,15.4-4.6,20.9-10.4C431.8,144.2,435.2,135,434.6,125.7z M412.9,139.2c-3.2,3.4-7.7,5.3-12.4,5.3H375c-4.7,0-8.5,3.8-8.5,8.5
	s3.8,8.5,8.5,8.5c9.4,0,17.1,7.6,17.1,17c0,0.3,0,0.6,0,0.9c-1,9.4-9.1,16.4-18.5,16.1h-41.2c-4.7,0-8.5,3.8-8.5,8.5
	s3.8,8.5,8.5,8.5c9.4,0,17.1,7.6,17.1,17.1c0,9.4-7.6,17.1-17.1,17.1H207.8l17.1-17.1h56.2v-17.1H242l34.1-34.1h47.7v-17.1h-30.6
	l34.1-34.1h39.1v-17.1h-22.1L381,73.8l-12.1-12.1l-36.6,36.6v-22h-17.1v39.1l-34.1,34.1V119H264v47.7l-34.1,34.1v-39.1h-17.1v56.2
	L195.7,235V128.9c-0.3-9.4,6.7-17.5,16.1-18.5c9.4-0.5,17.5,6.7,18,16.1c0,0.3,0,0.6,0,1c0,4.7,3.8,8.5,8.5,8.5s8.5-3.8,8.5-8.5
	V86.3c-0.3-9.4,6.7-17.5,16.1-18.5c9.4-0.5,17.5,6.7,18,16.1c0,0.3,0,0.6,0,1c0,4.7,3.8,8.5,8.5,8.5s8.5-3.8,8.5-8.5V42.2
	c0-9.4,7.6-17.1,17-17.1c0.3,0,0.6,0,1,0c9.4,1,16.4,9.1,16.1,18.5v7.1c0,4.7,3.8,8.5,8.5,8.5c2.3,0,4.4-0.9,6-2.5L370,33.2
	c10.8-10.8,28.4-10.8,39.2,0.1c0.6,0.6,1.2,1.3,1.8,2c8.9,11.6,7.6,28.1-3,38.2l-22,22.4c-3.3,3.3-3.3,8.7,0,12.1
	c1.6,1.6,3.8,2.5,6.1,2.5h7.1c9.4-0.3,17.5,6.8,18.5,16.1C417.9,131.3,416.2,135.8,412.9,139.2z"/>
<path d="M99.5,153.1c23.6,0,42.6-19.1,42.7-42.7v-4.3l7.5-5.6c17.3-13,20.9-37.6,7.9-55s-37.6-20.9-55-7.9l-3,2.3l-3-2.3
	c-17.3-13-42-9.5-55,7.9s-9.5,42,7.9,55l7.5,5.6v4.3C56.8,134,75.9,153.1,99.5,153.1z M54.4,56.8c3.4-5.1,8.7-8.6,14.7-9.6
	c1.3-0.2,2.5-0.3,3.8-0.3c4.8,0,9.4,1.6,13.2,4.4l8.2,6.1c3,2.3,7.2,2.3,10.2,0l8.1-6.1c9.8-7.4,23.7-5.4,31.1,4.4
	s5.4,23.7-4.4,31.1L128.4,95c-2.2,1.6-3.4,4.1-3.4,6.8v8.5c0,14.1-11.5,25.6-25.6,25.6s-25.6-11.5-25.6-25.6v-8.5
	c0-2.7-1.3-5.2-3.4-6.8l-10.9-8.2C50.2,79.8,47.9,66.6,54.4,56.8z"/>
<rect x="187.2" y="16.6" width="17.1" height="17.1"/>
<rect x="238.4" y="289.6" width="17.1" height="17.1"/>
<path class="st5" d="M460.3,110.4v17.1c18.9,0,34.1-15.3,34.1-34.1s-15.3-34.1-34.1-34.1v17.1c9.4,0,17.1,7.6,17.1,17.1
	S469.7,110.4,460.3,110.4z"/>
<rect x="16.6" y="136" width="17.1" height="17.1"/>
<rect x="-0.5" y="101.9" width="17.1" height="17.1"/>
<path d="M332.3,281.1c-18.9,0-34.1,15.3-34.1,34.1h17.1c0-9.4,7.6-17.1,17.1-17.1s17.1,7.6,17.1,17.1h17.1
	C366.4,296.4,351.2,281.1,332.3,281.1z"/>
<path d="M33.6,272.6h8.5v25.6c0,4.7,3.8,8.5,8.5,8.5h34.1c4.7,0,8.5-3.8,8.5-8.5v-25.6h8.5c18.8,0,34.1-15.3,34.1-34.1
	s-15.3-34.1-34.1-34.1h-1.1C96.1,186,77.5,175,59.3,179.7c-12,3.1-21.5,12.5-24.6,24.6h-1.1c-18.8,0-34.1,15.3-34.1,34.1
	S14.8,272.6,33.6,272.6z M76.3,289.6H59.2v-17.1h17.1V289.6z M33.6,221.4h8.5c4.7,0,8.5-3.8,8.5-8.5c0-9.4,7.6-17.1,17.1-17.1
	s17.1,7.6,17.1,17.1c0,4.7,3.8,8.5,8.5,8.5h8.5c9.4,0,17.1,7.6,17.1,17.1c0,9.4-7.6,17.1-17.1,17.1H33.6c-9.4,0-17.1-7.6-17.1-17.1
	C16.6,229,24.2,221.4,33.6,221.4z"/>
<path d="M451.8,229.9c-14.1,0-25.6,11.5-25.6,25.6s11.5,25.6,25.6,25.6s25.6-11.5,25.6-25.6S465.9,229.9,451.8,229.9z M451.8,264
	c-4.7,0-8.5-3.8-8.5-8.5c0-4.7,3.8-8.5,8.5-8.5s8.5,3.8,8.5,8.5C460.3,260.2,456.5,264,451.8,264z"/>
<path d="M451.8,195.8c-33,0-59.7,26.7-59.7,59.7s26.7,59.7,59.7,59.7s59.7-26.7,59.7-59.7S484.7,195.8,451.8,195.8z M451.8,298.2
	c-23.6,0-42.7-19.1-42.7-42.7s19.1-42.7,42.7-42.7s42.7,19.1,42.7,42.7C494.4,279,475.3,298.1,451.8,298.2z"/>
<g>
	<path class="st7" d="M178.6,436.5l-29.9,38.4l34.5-4.3l8.6,30.2L222,462l0.1-0.2c-6-6-12.5-11.5-19.5-16.2
		C194.9,441.7,186.9,438.7,178.6,436.5z"/>
	<path class="st7" d="M317.2,436.5c-8.3,2.2-16.3,5.3-24,9.1c-7,4.8-13.6,10.2-19.5,16.2l30.3,39l8.6-30.2l34.5,4.3L317.2,436.5z"/>
</g>
<path class="st8" d="M338.4,367.1c0-18.1,11.3-39.3,2.8-53.9c-8.7-15.1-33-15.8-48.1-24.5c-14.6-8.5-27.2-29.4-45.3-29.4
	s-30.7,20.9-45.3,29.4c-15.1,8.7-39.4,9.5-48.1,24.5c-8.4,14.6,2.8,35.8,2.8,53.9s-11.3,39.3-2.8,53.9c8.7,15.1,33,15.8,48.1,24.5
	c14.6,8.5,27.2,29.4,45.3,29.4s30.7-20.9,45.3-29.4c15.1-8.7,39.4-9.5,48.1-24.5C349.7,406.4,338.4,385.2,338.4,367.1z"/>
<circle class="st9" cx="247.9" cy="367.1" r="73.3"/>
<path class="st7" d="M290.7,349.9h-29.5l-9.1-28.1c-0.7-2.3-3.2-3.5-5.4-2.8c-1.3,0.4-2.3,1.4-2.8,2.8l-9.1,28.1h-29.5
	c-2.4,0-4.3,1.9-4.3,4.3c0,1.4,0.7,2.7,1.8,3.5l23.9,17.4l-9.1,28.1c-0.7,2.3,0.5,4.7,2.8,5.4c1.3,0.4,2.8,0.2,3.9-0.6l23.9-17.4
	l23.9,17.4c1.9,1.4,4.6,1,6-1c0.8-1.1,1-2.6,0.6-3.9l-9.1-28.1l23.9-17.4c1.9-1.4,2.3-4.1,0.9-6
	C293.3,350.5,292.1,349.9,290.7,349.9z"/>
<path class="st10" d="M341.3,313.2c-0.2-0.3-0.4-0.6-0.6-0.9c-6.3,12.1-13.9,23.5-22.5,34.1c11.4,38.8-10.7,79.5-49.5,91
	c-25.5,7.5-53.1,0.6-72-18c-12.9,2.5-26.1,3.8-39.2,3.8c-0.5,0-0.9,0-1.4,0c9.7,13,32.3,14.1,46.7,22.4C217.4,454,230,475,248.1,475
	s30.7-20.9,45.3-29.4c15.1-8.7,39.4-9.5,48.1-24.5c8.4-14.6-2.8-35.8-2.8-53.9S349.7,327.8,341.3,313.2z"/>
<path class="st11" d="M273.4,387.6l5.1,15.5c0.7,2.3-0.5,4.7-2.8,5.4c-1.3,0.4-2.8,0.2-3.9-0.6l-14.5-10.5
	c-19,10.5-39.5,17.9-60.7,22c28.8,28.4,75.2,28,103.6-0.8c18.7-19,25.6-46.6,18-72.2C305.3,362.3,290.3,376.1,273.4,387.6z"/>
<g>
	<path class="st12" d="M278.4,403.1l-5.1-15.5c-5.2,3.5-10.5,6.8-16.1,9.8l14.5,10.5c1.9,1.4,4.6,1,6-1
		C278.6,405.9,278.9,404.4,278.4,403.1z"/>
	<path class="st12" d="M310.4,462c11.2,0,22.2,2.5,32.3,7.3l-25.5-32.8c-8.3,2.2-16.3,5.3-24,9.1c-7,4.8-13.6,10.2-19.5,16.2l5.5,7
		C288.9,464.3,299.6,462,310.4,462z"/>
	<path class="st12" d="M202.6,445.5c-7.7-3.8-15.7-6.8-24-9.1l-1.3,1.7c14.6,10.5,23.2,27.4,23.2,45.3c0,2.3-0.2,4.5-0.4,6.7
		l22-28.3l0.1-0.2C216.2,455.8,209.6,450.3,202.6,445.5z"/>
</g>
<path d="M345,311.1c-6.4-11.1-19.3-15.1-31.7-19.1c-6.2-1.7-12.2-4.1-17.9-7c-5.2-3.4-10-7.3-14.4-11.6
	c-9.2-8.6-19.7-18.3-33.1-18.3c-13.3,0-23.8,9.7-33.1,18.3c-4.4,4.4-9.2,8.3-14.4,11.6c-5.7,3-11.7,5.3-17.9,7
	c-12.5,3.9-25.3,8-31.7,19.1c-6.2,10.7-3.4,23.7-0.7,36.3c1.6,6.5,2.6,13.1,2.9,19.8c-0.3,6.7-1.3,13.3-2.9,19.8
	c-2.7,12.6-5.5,25.6,0.7,36.3c4.9,7.4,12.3,12.8,20.8,15.4l-26.3,33.7c-1.5,1.9-1.1,4.6,0.8,6c0.9,0.7,2,1,3.2,0.9l30.8-3.9
	l7.6,26.6c0.4,1.6,1.7,2.7,3.3,3c0.3,0.1,0.5,0.1,0.8,0.1c1.3,0,2.6-0.6,3.4-1.7l27.5-35.4c6.8,6.6,15.7,10.6,25.1,11.2
	c9.4-0.6,18.3-4.6,25.1-11.2l27.5,35.4c0.8,1.1,2.1,1.7,3.4,1.7c0.3,0,0.5,0,0.8-0.1c1.6-0.3,2.9-1.5,3.3-3l7.6-26.6l30.8,3.9
	c2.4,0.3,4.5-1.4,4.8-3.7c0.1-1.1-0.2-2.3-0.9-3.2L324,438.7c8.5-2.5,15.8-8,20.8-15.4c6.2-10.7,3.4-23.7,0.7-36.3
	c-1.6-6.5-2.6-13.1-2.9-19.7c0.3-6.7,1.3-13.3,2.9-19.8C348.4,334.7,351.2,321.7,345,311.1z M193.7,491.4l-6.3-22
	c-0.6-2-2.6-3.4-4.7-3.1l-24.1,3l21.6-27.8l2.4,0.8c6.2,1.7,12.2,4.1,17.9,7c5.2,3.4,10,7.3,14.4,11.6l1.5,1.4L193.7,491.4z
	 M337.3,469.3l-24.1-3c-2.1-0.3-4.1,1-4.7,3.1l-6.3,22l-22.7-29.1l1.5-1.4c4.4-4.4,9.2-8.3,14.4-11.6c5.7-3,11.7-5.3,17.9-7l2.4-0.8
	L337.3,469.3z M337.2,388.7c2.5,11.5,4.8,22.4,0.3,30.2c-4.7,8.2-15.5,11.6-26.9,15.2c-6.8,1.9-13.4,4.5-19.6,7.8
	c-5.7,3.7-11.1,8-15.9,12.8c-8.9,8.2-17.3,16-27.2,16s-18.3-7.8-27.2-16c-4.8-4.8-10.2-9.1-15.9-12.8c-6.3-3.3-12.8-5.9-19.6-7.8
	c-11.4-3.6-22.2-7-26.9-15.2c-4.5-7.8-2.2-18.7,0.3-30.2c1.8-7.1,2.8-14.3,3.1-21.6c-0.3-7.3-1.3-14.5-3.1-21.6
	c-2.5-11.5-4.8-22.4-0.3-30.2c4.7-8.2,15.5-11.6,26.9-15.2c6.8-1.9,13.4-4.5,19.6-7.8c5.7-3.7,11.1-8,15.9-12.8
	c8.9-8.2,17.3-16,27.2-16c9.9,0,18.3,7.8,27.2,16c4.8,4.8,10.2,9.1,15.9,12.8c6.3,3.3,12.8,5.9,19.6,7.8c11.4,3.6,22.2,7,26.9,15.2
	c4.5,7.8,2.2,18.7-0.3,30.2c-1.8,7.1-2.8,14.3-3.1,21.6C334.4,374.4,335.5,381.6,337.2,388.7z"/>
<path d="M247.9,289.5c-42.9,0-77.6,34.7-77.6,77.6s34.7,77.6,77.6,77.6s77.6-34.7,77.6-77.6C325.5,324.3,290.7,289.6,247.9,289.5z
	 M247.9,436.1c-38.1,0-69-30.9-69-69s30.9-69,69-69s69,30.9,69,69C316.8,405.2,286,436,247.9,436.1z"/>
<path d="M290.7,345.5h-26.4l-8.2-25.1c-1.5-4.5-6.4-7-10.9-5.5c-2.6,0.9-4.6,2.9-5.5,5.5l-8.2,25.1h-26.4c-4.8,0-8.6,3.9-8.6,8.6
	c0,2.8,1.3,5.4,3.5,7l21.4,15.5l-8.2,25.1c-1.5,4.5,1,9.4,5.5,10.9c2.6,0.9,5.5,0.4,7.7-1.2l21.4-15.5l21.4,15.5
	c3,2.2,7.1,2.2,10.1,0c3.1-2.2,4.3-6.1,3.1-9.6l-8.2-25.1l21.4-15.5c3.9-2.8,4.7-8.2,1.9-12C296,346.9,293.4,345.5,290.7,345.5z
	 M290.7,354.2l-23.9,17.4c-1.5,1.1-2.1,3-1.6,4.8l9.1,28.1l-23.9-17.4c-1.5-1.1-3.6-1.1-5.1,0l-23.9,17.4l9.1-28.1
	c0.6-1.8-0.1-3.7-1.6-4.8L205,354.2h29.5c1.9,0,3.5-1.2,4.1-3l9.1-28.1l9.1,28.1c0.6,1.8,2.2,3,4.1,3H290.7z"/>
</svg>
