<?xml version="1.0" standalone="no"?>
<!DOCTYPE svg PUBLIC "-//W3C//DTD SVG 20010904//EN"
 "http://www.w3.org/TR/2001/REC-SVG-20010904/DTD/svg10.dtd">
<svg version="1.0" xmlns="http://www.w3.org/2000/svg"
 width="491.000000pt" height="435.000000pt" viewBox="0 0 491.000000 435.000000"
 preserveAspectRatio="xMidYMid meet">

<g transform="translate(0.000000,435.000000) scale(0.100000,-0.100000)"
fill="#000000" stroke="none">
<path d="M2326 4305 c4 -8 1 -15 -5 -15 -6 0 -11 5 -11 11 0 17 -123 5 -279
-26 -157 -32 -355 -97 -497 -165 -121 -57 -319 -177 -369 -225 -18 -17 -45
-37 -59 -44 -14 -8 -36 -26 -50 -40 l-25 -26 55 -29 55 -29 24 23 c27 25 31
50 15 81 -9 16 -7 19 12 19 17 0 19 3 10 12 -17 17 -15 31 3 24 12 -4 14 0 9
21 -5 18 -4 24 5 19 6 -4 9 -11 6 -16 -3 -5 13 -21 35 -35 l42 -26 31 24 c18
13 61 41 97 62 36 21 67 42 70 45 3 4 18 10 34 14 24 6 27 9 15 18 -12 8 -11
9 2 5 9 -3 77 19 151 48 203 82 415 130 618 142 l105 6 30 35 c17 20 35 43 42
51 11 14 12 14 13 -1 0 -9 -11 -30 -25 -46 -14 -17 -25 -32 -25 -34 0 -3 55
-8 123 -11 144 -8 358 -50 504 -99 71 -25 105 -32 112 -25 6 6 11 7 11 1 0 -5
4 -4 8 3 4 6 20 15 35 18 23 6 26 4 21 -9 -4 -9 -12 -15 -18 -13 -6 2 -20 0
-30 -6 -16 -8 0 -19 105 -71 68 -33 126 -60 128 -59 2 1 -2 9 -9 18 -7 9 -10
19 -6 23 10 9 38 -29 32 -44 -3 -7 16 -23 42 -35 26 -13 51 -29 57 -36 26 -30
150 -114 153 -104 4 13 32 15 32 2 0 -6 -4 -12 -10 -16 -5 -3 42 -56 105 -117
99 -95 160 -168 283 -336 19 -26 22 -36 12 -45 -9 -9 -16 -6 -28 13 -67 99
-135 181 -143 173 -11 -11 104 -173 123 -173 19 0 1 -25 -23 -30 -17 -5 -23
-12 -21 -26 5 -27 5 -27 66 -13 51 11 55 14 50 36 -4 14 -2 23 6 23 6 0 8 5 5
10 -3 6 -1 10 4 10 14 0 14 -13 1 -26 -18 -18 5 -35 38 -28 17 4 30 9 28 13
-2 3 16 7 41 7 54 2 67 12 47 38 -8 11 -14 15 -14 9 0 -6 -9 -9 -20 -6 -16 4
-19 2 -13 -13 6 -18 6 -18 -15 0 -15 13 -22 15 -22 6 0 -7 -3 -10 -6 -7 -4 4
-1 13 5 21 10 12 2 30 -43 98 -30 46 -74 103 -96 128 -22 25 -49 56 -58 70
-37 53 -147 160 -159 156 -7 -3 -13 1 -13 9 0 16 -99 105 -117 105 -7 0 -13 4
-13 9 0 8 -50 47 -135 106 -54 37 -215 128 -220 123 -2 -2 2 -17 10 -32 8 -16
15 -33 15 -40 -1 -18 -39 36 -45 64 -5 21 -11 25 -38 24 -33 -2 -34 -4 -22
-41 10 -36 -9 -27 -23 10 -10 27 -10 34 4 44 14 10 12 13 -13 27 -32 16 -251
91 -268 92 -5 0 -21 5 -35 11 -14 5 -78 20 -144 33 -87 16 -121 19 -126 10 -5
-8 -11 -6 -20 5 -13 16 -40 21 -40 7 0 -4 5 -13 12 -20 9 -9 8 -12 -5 -12 -9
0 -21 9 -27 21 -7 12 -20 19 -33 18 -12 -1 -30 1 -39 5 -21 10 -46 -3 -28 -14
8 -5 9 -10 2 -14 -6 -3 -13 3 -17 14 -5 16 -15 20 -46 20 -24 0 -38 -4 -34
-10 3 -5 1 -10 -4 -10 -6 0 -11 5 -11 10 0 6 -25 10 -55 10 -44 0 -53 -3 -49
-15z m299 -15 c3 -5 1 -10 -4 -10 -6 0 -11 5 -11 10 0 6 2 10 4 10 3 0 8 -4
11 -10z m25 -56 c0 -8 -4 -14 -10 -14 -5 0 -10 4 -10 9 0 5 -3 18 -7 28 -6 16
-5 16 10 4 9 -7 17 -20 17 -27z m50 0 c0 -8 -4 -12 -10 -9 -5 3 -10 10 -10 16
0 5 5 9 10 9 6 0 10 -7 10 -16z m100 6 c0 -5 -4 -10 -10 -10 -5 0 -10 5 -10
10 0 6 5 10 10 10 6 0 10 -4 10 -10z m105 -1 c11 -17 -1 -21 -15 -4 -8 9 -8
15 -2 15 6 0 14 -5 17 -11z m-85 -29 c0 -5 -2 -10 -4 -10 -3 0 -8 5 -11 10 -3
6 -1 10 4 10 6 0 11 -4 11 -10z m-950 -16 c0 -8 -4 -12 -10 -9 -5 3 -10 10
-10 16 0 5 5 9 10 9 6 0 10 -7 10 -16z m1070 -4 c0 -5 -4 -10 -10 -10 -5 0
-10 5 -10 10 0 6 5 10 10 10 6 0 10 -4 10 -10z m-50 -10 c0 -5 -5 -10 -11 -10
-5 0 -7 5 -4 10 3 6 8 10 11 10 2 0 4 -4 4 -10z m-1140 -70 c0 -5 -2 -10 -4
-10 -3 0 -8 5 -11 10 -3 6 -1 10 4 10 6 0 11 -4 11 -10z m-250 -89 c13 -25 13
-34 0 -26 -16 10 -32 45 -21 45 6 0 15 -9 21 -19z m2020 -30 c0 -5 7 -17 16
-25 14 -14 14 -16 0 -16 -8 0 -20 9 -26 19 -13 25 -13 31 0 31 6 0 10 -4 10
-9z m-2070 -22 c0 -5 -4 -9 -10 -9 -5 0 -10 7 -10 16 0 8 5 12 10 9 6 -3 10
-10 10 -16z m2158 -11 c7 -7 12 -16 12 -22 0 -6 -5 -5 -12 2 -7 7 -20 12 -30
12 -10 0 -18 5 -18 10 0 14 33 13 48 -2z m-2288 -48 c0 -5 -4 -10 -10 -10 -5
0 -10 5 -10 10 0 6 5 10 10 10 6 0 10 -4 10 -10z m30 -21 c0 -5 -4 -9 -10 -9
-5 0 -10 7 -10 16 0 8 5 12 10 9 6 -3 10 -10 10 -16z m-220 -53 c0 -3 -4 -8
-10 -11 -5 -3 -10 -1 -10 4 0 6 5 11 10 11 6 0 10 -2 10 -4z m2683 -40 c29
-47 32 -56 18 -56 -5 0 -12 8 -16 19 -3 10 -14 29 -25 41 -21 24 -26 40 -12
40 4 -1 19 -20 35 -44z m-2683 -22 c0 -8 -4 -12 -10 -9 -5 3 -10 10 -10 16 0
5 5 9 10 9 6 0 10 -7 10 -16z m40 -14 c0 -5 -4 -10 -10 -10 -5 0 -10 5 -10 10
0 6 5 10 10 10 6 0 10 -4 10 -10z m2745 -51 c11 -17 -1 -21 -15 -4 -8 9 -8 15
-2 15 6 0 14 -5 17 -11z m30 -79 c18 -20 15 -38 -4 -25 -15 9 -33 45 -23 45 5
0 17 -9 27 -20z m70 -10 c3 -5 1 -10 -4 -10 -6 0 -11 5 -11 10 0 6 2 10 4 10
3 0 8 -4 11 -10z m25 -56 c0 -8 -4 -14 -10 -14 -5 0 -10 9 -10 21 0 11 5 17
10 14 6 -3 10 -13 10 -21z m-50 -8 c0 -3 -4 -8 -10 -11 -5 -3 -10 -1 -10 4 0
6 5 11 10 11 6 0 10 -2 10 -4z m106 -98 c5 -7 2 -9 -8 -5 -12 4 -15 0 -11 -16
4 -15 2 -19 -5 -12 -6 6 -14 23 -18 39 -6 26 -5 27 14 17 12 -6 24 -16 28 -23z
m22 -47 c3 -8 -1 -12 -9 -9 -7 2 -15 10 -17 17 -3 8 1 12 9 9 7 -2 15 -10 17
-17z m0 -39 c6 -18 -15 -14 -22 4 -4 10 -1 14 6 12 6 -2 14 -10 16 -16z m62
-17 c0 -14 -4 -25 -10 -25 -5 0 -10 11 -10 25 0 14 5 25 10 25 6 0 10 -11 10
-25z m15 -45 c3 -5 1 -10 -4 -10 -6 0 -11 5 -11 10 0 6 2 10 4 10 3 0 8 -4 11
-10z"/>
<path d="M2316 4162 c-3 -2 -33 -5 -68 -7 -119 -6 -382 -64 -473 -104 -11 -5
-56 -24 -100 -41 -93 -38 -121 -55 -106 -65 6 -3 11 -2 11 4 0 6 7 8 15 5 8
-4 15 -1 15 6 0 6 4 9 9 6 14 -9 41 4 41 20 0 7 6 11 13 8 8 -3 36 5 63 17 27
12 52 22 56 21 3 -1 33 8 64 18 144 50 427 99 533 93 51 -3 60 -1 55 12 -7 18
-20 20 -27 3 -4 -10 -8 -10 -14 -1 -7 10 -78 15 -87 5z"/>
<path d="M2462 4158 c3 -7 26 -14 53 -16 44 -3 48 -2 36 12 -16 20 -95 23 -89
4z"/>
<path d="M2570 4157 c0 -12 20 -17 85 -21 33 -2 67 -6 75 -9 8 -2 65 -15 125
-27 61 -13 143 -34 183 -47 39 -13 77 -21 82 -18 6 3 10 2 10 -4 0 -5 10 -13
23 -17 58 -17 280 -132 361 -186 147 -98 204 -145 333 -274 133 -133 177 -151
66 -28 -81 91 -142 146 -155 138 -5 -3 -12 3 -15 15 -6 23 -51 57 -70 53 -7
-2 -13 4 -13 11 0 20 -67 70 -82 61 -6 -4 -8 -3 -5 2 14 24 -341 220 -413 228
-8 1 -28 9 -45 17 -16 9 -52 22 -80 29 -27 7 -70 19 -94 27 -31 10 -46 11 -51
3 -5 -7 -11 -6 -20 5 -7 9 -20 13 -28 10 -8 -3 -21 0 -28 6 -8 6 -23 9 -34 6
-11 -3 -23 -1 -26 5 -3 5 -18 8 -32 7 -15 -1 -34 1 -42 4 -24 9 -110 13 -110
4z"/>
<path d="M2353 4067 c-2 -4 1 -14 7 -22 8 -10 9 -15 2 -15 -6 0 -14 5 -18 12
-5 7 -11 5 -21 -7 -21 -30 -15 -61 18 -90 17 -14 29 -28 26 -31 -3 -3 -16 3
-28 15 -13 12 -26 21 -29 21 -4 0 -10 -30 -13 -67 -5 -54 -3 -70 10 -85 9 -10
13 -21 10 -25 -4 -4 -13 1 -20 10 -10 15 -12 13 -14 -14 -2 -24 2 -32 17 -36
11 -3 20 -9 20 -14 0 -5 7 -9 15 -9 20 0 19 17 -2 29 -10 5 -15 13 -11 16 4 4
18 -6 32 -21 24 -27 25 -28 26 -7 0 35 11 53 30 53 14 0 20 -9 22 -32 2 -19 8
-33 16 -32 6 1 29 2 51 3 l38 1 -15 78 c-9 42 -19 79 -24 80 -4 2 -5 8 -2 14
4 5 -2 50 -12 99 l-18 89 -54 -2 c-29 -2 -56 -7 -59 -11z m47 -57 c0 -5 -2
-10 -4 -10 -3 0 -8 5 -11 10 -3 6 -1 10 4 10 6 0 11 -4 11 -10z m-22 -32 c9
-9 12 -9 12 2 0 9 3 10 9 5 6 -6 13 -40 16 -77 6 -65 6 -68 -14 -68 -20 0 -21
4 -16 51 5 44 3 53 -14 66 -21 14 -28 33 -13 33 4 0 13 -5 20 -12z m112 -69
c0 -6 -4 -7 -10 -4 -5 3 -10 11 -10 16 0 6 5 7 10 4 6 -3 10 -11 10 -16z
m-156 -25 c9 -22 -3 -32 -14 -14 -12 19 -12 30 -1 30 5 0 12 -7 15 -16z m25
-57 c13 4 13 3 2 -5 -7 -5 -10 -15 -7 -21 4 -6 3 -11 -1 -11 -14 0 -33 23 -33
39 0 11 3 12 11 4 6 -6 19 -9 28 -6z m131 -17 c6 -11 9 -20 7 -20 -2 0 -12 9
-22 20 -10 11 -13 20 -7 20 6 0 16 -9 22 -20z m-110 -40 c0 -5 -4 -10 -10 -10
-5 0 -10 5 -10 10 0 6 5 10 10 10 6 0 10 -4 10 -10z"/>
<path d="M2636 4009 c-5 -52 -3 -64 12 -75 9 -7 13 -14 7 -14 -5 0 -3 -4 5
-10 8 -5 11 -12 7 -16 -3 -4 -16 4 -27 17 l-20 24 0 -35 c1 -19 -5 -69 -13
-112 l-13 -76 35 -6 c54 -9 69 -7 68 7 -1 6 3 40 7 75 l9 62 33 -3 c28 -4 33
0 39 20 7 28 0 43 -22 43 -13 0 -13 -3 -3 -15 7 -9 10 -18 7 -21 -3 -3 -17 11
-33 31 -22 29 -25 38 -14 45 7 4 13 22 12 39 -1 35 13 42 21 11 3 -13 14 -20
30 -20 19 0 26 6 30 28 7 37 0 42 -66 46 -31 1 -60 6 -64 9 -3 4 -14 7 -23 7
-14 0 -19 -13 -24 -61z m49 -7 c-6 -7 -35 18 -35 31 0 5 9 2 20 -8 11 -10 18
-20 15 -23z m-11 -34 l16 -32 -24 24 c-14 12 -23 27 -20 31 8 14 11 11 28 -23z
m-24 -132 c0 -7 9 -25 21 -40 11 -14 19 -34 16 -44 -3 -15 -5 -15 -12 3 -5 11
-17 32 -27 47 -20 29 -23 48 -8 48 6 0 10 -6 10 -14z m40 -2 c0 -8 -4 -12 -10
-9 -5 3 -10 10 -10 16 0 5 5 9 10 9 6 0 10 -7 10 -16z"/>
<path d="M2000 4029 c-44 -18 -60 -40 -60 -81 0 -73 54 -135 88 -102 16 17 32
18 32 3 0 -5 -4 -8 -9 -4 -5 3 -12 1 -16 -5 -3 -5 9 -16 27 -23 42 -18 60 -40
56 -69 -5 -34 -31 -28 -42 10 -9 34 -15 36 -65 26 -23 -5 -31 -12 -31 -28 0
-38 35 -83 70 -90 67 -13 175 39 149 71 -9 10 -8 13 3 13 13 0 14 7 5 45 -11
50 -49 86 -102 99 -48 12 -75 34 -75 62 0 33 33 29 38 -4 2 -16 9 -21 20 -18
9 2 29 7 45 10 33 8 35 33 6 70 -17 22 -28 26 -67 25 -26 0 -58 -5 -72 -10z
m188 -208 c3 -9 -5 -7 -22 4 -14 10 -26 22 -26 27 0 13 43 -15 48 -31z m-38
-65 c0 -3 -4 -8 -10 -11 -5 -3 -10 -1 -10 4 0 6 5 11 10 11 6 0 10 -2 10 -4z
m20 -42 c0 -8 -4 -14 -9 -14 -11 0 -22 26 -14 34 9 9 23 -3 23 -20z m-120 -22
c0 -15 -2 -15 -10 -2 -13 20 -13 33 0 25 6 -3 10 -14 10 -23z"/>
<path d="M2886 3860 c-26 -83 -44 -155 -40 -161 4 -6 1 -15 -6 -19 -9 -5 11
-16 56 -29 38 -12 76 -24 85 -27 10 -3 19 2 22 13 2 10 8 26 12 35 5 13 -1 18
-29 24 -39 7 -44 21 -26 68 8 23 12 25 36 15 30 -11 38 -6 49 29 5 19 2 24
-24 33 -23 8 -29 16 -28 36 3 35 30 52 57 35 24 -15 30 -15 30 -1 0 5 -4 7
-10 4 -5 -3 -10 -1 -10 5 0 6 6 13 14 16 8 3 17 12 20 19 3 9 -16 20 -64 34
-37 12 -74 21 -82 21 -10 0 -30 -49 -62 -150z m101 75 c9 -25 -4 -29 -17 -6
-7 15 -7 21 0 21 6 0 13 -7 17 -15z m-27 -35 c0 -5 -4 -10 -10 -10 -5 0 -10 5
-10 10 0 6 5 10 10 10 6 0 10 -4 10 -10z m10 -60 c0 -5 -4 -10 -10 -10 -5 0
-10 5 -10 10 0 6 5 10 10 10 6 0 10 -4 10 -10z m-75 -139 c3 -5 1 -12 -4 -15
-5 -3 -11 1 -15 9 -6 16 9 21 19 6z"/>
<path d="M1472 3913 c-42 -24 -60 -39 -53 -46 11 -11 133 51 133 68 -1 19 -17
14 -80 -22z"/>
<path d="M3186 3900 c-13 -28 -13 -31 11 -48 l25 -18 -35 -71 c-23 -44 -34
-78 -30 -92 4 -16 2 -20 -9 -16 -10 4 -20 -7 -33 -35 -10 -22 -16 -42 -14 -44
9 -8 81 -47 83 -44 0 2 7 14 14 26 8 14 11 37 7 55 -5 28 -4 30 8 15 12 -15
18 -7 57 73 34 68 48 88 60 83 38 -16 47 -15 58 11 7 14 12 28 12 30 0 3 -45
27 -100 54 l-99 50 -15 -29z m69 -70 c3 -5 1 -10 -4 -10 -6 0 -11 5 -11 10 0
6 2 10 4 10 3 0 8 -4 11 -10z"/>
<path d="M1573 3858 c-13 -6 -23 -17 -23 -25 0 -8 -4 -12 -9 -9 -18 12 -39 -5
-34 -27 4 -22 4 -22 -12 -2 -14 17 -17 18 -25 5 -5 -8 -10 -11 -10 -5 0 5 -5
4 -11 -2 -10 -10 2 -48 20 -63 3 -3 21 -34 39 -70 48 -97 90 -172 100 -182 12
-12 160 70 180 100 13 20 13 27 -4 65 -27 59 -99 185 -120 208 -19 21 -56 24
-91 7z m27 -14 c0 -3 -5 -14 -10 -25 -9 -15 -7 -26 8 -47 46 -66 100 -179 92
-191 -12 -20 -24 -8 -55 54 -16 30 -36 62 -47 71 -10 10 -18 25 -18 35 0 10
-4 20 -9 23 -12 8 -2 46 11 46 6 0 6 6 -1 14 -9 11 -9 15 1 19 18 8 28 8 28 1z
m70 -14 c0 -5 -2 -10 -4 -10 -3 0 -8 5 -11 10 -3 6 -1 10 4 10 6 0 11 -4 11
-10z m-10 -31 c0 -5 -4 -9 -10 -9 -5 0 -10 7 -10 16 0 8 5 12 10 9 6 -3 10
-10 10 -16z m-180 -23 c0 -11 -19 -15 -25 -6 -3 5 1 10 9 10 9 0 16 -2 16 -4z
m210 -16 c8 -5 12 -11 10 -14 -3 -2 -14 2 -24 10 -22 15 -10 19 14 4z m-134
-36 c24 -20 44 -41 44 -47 0 -5 -9 -2 -19 7 -11 10 -24 15 -29 12 -5 -3 -22
10 -36 29 -35 45 -16 45 40 -1z m124 11 c14 -16 10 -18 -14 -9 -9 3 -16 10
-16 15 0 14 16 11 30 -6z m-175 -15 c3 -5 1 -10 -4 -10 -6 0 -11 5 -11 10 0 6
2 10 4 10 3 0 8 -4 11 -10z m239 -65 c22 -19 35 -35 30 -35 -5 0 -27 16 -49
35 -22 19 -35 34 -30 34 6 0 28 -15 49 -34z m16 -55 c0 -5 -2 -10 -4 -10 -3 0
-8 5 -11 10 -3 6 -1 10 4 10 6 0 11 -4 11 -10z m-150 -40 c12 -8 11 -10 -7
-10 -13 0 -23 5 -23 10 0 13 11 13 30 0z"/>
<path d="M1220 3851 c0 -6 7 -11 15 -11 8 0 15 -5 15 -11 0 -6 -9 -8 -20 -4
-17 5 -20 2 -20 -22 1 -27 1 -27 15 -9 8 11 15 17 15 13 0 -4 12 0 26 9 27 18
23 24 -23 38 -14 5 -23 3 -23 -3z"/>
<path d="M1338 3829 c-27 -17 -48 -38 -48 -46 0 -8 -6 -13 -13 -10 -17 6 -51
-19 -42 -32 8 -14 30 -3 70 36 17 15 47 36 68 46 21 9 35 22 32 27 -9 15 -15
13 -67 -21z"/>
<path d="M972 3726 c-39 -37 -41 -42 -25 -53 16 -11 15 -12 -10 -12 -21 -1
-40 -14 -72 -48 -132 -146 -233 -297 -331 -494 -45 -90 -46 -94 -30 -120 22
-37 20 -46 -4 -24 -11 10 -21 16 -23 14 -1 -2 -10 -21 -20 -41 -19 -42 -21
-40 57 -42 46 -1 50 1 64 32 14 29 14 34 2 44 -13 8 -13 9 1 5 11 -4 24 13 48
61 l33 66 -29 23 c-32 26 -24 31 13 7 23 -16 24 -15 17 1 -4 12 -3 16 5 11 6
-4 27 21 52 63 67 116 187 270 296 380 57 58 102 106 101 106 -1 1 -25 15 -52
32 l-50 30 -43 -41z m33 -76 c3 -5 -1 -10 -9 -10 -9 0 -16 5 -16 10 0 6 4 10
9 10 6 0 13 -4 16 -10z m-435 -510 c0 -5 -4 -10 -10 -10 -5 0 -10 5 -10 10 0
6 5 10 10 10 6 0 10 -4 10 -10z m38 -29 c3 -8 -1 -12 -9 -9 -7 2 -15 10 -17
17 -3 8 1 12 9 9 7 -2 15 -10 17 -17z m-50 -76 c17 -38 14 -43 -8 -15 -21 27
-25 40 -12 40 5 0 14 -11 20 -25z"/>
<path d="M3472 3673 c-18 -49 -32 -93 -32 -100 0 -6 -22 -41 -50 -77 l-49 -64
36 -28 36 -27 38 44 c21 24 39 47 39 50 0 3 45 36 100 73 55 37 100 69 100 71
0 9 -55 55 -66 55 -6 0 -32 -20 -57 -45 -26 -25 -49 -45 -52 -45 -2 0 11 29
29 64 32 61 33 66 17 80 -10 9 -23 16 -29 16 -7 0 -12 5 -12 10 0 31 -19 -1
-48 -77z m85 21 c-9 -9 -27 6 -27 22 0 13 2 13 16 -1 9 -9 14 -18 11 -21z m73
-50 c0 -8 -5 -12 -10 -9 -6 4 -8 11 -5 16 9 14 15 11 15 -7z m-130 -34 c0 -5
-4 -10 -10 -10 -5 0 -10 5 -10 10 0 6 5 10 10 10 6 0 10 -4 10 -10z m-70 -150
c0 -5 -2 -10 -4 -10 -3 0 -8 5 -11 10 -3 6 -1 10 4 10 6 0 11 -4 11 -10z"/>
<path d="M1207 3733 c-3 -5 -2 -15 2 -22 5 -7 11 -9 14 -4 3 5 2 15 -2 22 -5
7 -11 9 -14 4z"/>
<path d="M1170 3700 c0 -5 5 -10 10 -10 6 0 10 5 10 10 0 6 -4 10 -10 10 -5 0
-10 -4 -10 -10z"/>
<path d="M1048 3588 c-56 -57 -135 -147 -174 -199 -71 -95 -158 -229 -149
-229 2 0 -6 -15 -19 -34 -34 -50 -51 -95 -39 -107 6 -6 20 14 39 53 72 156
212 347 366 502 61 62 95 103 89 109 -6 6 -48 -30 -113 -95z"/>
<path d="M1238 3637 c-86 -50 -95 -111 -27 -192 75 -91 136 -145 163 -145 62
0 136 67 136 124 0 38 -30 83 -116 174 -67 70 -92 76 -156 39z m66 -23 c9 -22
-3 -32 -14 -14 -12 19 -12 30 -1 30 5 0 12 -7 15 -16z m-11 -37 c4 3 10 -3 13
-13 4 -10 33 -51 65 -91 33 -39 59 -76 59 -82 0 -35 -49 9 -168 151 -18 22 -8
56 12 39 7 -6 16 -8 19 -4z"/>
<path d="M2285 3640 c-90 -10 -216 -37 -228 -49 -5 -5 -5 -17 2 -29 10 -19 14
-19 63 -7 116 30 207 37 379 33 145 -4 190 -10 273 -31 54 -15 103 -24 109
-20 6 3 7 1 3 -5 -4 -7 -1 -12 9 -12 27 0 172 -67 268 -123 49 -29 97 -57 108
-63 11 -6 31 -21 44 -34 22 -21 123 -55 133 -46 9 9 -150 129 -246 187 -116
69 -234 120 -361 155 -105 29 -105 29 -98 4 3 -11 1 -20 -4 -20 -5 0 -11 11
-15 24 -5 22 -13 24 -105 35 -110 12 -226 12 -334 1z m169 -16 c4 -10 1 -14
-6 -12 -15 5 -23 28 -10 28 5 0 13 -7 16 -16z m786 -245 c0 -5 -4 -9 -10 -9
-5 0 -10 7 -10 16 0 8 5 12 10 9 6 -3 10 -10 10 -16z m50 -25 c0 -8 -4 -14
-10 -14 -5 0 -10 9 -10 21 0 11 5 17 10 14 6 -3 10 -13 10 -21z"/>
<path d="M1983 3555 c3 -16 0 -24 -7 -22 -6 2 -12 9 -12 15 -1 7 -2 14 -3 17
-5 17 -263 -116 -370 -192 -88 -62 -311 -286 -311 -313 0 -11 -6 -23 -14 -26
-20 -8 -50 -55 -49 -76 1 -10 -4 -18 -12 -18 -28 0 -175 -338 -175 -404 0 -22
-19 -29 -205 -72 -88 -20 -162 -39 -165 -43 -3 -3 -23 -7 -44 -9 -22 -2 -55
-10 -73 -17 -30 -13 -34 -12 -42 4 -7 12 -6 22 1 29 8 8 8 15 -2 27 -11 13
-10 18 2 28 16 13 41 134 31 150 -3 5 0 13 8 17 7 5 13 27 13 49 1 23 5 41 10
41 4 0 6 7 2 15 -3 8 -2 15 3 15 5 0 13 12 19 28 5 15 25 64 43 110 23 57 30
85 22 93 -12 12 -47 -66 -37 -82 3 -6 -1 -16 -9 -22 -26 -21 -108 -299 -109
-372 0 -16 -5 -35 -9 -41 -5 -6 -8 -20 -8 -30 5 -53 -1 -74 -22 -74 -18 0 -20
4 -14 30 6 25 3 30 -19 36 -16 4 -24 12 -23 25 1 10 6 19 12 19 5 0 2 6 -7 13
-10 8 -13 18 -9 26 6 9 13 5 25 -13 9 -14 12 -26 7 -26 -5 0 -12 -7 -15 -16
-4 -9 -2 -13 5 -8 6 4 15 1 19 -6 5 -8 10 -1 15 21 5 22 4 34 -4 37 -6 2 -11
8 -11 14 0 6 7 7 16 4 8 -3 13 -2 10 3 -3 5 -2 22 3 37 5 16 14 54 21 84 7 30
23 87 36 127 32 94 31 96 -12 78 -28 -11 -40 -12 -50 -4 -10 8 -14 8 -14 0 0
-6 -7 -11 -15 -11 -8 0 -15 -2 -15 -5 0 -3 -11 -43 -25 -91 -14 -47 -32 -129
-41 -181 -14 -79 -14 -97 -3 -104 11 -6 11 -9 -1 -14 -9 -3 -16 -21 -18 -41
-1 -20 -6 -43 -11 -53 -7 -11 -5 -21 6 -33 10 -12 12 -18 4 -18 -6 0 -14 7
-17 15 -6 15 -34 21 -34 8 0 -5 -18 -9 -40 -9 -58 -3 -119 -41 -147 -93 -29
-55 -29 -111 -2 -216 12 -44 23 -91 26 -105 21 -108 68 -288 79 -301 16 -17
19 -39 6 -39 -8 0 30 -169 44 -195 2 -5 11 -21 18 -34 l14 -23 11 21 c17 30
-5 139 -26 137 -9 0 -18 5 -21 13 -3 10 0 12 12 8 20 -8 20 -10 -6 98 -11 50
-28 94 -35 98 -10 6 -13 17 -8 34 3 13 2 22 -3 19 -4 -2 -13 8 -19 25 -12 30
-5 37 15 17 10 -10 10 -6 2 17 -8 25 -22 84 -56 235 -3 14 -9 42 -14 63 -16
71 22 145 85 168 19 7 35 17 35 22 0 4 9 6 19 2 11 -3 86 10 168 30 157 38
231 55 341 80 37 9 121 29 187 44 66 16 163 39 215 51 130 29 130 29 130 46 0
11 4 12 19 3 15 -10 41 -7 127 15 60 15 116 29 124 31 10 3 16 -2 17 -15 1
-11 -1 -20 -5 -21 -34 -4 -55 -8 -107 -19 -95 -20 -468 -110 -485 -117 -8 -3
-19 -5 -24 -4 -4 1 -72 -14 -150 -33 -77 -19 -186 -44 -241 -57 -55 -12 -105
-28 -111 -36 -10 -11 -13 -11 -17 -1 -3 9 -8 10 -16 2 -9 -8 -6 -22 10 -58 11
-26 18 -50 15 -53 -7 -7 -7 -8 -29 37 -12 25 -16 28 -12 10 5 -21 4 -22 -5 -7
-6 9 -9 21 -6 26 12 19 -5 38 -29 33 -15 -2 -22 -9 -18 -18 3 -8 1 -14 -5 -14
-6 0 -12 5 -14 10 -2 7 -19 8 -46 4 -32 -5 -42 -11 -38 -21 4 -11 1 -13 -14
-8 -31 10 -59 -3 -75 -35 -25 -49 -20 -82 65 -435 22 -93 46 -192 52 -220 28
-130 38 -157 54 -145 11 10 14 9 14 -5 0 -10 8 -24 17 -31 10 -7 15 -16 10
-20 -4 -4 -19 3 -33 17 -24 22 -26 22 -21 4 3 -11 11 -42 17 -70 7 -27 14 -57
17 -65 4 -8 5 -19 4 -23 -1 -5 3 -6 8 -3 5 3 14 -1 21 -9 7 -8 19 -15 26 -15
17 0 18 -17 2 -23 -31 -10 74 -17 111 -7 39 10 49 30 15 30 -8 0 -14 5 -14 11
0 6 13 3 32 -8 32 -18 32 -18 202 24 186 46 196 48 196 33 0 -17 -35 -29 -171
-60 -74 -16 -144 -33 -156 -36 -25 -7 -32 -34 -9 -34 7 0 16 -9 19 -21 5 -19
4 -20 -12 -5 -10 9 -23 16 -29 16 -7 0 -12 7 -12 16 0 13 -7 15 -42 9 -53 -9
-59 -12 -51 -30 3 -8 0 -15 -6 -15 -6 0 -10 5 -9 12 2 6 -14 15 -35 20 -20 4
-49 15 -63 24 -25 17 -64 81 -64 106 0 7 -5 31 -11 53 -10 36 -12 38 -24 21
-8 -10 -19 -15 -26 -11 -14 9 -6 -44 18 -114 30 -89 127 -147 211 -127 15 4
40 9 57 11 16 3 37 8 46 10 12 4 28 -13 60 -65 29 -46 49 -68 58 -65 8 3 11 0
8 -9 -8 -20 154 -228 166 -216 3 3 12 33 20 66 11 48 11 65 2 77 -7 9 -15 14
-18 10 -4 -3 -7 0 -7 7 0 7 -17 36 -39 64 -21 28 -49 68 -63 89 -26 39 -38 34
-38 -14 0 -11 -8 -29 -19 -40 -16 -18 -19 -18 -31 -4 -11 13 -8 23 19 59 17
25 29 50 26 58 -3 7 4 19 15 26 16 10 20 10 20 -2 0 -8 7 -16 15 -20 8 -3 15
-13 15 -23 0 -16 39 -79 77 -123 7 -8 31 -37 54 -65 24 -27 48 -49 55 -47 7 1
15 -2 19 -8 3 -5 0 -10 -7 -10 -14 0 96 -115 125 -132 42 -23 8 25 -98 135
-60 63 -130 142 -154 176 -24 33 -49 57 -54 54 -6 -3 -7 -1 -3 6 4 6 1 23 -8
36 -21 31 -20 35 4 35 14 0 20 7 20 23 1 21 1 21 15 4 13 -18 16 -18 91 1 55
14 80 25 85 38 9 26 57 69 66 60 4 -3 -1 -20 -11 -36 -20 -35 -18 -36 72 -14
77 19 87 26 77 51 -6 16 -8 16 -14 2 -5 -14 -10 -12 -33 12 -14 16 -21 28 -15
27 22 -4 107 13 112 23 4 5 10 7 15 4 14 -8 90 14 90 26 0 6 9 8 19 4 14 -4
389 76 469 101 11 3 10 11 -5 37 -18 30 -19 35 -4 57 9 13 11 21 6 18 -6 -4
-10 13 -10 43 0 51 8 58 38 35 18 -14 24 -32 7 -21 -7 4 -9 -13 -7 -49 2 -31
0 -59 -4 -63 -14 -14 2 -54 20 -49 9 3 67 17 129 31 61 15 112 30 112 35 0 4
7 11 16 14 10 4 13 2 8 -6 -5 -8 0 -9 17 -4 13 4 35 9 49 12 14 2 50 9 80 15
30 6 60 17 67 25 6 9 14 11 17 6 3 -5 47 0 103 14 69 16 108 20 133 15 33 -8
34 -8 10 -14 -30 -7 -253 -58 -362 -83 -61 -14 -78 -21 -78 -35 0 -26 21 -35
36 -15 7 10 13 13 16 6 2 -7 26 -6 76 7 61 14 71 20 66 35 -3 10 -1 18 5 18 6
0 11 -7 11 -15 0 -19 6 -19 103 6 45 12 89 23 97 24 53 6 78 17 73 31 -4 10 0
12 12 8 15 -6 14 -2 -4 34 -12 23 -21 48 -21 57 0 31 21 13 48 -41 30 -62 18
-60 152 -30 171 38 215 52 212 69 -4 21 14 22 25 2 7 -12 19 -12 88 6 44 11
123 29 175 40 52 12 98 24 102 27 4 4 1 15 -6 24 -12 16 -18 16 -101 -3 -49
-10 -91 -23 -95 -28 -3 -6 -14 -9 -24 -7 -24 3 -127 -20 -135 -31 -3 -4 -28
-9 -55 -11 -28 -1 -53 -8 -57 -14 -5 -7 -11 -10 -14 -6 -5 5 -118 -17 -185
-36 l-25 -7 25 20 c14 12 44 26 68 32 24 7 42 17 42 25 0 16 17 19 22 4 4 -12
288 50 288 63 0 5 -4 5 -10 2 -12 -8 -13 -3 0 29 5 14 14 26 20 26 6 0 6 -9 0
-25 -5 -13 -6 -26 -2 -29 9 -5 114 13 127 23 6 4 23 8 39 9 16 1 31 4 33 6 3
2 -16 26 -41 52 -25 26 -46 53 -46 60 0 6 -11 15 -24 18 -13 3 -39 23 -57 43
-18 21 -40 38 -48 38 -9 0 -19 18 -27 49 -7 27 -19 53 -26 58 -9 7 -9 11 -2
14 7 3 -2 56 -27 161 -22 86 -39 165 -39 175 0 11 -3 17 -7 15 -7 -5 -12 25
-16 107 l-2 29 120 28 c66 16 125 29 132 29 12 0 27 -39 37 -97 6 -35 8 -34
-96 -57 -31 -7 -34 -20 -18 -78 10 -33 13 -36 33 -29 12 5 38 11 58 15 l35 6
17 -53 c22 -70 22 -74 -9 -81 -21 -6 -24 -9 -13 -22 18 -22 5 -27 -15 -5 -11
12 -25 16 -41 13 -14 -2 -25 -6 -25 -9 0 -15 34 -150 39 -158 4 -5 8 -26 10
-47 1 -35 0 -36 -40 -43 l-42 -7 64 -59 c35 -32 72 -61 82 -65 9 -3 17 -14 17
-24 0 -10 10 -30 23 -44 l22 -25 65 15 c36 8 82 19 102 25 l38 10 -33 29 c-17
16 -26 30 -18 30 8 0 4 8 -10 19 -13 11 -21 22 -17 26 8 8 49 -31 46 -43 -2
-5 10 -20 26 -33 l29 -25 115 27 c63 15 118 31 121 36 3 4 22 8 42 9 50 1 91
13 84 24 -3 5 10 6 30 3 28 -4 35 -2 35 11 0 9 -4 16 -10 16 -5 0 -10 8 -10
18 0 13 5 11 24 -11 23 -27 25 -27 72 -15 52 13 79 28 51 28 -19 0 -22 11 -6
27 8 8 8 13 0 17 -16 10 -13 26 4 26 8 0 15 -4 15 -10 0 -18 2 -25 11 -42 10
-19 54 -24 64 -8 3 6 -1 10 -9 10 -21 0 -21 16 0 24 21 8 37 -2 30 -20 -6 -17
-6 -17 50 -3 24 6 44 15 44 19 0 5 8 6 18 4 37 -9 76 11 86 44 11 40 30 43 21
4 -6 -27 -4 -28 25 -24 25 3 28 7 19 18 -9 11 -8 14 4 14 8 0 17 -6 20 -12 3
-10 11 -10 33 2 27 15 46 41 59 84 5 18 7 18 22 4 14 -15 14 -19 -5 -50 -33
-52 -51 -65 -124 -83 -62 -16 -68 -20 -78 -51 -6 -18 -9 -38 -5 -44 3 -5 2
-10 -3 -10 -10 0 -27 -37 -36 -80 -3 -14 1 -39 10 -54 16 -33 13 -44 -6 -21
-21 25 -32 17 -28 -20 2 -19 -1 -33 -7 -32 -14 3 -9 111 5 115 7 3 6 12 -6 30
-15 23 -15 24 0 19 18 -7 37 23 54 86 12 41 11 41 -38 26 -19 -5 -51 -12 -70
-15 -38 -5 -79 -34 -48 -34 15 0 16 -9 13 -59 -3 -33 -1 -62 4 -65 15 -9 20
19 15 77 l-5 56 25 -12 c14 -7 26 -17 26 -24 0 -31 -52 -286 -70 -347 l-22
-68 26 -27 c30 -31 32 -41 11 -41 -8 0 -15 6 -15 14 0 8 -6 16 -14 19 -10 4
-24 -19 -51 -86 -20 -51 -45 -107 -56 -125 -10 -18 -19 -38 -19 -44 0 -5 -9
-23 -21 -39 l-20 -29 27 -25 c15 -14 24 -29 19 -33 -4 -4 -10 -1 -12 6 -3 7
-13 17 -23 22 -16 9 -18 6 -15 -20 4 -31 -3 -38 -21 -20 -7 7 -18 -4 -34 -32
-14 -24 -24 -46 -22 -50 1 -5 -2 -8 -7 -8 -17 0 -91 -109 -85 -124 3 -9 1 -16
-6 -16 -6 0 -8 5 -4 13 4 6 -2 4 -14 -7 -12 -10 -19 -23 -16 -28 4 -6 10 -5
15 3 8 12 11 12 18 -1 5 -8 8 -17 6 -20 -2 -3 6 -19 19 -35 l23 -28 60 79 c82
108 144 204 133 204 -6 0 -10 5 -10 11 0 6 6 9 14 6 20 -8 26 14 9 31 -20 21
-15 37 6 18 18 -16 20 -13 65 74 45 87 50 110 21 110 -14 0 -29 30 -19 39 4 3
9 1 11 -6 2 -7 10 -10 18 -7 8 3 15 -2 17 -13 2 -11 12 5 26 41 16 41 19 63
12 70 -15 15 -12 27 6 24 32 -6 104 267 119 448 8 91 15 100 90 115 79 15 118
38 145 81 21 35 26 53 11 43 -5 -3 -13 0 -16 6 -4 6 2 13 15 16 19 5 21 11 18
57 -6 79 -59 300 -75 309 -8 5 -13 26 -13 52 0 56 -87 446 -89 398 -2 -37 -21
-26 -21 11 0 19 -3 42 -7 52 -4 12 -3 15 5 10 7 -4 12 -3 12 3 0 5 -5 13 -10
16 -6 4 -8 10 -5 15 3 5 1 11 -3 14 -5 3 -9 19 -10 35 -3 96 -106 163 -225
144 -35 -5 -36 -7 -22 -23 8 -9 13 -19 11 -21 -3 -2 13 -3 34 -1 48 5 115 -30
136 -70 8 -16 27 -82 43 -148 25 -102 33 -124 60 -149 38 -35 42 -58 6 -35
-34 22 -34 -1 0 -32 27 -25 34 -49 11 -41 -10 4 -11 -4 -5 -41 19 -105 73
-310 81 -306 4 3 8 -13 8 -36 0 -23 5 -50 10 -61 8 -15 7 -19 -4 -19 -8 0 -16
-6 -19 -12 -2 -7 -4 0 -4 17 0 16 -6 31 -12 33 -6 2 -11 12 -11 22 0 26 -48
221 -56 229 -4 3 -4 -8 -1 -26 4 -18 2 -35 -3 -38 -11 -7 5 -53 27 -77 18 -20
4 -25 -15 -6 -16 16 -21 9 -24 -35 -2 -35 -11 -47 -21 -29 -3 4 0 39 7 77 23
136 15 231 -37 455 -56 235 -69 268 -114 287 -40 16 -56 17 -47 1 5 -8 2 -9
-11 -5 -9 4 -40 4 -67 1 l-50 -7 7 -33 c3 -21 2 -34 -5 -34 -5 0 -10 6 -10 13
0 19 -38 38 -64 31 -18 -4 -22 -11 -19 -32 l5 -27 -20 24 -19 24 -139 -32
c-77 -18 -152 -37 -169 -41 -16 -5 -43 -12 -58 -15 -20 -4 -27 -10 -23 -20 3
-9 -1 -15 -9 -15 -8 0 -15 6 -15 14 0 12 -13 11 -72 -5 -40 -11 -84 -22 -98
-25 -52 -10 -58 -14 -53 -34 3 -11 0 -20 -6 -20 -6 0 -11 9 -11 21 0 13 -5 19
-12 16 -7 -2 -47 -12 -90 -22 -50 -12 -75 -22 -71 -30 2 -7 -3 -15 -11 -18
-11 -4 -13 -1 -9 10 8 20 10 21 -312 -56 -143 -34 -281 -66 -307 -72 l-47 -11
50 -47 c27 -26 49 -50 49 -54 0 -19 -26 -2 -69 44 l-48 52 -155 -37 c-147 -35
-156 -38 -151 -59 4 -20 3 -21 -10 -4 -18 22 -20 22 -149 -9 -107 -26 -108
-26 -108 -55 0 -18 -4 -28 -10 -24 -5 3 -10 15 -10 26 0 18 -4 19 -37 13 -21
-4 -40 -10 -43 -13 -3 -3 -12 -6 -20 -7 -8 0 -34 -4 -57 -8 -32 -7 -40 -12
-36 -25 5 -13 3 -14 -8 -3 -22 20 -48 15 -42 -8 3 -12 0 -20 -7 -20 -7 0 -10
7 -6 15 3 8 2 15 -2 15 -4 0 -8 8 -9 18 -1 15 13 21 80 36 207 43 249 54 242
66 -8 12 8 13 21 1 12 -10 309 61 297 72 -4 5 5 5 20 2 15 -4 27 -3 26 1 -3
20 2 28 10 16 11 -19 134 6 127 25 -6 15 10 18 18 4 3 -5 14 -7 24 -5 40 9
547 127 657 154 66 16 213 50 328 76 176 41 207 50 207 66 0 21 15 24 23 5 4
-12 22 -10 96 7 83 18 91 22 85 41 -4 11 -7 21 -8 22 -1 1 -38 -7 -82 -17 -43
-11 -88 -22 -99 -24 -11 -3 -66 -15 -123 -27 -94 -21 -102 -24 -97 -43 6 -20
5 -20 -9 -2 -8 10 -19 15 -24 12 -6 -3 -36 21 -69 53 -49 50 -65 60 -102 64
l-44 5 67 -67 c36 -36 66 -70 66 -74 0 -19 -26 -1 -98 71 -97 95 -210 177
-333 242 -102 53 -303 125 -320 114 -6 -4 -15 -1 -19 6 -5 8 -32 13 -69 14
-33 0 -61 4 -61 7 0 4 -18 9 -39 11 -22 2 -37 0 -35 -4 3 -5 0 -8 -5 -8 -6 0
-11 5 -11 10 0 6 -13 10 -30 10 -22 0 -28 -4 -24 -15 4 -10 20 -15 49 -15 71
0 265 -37 355 -68 113 -39 213 -89 334 -165 47 -29 178 -140 217 -183 29 -32
43 -64 30 -64 -5 0 -11 5 -13 11 -2 7 -37 2 -103 -14 -55 -14 -137 -33 -183
-43 -58 -13 -81 -22 -78 -31 3 -7 1 -13 -3 -13 -5 0 -11 5 -13 11 -3 9 -308
-56 -448 -96 -25 -7 -73 -18 -107 -25 -43 -9 -63 -17 -63 -28 0 -11 -3 -12
-14 -3 -18 15 -235 -34 -254 -58 -10 -12 -15 -13 -21 -3 -4 7 -14 10 -22 8 -8
-3 -33 -10 -57 -16 -27 -7 -40 -15 -36 -22 5 -8 0 -9 -16 -5 -13 3 -45 1 -72
-4 -41 -9 -47 -13 -37 -25 18 -22 6 -26 -27 -9 -16 8 -40 12 -53 8 l-23 -6 23
-13 c29 -16 8 -18 -39 -5 -41 12 -62 5 -62 -20 0 -22 -25 -25 -37 -5 -7 12
-17 13 -56 5 -26 -6 -47 -15 -47 -19 0 -5 -6 -7 -14 -4 -7 3 -40 -2 -72 -11
-33 -9 -72 -18 -89 -21 -16 -2 -32 -9 -33 -14 -2 -6 -8 -7 -13 -4 -5 3 -28 3
-50 -1 -35 -6 -39 -9 -33 -28 7 -22 6 -22 -14 -4 -13 12 -26 16 -34 11 -14 -9
-19 -10 -56 -12 -15 -1 -21 -6 -16 -14 5 -8 2 -9 -10 -5 -10 4 -20 7 -22 7 -8
0 -4 36 5 46 7 7 41 99 41 111 0 2 -6 3 -13 3 -7 0 -25 -36 -41 -85 -16 -51
-33 -85 -41 -85 -8 0 -11 7 -8 20 3 11 -1 28 -8 37 -12 15 -12 16 2 11 13 -5
21 4 33 36 9 23 16 45 16 49 0 4 14 36 31 72 17 36 28 69 24 75 -3 5 0 10 7
10 16 1 100 144 87 148 -12 5 -11 32 1 32 6 0 10 -6 10 -12 1 -7 18 7 40 32
22 24 37 46 34 49 -3 3 -9 -1 -14 -9 -5 -8 -12 -11 -17 -6 -4 4 0 12 9 17 10
6 15 17 12 27 -5 14 -4 14 6 -2 11 -17 17 -14 71 40 32 32 59 64 59 72 0 7 5
10 10 7 6 -3 10 1 10 10 0 9 4 14 8 11 5 -3 24 7 43 22 59 48 134 98 195 132
32 18 61 36 64 39 3 3 28 14 55 24 130 47 150 56 149 66 -1 6 -2 18 -2 26 -1
8 -12 15 -23 15 -17 0 -20 -5 -16 -25z m2437 -275 c0 -5 -4 -10 -9 -10 -6 0
-13 5 -16 10 -3 6 1 10 9 10 9 0 16 -4 16 -10z m-60 -120 c0 -11 -4 -20 -10
-20 -5 0 -10 9 -10 20 0 11 5 20 10 20 6 0 10 -9 10 -20z m-450 0 c0 -5 -4
-10 -10 -10 -5 0 -10 5 -10 10 0 6 5 10 10 10 6 0 10 -4 10 -10z m382 -45 c4
-16 1 -24 -6 -22 -6 2 -12 16 -14 31 -4 35 14 26 20 -9z m-502 15 c0 -5 -4
-10 -10 -10 -5 0 -10 5 -10 10 0 6 5 10 10 10 6 0 10 -4 10 -10z m-70 -10 c0
-5 -4 -10 -9 -10 -6 0 -13 5 -16 10 -3 6 1 10 9 10 9 0 16 -4 16 -10z m656
-18 c-9 -9 -37 8 -31 18 5 8 11 7 21 -1 8 -6 12 -14 10 -17z m-421 -12 c3 -5
1 -10 -4 -10 -6 0 -11 5 -11 10 0 6 2 10 4 10 3 0 8 -4 11 -10z m-57 -19 c3
-8 -1 -12 -9 -9 -7 2 -15 10 -17 17 -3 8 1 12 9 9 7 -2 15 -10 17 -17z m308
-8 c-10 -10 -19 5 -10 18 6 11 8 11 12 0 2 -7 1 -15 -2 -18z m-86 -13 c0 -5
-2 -10 -4 -10 -3 0 -8 5 -11 10 -3 6 -1 10 4 10 6 0 11 -4 11 -10z m330 0 c0
-5 -4 -10 -10 -10 -5 0 -10 5 -10 10 0 6 5 10 10 10 6 0 10 -4 10 -10z m-757
-31 c5 -19 -12 -49 -27 -49 -4 0 -3 24 3 63 2 15 19 6 24 -14z m457 11 c0 -5
-2 -10 -4 -10 -3 0 -8 5 -11 10 -3 6 -1 10 4 10 6 0 11 -4 11 -10z m80 0 c0
-5 -5 -10 -11 -10 -5 0 -7 5 -4 10 3 6 8 10 11 10 2 0 4 -4 4 -10z m144 -8 c7
-12 -4 -52 -15 -52 -4 0 -7 13 -6 30 2 29 11 38 21 22z m-754 -12 c0 -5 -4
-10 -10 -10 -5 0 -10 5 -10 10 0 6 5 10 10 10 6 0 10 -4 10 -10z m450 0 c0 -5
-4 -10 -10 -10 -5 0 -10 5 -10 10 0 6 5 10 10 10 6 0 10 -4 10 -10z m377 -20
c-3 -11 -4 -20 -3 -20 0 0 16 4 34 9 24 7 32 6 32 -3 0 -7 -13 -73 -29 -147
-19 -84 -26 -138 -20 -144 14 -14 11 -25 -6 -19 -8 4 -15 1 -15 -6 0 -6 4 -9
8 -6 4 2 14 1 22 -5 9 -5 10 -9 4 -9 -18 0 -28 -51 -12 -62 10 -6 11 -10 0
-16 -10 -7 -7 -30 12 -111 17 -73 21 -103 13 -106 -31 -10 -121 -35 -128 -35
-3 0 -9 22 -13 48 -5 41 -10 49 -36 59 -36 14 -41 38 -6 29 l24 -6 -20 78
c-11 42 -27 85 -36 94 -10 9 -28 32 -42 52 -14 19 -33 37 -44 40 -10 2 -15 9
-12 14 7 12 -53 88 -66 84 -5 -1 -7 2 -4 7 4 5 -6 23 -20 40 -29 35 -31 33 64
55 l62 14 31 -44 c17 -26 35 -42 41 -38 7 5 9 2 6 -7 -3 -8 4 -32 17 -53 l22
-37 6 29 c3 16 9 63 13 105 l7 77 38 10 c29 8 39 16 39 30 0 11 5 20 11 20 6
0 9 -9 6 -20z m-658 -15 c24 -26 24 -40 0 -30 -15 6 -42 55 -31 55 4 0 18 -12
31 -25z m126 15 c3 -5 1 -10 -4 -10 -6 0 -11 5 -11 10 0 6 2 10 4 10 3 0 8 -4
11 -10z m235 -23 c0 -5 -7 -6 -16 -3 -9 3 -18 6 -20 6 -2 0 -4 7 -4 15 0 13 3
13 20 3 11 -7 20 -17 20 -21z m-2890 -8 c0 -5 -4 -9 -10 -9 -5 0 -10 7 -10 16
0 8 5 12 10 9 6 -3 10 -10 10 -16z m2710 1 c0 -5 -2 -10 -4 -10 -3 0 -8 5 -11
10 -3 6 -1 10 4 10 6 0 11 -4 11 -10z m690 -15 c0 -14 -4 -25 -10 -25 -5 0
-10 11 -10 25 0 14 5 25 10 25 6 0 10 -11 10 -25z m-1123 0 c8 -9 13 -19 10
-22 -6 -5 -37 21 -37 31 0 10 11 6 27 -9z m73 6 c0 -6 -4 -13 -10 -16 -5 -3
-10 1 -10 9 0 9 5 16 10 16 6 0 10 -4 10 -9z m30 -7 c0 -8 -4 -12 -10 -9 -5 3
-10 10 -10 16 0 5 5 9 10 9 6 0 10 -7 10 -16z m40 6 c0 -5 -4 -10 -10 -10 -5
0 -10 5 -10 10 0 6 5 10 10 10 6 0 10 -4 10 -10z m-380 -9 c0 -6 -4 -13 -10
-16 -5 -3 -10 1 -10 9 0 9 5 16 10 16 6 0 10 -4 10 -9z m151 -23 c15 -28 -9
-19 -29 10 -13 20 -13 22 2 16 9 -3 21 -15 27 -26z m429 2 c0 -16 -5 -30 -11
-30 -5 0 -7 -5 -4 -10 4 -6 10 -8 15 -5 5 3 12 0 16 -6 4 -7 3 -9 -4 -5 -6 3
-14 1 -18 -6 -5 -7 -10 -4 -16 11 -4 13 -5 28 -1 34 4 7 6 20 5 30 -2 9 2 17
7 17 6 0 11 -13 11 -30z m380 -22 c0 -12 -14 -10 -28 4 -19 19 -14 29 8 16 11
-7 20 -16 20 -20z m-1020 12 c0 -5 -2 -10 -4 -10 -3 0 -8 5 -11 10 -3 6 -1 10
4 10 6 0 11 -4 11 -10z m60 -11 c0 -14 -27 -10 -33 5 -4 10 0 12 14 9 10 -3
19 -9 19 -14z m369 -20 c-11 -8 -10 -12 5 -24 19 -15 19 -15 -2 -15 -29 0 -36
19 -22 56 10 27 12 27 22 10 8 -14 7 -21 -3 -27z m402 -67 c6 -28 16 -50 22
-49 6 1 12 -5 14 -14 2 -10 -2 -16 -9 -16 -7 1 -32 -2 -55 -7 -49 -9 -49 -6
-17 -139 16 -70 23 -82 61 -113 24 -20 44 -30 48 -24 15 23 22 7 14 -32 -4
-24 -8 -46 -9 -50 0 -15 -15 -7 -34 18 -18 26 -18 26 3 19 32 -10 25 7 -14 33
-19 12 -36 22 -38 22 -2 0 8 -45 22 -99 14 -55 22 -103 19 -107 -8 -7 -129
-37 -133 -32 -2 2 -22 84 -45 183 -23 99 -51 192 -61 207 -20 28 -25 53 -9 43
6 -3 10 1 10 11 0 13 -6 15 -36 10 -19 -4 -41 -9 -49 -12 -9 -4 -18 14 -29 63
-8 37 -12 71 -8 75 4 4 59 18 122 33 141 31 162 39 153 60 -4 11 4 8 20 -8 17
-15 31 -43 38 -75z m-534 63 c15 -13 24 -28 20 -32 -7 -6 -57 39 -57 52 0 10
11 5 37 -20z m763 16 c0 -19 -12 -41 -20 -36 -10 6 -1 45 11 45 5 0 9 -4 9 -9z
m-500 -11 c0 -5 -4 -10 -10 -10 -5 0 -10 5 -10 10 0 6 5 10 10 10 6 0 10 -4
10 -10z m760 -51 c0 -11 -4 -17 -10 -14 -5 3 -10 15 -10 26 0 11 5 17 10 14 6
-3 10 -15 10 -26z m-755 11 c-3 -5 -10 -10 -16 -10 -5 0 -9 5 -9 10 0 6 7 10
16 10 8 0 12 -4 9 -10z m-495 -20 c0 -5 -4 -10 -10 -10 -5 0 -10 5 -10 10 0 6
5 10 10 10 6 0 10 -4 10 -10z m-2140 -7 c0 -17 -19 -37 -27 -29 -4 5 -2 11 5
13 6 3 10 9 6 14 -3 5 0 9 5 9 6 0 11 -3 11 -7z m2520 3 c0 -3 -4 -8 -10 -11
-5 -3 -10 -1 -10 4 0 6 5 11 10 11 6 0 10 -2 10 -4z m-306 -43 c4 -9 4 -18 1
-21 -3 -3 -5 -1 -5 5 0 6 -13 16 -30 23 -16 7 -30 16 -30 21 0 14 58 -11 64
-28z m-2909 17 c3 -5 2 -10 -4 -10 -5 0 -13 5 -16 10 -3 6 -2 10 4 10 5 0 13
-4 16 -10z m3224 -37 c24 -93 25 -90 -4 -97 -23 -6 -26 -11 -21 -32 6 -24 5
-24 -16 -12 -13 7 -26 11 -30 10 -5 -1 -8 2 -8 7 0 5 -9 7 -19 4 -16 -4 -18
-10 -11 -31 5 -15 11 -39 14 -53 l6 -26 56 14 c31 8 58 12 61 10 2 -3 10 -31
18 -63 15 -67 14 -69 -56 -78 -27 -4 -49 -12 -49 -18 0 -10 21 -89 25 -96 1
-1 28 4 61 13 32 8 63 15 69 15 12 0 39 -115 31 -129 -3 -5 -35 -14 -71 -21
-39 -7 -70 -19 -76 -29 -7 -10 -12 -12 -15 -5 -4 9 -20 8 -60 -2 -57 -16 -83
-11 -65 10 7 8 -9 95 -54 284 -36 149 -65 278 -65 286 0 9 11 18 25 22 14 3
22 10 19 15 -3 6 4 7 18 4 12 -3 55 4 93 14 105 29 113 28 124 -16z m436 7 c3
-5 1 -10 -4 -10 -6 0 -11 5 -11 10 0 6 2 10 4 10 3 0 8 -4 11 -10z m-3691 -25
c9 -13 16 -27 16 -31 0 -10 -30 17 -41 38 -15 27 6 22 25 -7z m2384 -5 c13
-16 20 -30 17 -30 -15 0 -55 34 -55 46 0 22 15 16 38 -16z m-2328 10 c0 -5 -5
-10 -11 -10 -5 0 -7 5 -4 10 3 6 8 10 11 10 2 0 4 -4 4 -10z m2510 0 c0 -5 -4
-10 -10 -10 -5 0 -10 5 -10 10 0 6 5 10 10 10 6 0 10 -4 10 -10z m190 0 c0 -5
-4 -10 -10 -10 -5 0 -10 5 -10 10 0 6 5 10 10 10 6 0 10 -4 10 -10z m103 -4
c4 -10 1 -13 -9 -9 -7 3 -14 9 -14 14 0 14 17 10 23 -5z m-1218 -6 c-3 -5 -10
-10 -16 -10 -5 0 -9 5 -9 10 0 6 7 10 16 10 8 0 12 -4 9 -10z m825 -40 c21
-30 44 -33 33 -5 -4 11 -1 13 11 9 9 -3 16 -1 16 4 0 6 12 9 26 8 30 -3 81
-61 64 -71 -7 -4 -14 2 -17 13 -3 12 -18 25 -34 31 -26 9 -31 7 -56 -29 -33
-46 -66 -66 -38 -23 14 21 15 28 5 31 -16 6 -70 63 -70 75 0 15 38 -13 60 -43z
m430 40 c0 -5 -5 -10 -11 -10 -5 0 -7 5 -4 10 3 6 8 10 11 10 2 0 4 -4 4 -10z
m-970 -24 c0 -8 -5 -16 -10 -18 -7 -2 -5 -18 6 -43 9 -22 23 -61 30 -87 14
-46 15 -47 61 -50 45 -3 47 -4 55 -40 4 -20 16 -51 28 -70 26 -44 27 -68 1
-44 -21 20 -121 35 -121 18 0 -6 7 -18 16 -27 9 -9 14 -19 10 -22 -3 -3 -14 4
-25 15 -25 29 -31 28 -31 -8 0 -24 8 -35 41 -56 22 -14 43 -23 45 -21 3 2 0
17 -6 32 -6 15 -8 30 -5 33 8 9 35 -30 41 -60 4 -16 10 -28 13 -28 16 0 92
-74 107 -103 19 -36 26 -190 9 -183 -6 2 -24 -10 -40 -26 -17 -17 -43 -37 -59
-45 -35 -18 -135 -28 -154 -15 -10 7 -40 101 -42 133 0 3 22 4 49 1 65 -6 98
3 106 29 10 31 -19 66 -79 94 -147 69 -210 189 -157 293 23 46 46 67 94 87 20
8 37 17 37 19 0 10 -41 121 -49 130 -11 14 -10 46 1 46 4 0 8 7 8 15 0 8 5 15
10 15 6 0 10 -6 10 -14z m2200 -63 c0 -17 -8 -16 -26 1 -8 8 -11 22 -7 32 6
16 7 16 20 -2 7 -10 13 -24 13 -31z m-4160 27 c0 -5 -4 -10 -10 -10 -5 0 -10
5 -10 10 0 6 5 10 10 10 6 0 10 -4 10 -10z m1745 -20 c3 -5 2 -10 -4 -10 -5 0
-13 5 -16 10 -3 6 -2 10 4 10 5 0 13 -4 16 -10z m145 -6 c0 -8 -4 -12 -10 -9
-5 3 -10 10 -10 16 0 5 5 9 10 9 6 0 10 -7 10 -16z m1821 -6 c11 -21 11 -22
-4 -9 -10 7 -17 17 -17 22 0 15 9 10 21 -13z m-287 -9 c16 -14 -1 -21 -22 -10
-11 6 -28 8 -36 5 -9 -3 -16 -2 -16 4 0 22 51 23 74 1z m-2126 -57 c-4 -60
-22 -112 -39 -112 -3 0 -11 11 -17 25 -10 20 -9 25 3 25 8 0 14 8 13 18 -3 27
23 112 35 112 6 0 8 -25 5 -68z m1992 58 c0 -5 -2 -10 -4 -10 -3 0 -8 5 -11
10 -3 6 -1 10 4 10 6 0 11 -4 11 -10z m-1590 -10 c0 -5 -2 -10 -4 -10 -3 0 -8
5 -11 10 -3 6 -1 10 4 10 6 0 11 -4 11 -10z m2099 1 c8 -5 9 -11 3 -15 -5 -3
-15 1 -22 9 -14 16 -3 20 19 6z m-1982 -16 c8 -9 13 -18 11 -21 -9 -9 -38 8
-38 22 0 18 8 18 27 -1z m1393 -1 c0 -8 -4 -12 -10 -9 -5 3 -10 10 -10 16 0 5
5 9 10 9 6 0 10 -7 10 -16z m120 6 c0 -5 20 -23 45 -40 43 -29 76 -70 57 -70
-5 0 -23 13 -39 29 -17 16 -43 37 -57 46 -26 17 -36 45 -16 45 6 0 10 -4 10
-10z m344 -6 c9 -22 -3 -32 -14 -14 -12 19 -12 30 -1 30 5 0 12 -7 15 -16z
m-2164 -4 c0 -5 -2 -10 -4 -10 -3 0 -8 5 -11 10 -3 6 -1 10 4 10 6 0 11 -4 11
-10z m234 -5 c3 -9 0 -15 -9 -15 -8 0 -15 7 -15 15 0 8 4 15 9 15 5 0 11 -7
15 -15z m1276 5 c0 -5 -4 -10 -10 -10 -5 0 -10 5 -10 10 0 6 5 10 10 10 6 0
10 -4 10 -10z m-1310 -10 c0 -5 -4 -10 -10 -10 -5 0 -10 5 -10 10 0 6 5 10 10
10 6 0 10 -4 10 -10z m779 -37 c12 -25 33 -55 47 -65 23 -19 35 -46 14 -33
-15 10 -14 5 43 -102 35 -67 57 -98 66 -95 8 2 11 0 8 -6 -4 -5 0 -15 8 -22
17 -14 21 -35 5 -25 -15 9 -13 5 35 -85 25 -46 44 -84 42 -86 -3 -3 -127 -34
-136 -34 -5 0 -18 22 -29 50 -20 47 -22 49 -49 40 -15 -5 -47 -14 -70 -20
l-43 -11 0 -59 c0 -46 4 -61 17 -69 10 -5 14 -13 10 -17 -4 -4 -17 2 -30 14
-22 20 -25 21 -77 7 -30 -8 -56 -15 -58 -15 -4 0 9 563 14 607 5 41 6 41 62
56 91 24 95 23 121 -30z m1300 21 c3 -16 1 -17 -13 -5 -19 16 -21 34 -3 29 6
-3 14 -13 16 -24z m329 8 c6 -18 -15 -14 -22 4 -4 10 -1 14 6 12 6 -2 14 -10
16 -16z m-4128 -24 c0 -13 -23 -5 -28 10 -2 7 2 10 12 6 9 -3 16 -11 16 -16z
m1478 3 c3 -8 -1 -12 -9 -9 -7 2 -15 10 -17 17 -3 8 1 12 9 9 7 -2 15 -10 17
-17z m622 9 c0 -5 -4 -10 -10 -10 -5 0 -10 5 -10 10 0 6 5 10 10 10 6 0 10 -4
10 -10z m2060 -5 c0 -8 -4 -15 -10 -15 -5 0 -10 7 -10 15 0 8 5 15 10 15 6 0
10 -7 10 -15z m-490 -5 c0 -5 -4 -10 -10 -10 -5 0 -10 5 -10 10 0 6 5 10 10
10 6 0 10 -4 10 -10z m100 -10 c0 -5 -7 -10 -15 -10 -8 0 -15 5 -15 10 0 6 7
10 15 10 8 0 15 -4 15 -10z m-2385 -10 c-3 -5 -13 -10 -21 -10 -8 0 -12 5 -9
10 3 6 13 10 21 10 8 0 12 -4 9 -10z m229 4 c23 -9 20 -23 -4 -17 -11 3 -20 9
-20 14 0 11 3 11 24 3z m71 -5 c11 -17 -1 -21 -15 -4 -8 9 -8 15 -2 15 6 0 14
-5 17 -11z m1341 -36 c-4 -4 -14 1 -22 11 -22 31 -17 43 8 19 12 -13 18 -26
14 -30z m-1592 22 c-6 -16 -24 -21 -24 -7 0 11 11 22 21 22 5 0 6 -7 3 -15z
m2756 -44 c-1 -11 -8 -8 -25 12 -33 37 -32 57 0 27 14 -13 25 -31 25 -39z
m-3455 39 c3 -5 1 -10 -4 -10 -6 0 -11 5 -11 10 0 6 2 10 4 10 3 0 8 -4 11
-10z m763 -18 c2 -12 -2 -22 -8 -22 -7 0 -10 6 -7 14 3 7 0 19 -6 26 -9 10 -9
11 3 8 8 -3 16 -14 18 -26z m-33 8 c3 -5 1 -10 -4 -10 -6 0 -11 5 -11 10 0 6
2 10 4 10 3 0 8 -4 11 -10z m103 -10 c7 -11 9 -20 4 -20 -10 0 -32 22 -32 32
0 15 15 8 28 -12z m2241 0 c23 0 24 -1 15 -24 -3 -9 -11 -13 -17 -9 -6 4 -8 0
-4 -10 3 -10 3 -17 -1 -17 -10 0 -62 49 -62 59 0 15 13 20 31 11 10 -6 27 -10
38 -10z m-2572 -26 c-9 -9 -28 6 -21 18 4 6 10 6 17 -1 6 -6 8 -13 4 -17z
m-152 6 c3 -5 -1 -10 -9 -10 -9 0 -16 5 -16 10 0 6 4 10 9 10 6 0 13 -4 16
-10z m645 0 c0 -5 -4 -10 -10 -10 -5 0 -10 5 -10 10 0 6 5 10 10 10 6 0 10 -4
10 -10z m2625 -9 c3 -5 1 -12 -4 -15 -5 -3 -11 1 -15 9 -6 16 9 21 19 6z
m-3385 -11 c0 -5 -2 -10 -4 -10 -3 0 -8 5 -11 10 -3 6 -1 10 4 10 6 0 11 -4
11 -10z m195 0 c3 -5 -1 -10 -9 -10 -9 0 -16 5 -16 10 0 6 4 10 9 10 6 0 13
-4 16 -10z m1490 0 c3 -5 1 -10 -4 -10 -6 0 -11 5 -11 10 0 6 2 10 4 10 3 0 8
-4 11 -10z m-1630 -10 c3 -5 1 -10 -4 -10 -6 0 -11 5 -11 10 0 6 2 10 4 10 3
0 8 -4 11 -10z m223 -17 c-2 -17 -9 -28 -18 -28 -8 0 -16 -10 -18 -22 -2 -13
-8 -23 -13 -23 -5 0 -9 -7 -9 -15 0 -16 -12 -20 -23 -8 -4 3 -2 12 4 20 9 10
8 17 -2 30 -12 15 -12 16 3 10 19 -7 58 27 58 50 0 7 5 13 11 13 6 0 9 -12 7
-27z m202 17 c0 -5 -5 -10 -11 -10 -5 0 -7 5 -4 10 3 6 8 10 11 10 2 0 4 -4 4
-10z m36 1 c-4 -5 0 -11 6 -14 7 -2 9 -8 5 -13 -4 -5 -12 -2 -17 6 -13 20 -12
30 1 30 5 0 8 -4 5 -9z m2014 5 c0 -3 -4 -8 -10 -11 -5 -3 -10 -1 -10 4 0 6 5
11 10 11 6 0 10 -2 10 -4z m370 -6 c0 -5 -4 -10 -10 -10 -5 0 -10 5 -10 10 0
6 5 10 10 10 6 0 10 -4 10 -10z m280 -10 c0 -11 -4 -20 -10 -20 -5 0 -10 9
-10 20 0 11 5 20 10 20 6 0 10 -9 10 -20z m-3255 -10 c10 -11 15 -20 11 -20
-14 0 -46 21 -46 30 0 16 16 11 35 -10z m325 10 c0 -5 -4 -10 -10 -10 -5 0
-10 5 -10 10 0 6 5 10 10 10 6 0 10 -4 10 -10z m-392 -19 c3 -8 -1 -12 -9 -9
-7 2 -15 10 -17 17 -3 8 1 12 9 9 7 -2 15 -10 17 -17z m1882 9 c0 -5 -2 -10
-4 -10 -3 0 -8 5 -11 10 -3 6 -1 10 4 10 6 0 11 -4 11 -10z m334 -6 c9 -22 -3
-32 -14 -14 -12 19 -12 30 -1 30 5 0 12 -7 15 -16z m-2329 -5 c11 -17 -1 -21
-15 -4 -8 9 -8 15 -2 15 6 0 14 -5 17 -11z m-737 -18 c3 -8 -1 -12 -9 -9 -7 2
-15 10 -17 17 -3 8 1 12 9 9 7 -2 15 -10 17 -17z m912 -12 c0 -6 -4 -7 -10 -4
-5 3 -10 11 -10 16 0 6 5 7 10 4 6 -3 10 -11 10 -16z m595 11 c3 -5 1 -10 -4
-10 -6 0 -11 5 -11 10 0 6 2 10 4 10 3 0 8 -4 11 -10z m-1325 -20 c0 -5 -4
-10 -10 -10 -5 0 -10 5 -10 10 0 6 5 10 10 10 6 0 10 -4 10 -10z m460 0 c0 -5
-4 -10 -10 -10 -5 0 -10 5 -10 10 0 6 5 10 10 10 6 0 10 -4 10 -10z m380 -11
c0 -14 -17 -10 -23 5 -4 10 -1 13 9 9 7 -3 14 -9 14 -14z m90 17 c0 -3 -4 -8
-10 -11 -5 -3 -10 -1 -10 4 0 6 5 11 10 11 6 0 10 -2 10 -4z m236 -13 c16 -22
17 -33 4 -33 -5 0 -10 7 -10 15 0 8 -4 15 -10 15 -5 0 -10 5 -10 10 0 15 11
12 26 -7z m344 7 c0 -5 -5 -10 -11 -10 -5 0 -7 5 -4 10 3 6 8 10 11 10 2 0 4
-4 4 -10z m-1200 -15 c0 -8 -4 -15 -10 -15 -5 0 -10 7 -10 15 0 8 5 15 10 15
6 0 10 -7 10 -15z m318 -4 c3 -8 -1 -12 -9 -9 -7 2 -15 10 -17 17 -3 8 1 12 9
9 7 -2 15 -10 17 -17z m50 1 c6 -18 -15 -14 -22 4 -4 10 -1 14 6 12 6 -2 14
-10 16 -16z m311 -19 c8 -18 20 -34 28 -37 7 -3 51 3 98 14 99 24 135 23 193
-3 144 -66 225 -326 147 -477 -25 -49 -89 -93 -178 -124 -14 -5 -16 -9 -7 -26
7 -13 7 -20 0 -20 -5 0 -10 6 -11 13 0 10 -2 10 -6 0 -7 -20 -23 -15 -23 6 0
17 -4 18 -36 9 -20 -5 -40 -6 -44 -1 -7 7 -25 81 -76 303 -15 64 -65 178 -95
216 -6 7 -1 18 11 29 24 22 25 38 4 59 -8 9 -12 16 -8 16 4 0 -5 14 -22 31
-25 27 -26 31 -9 28 11 -2 26 -18 34 -36z m285 21 c4 -10 1 -14 -6 -12 -15 5
-23 28 -10 28 5 0 13 -7 16 -16z m856 0 c0 -8 -4 -12 -10 -9 -5 3 -10 10 -10
16 0 5 5 9 10 9 6 0 10 -7 10 -16z m980 6 c0 -5 -4 -10 -10 -10 -5 0 -10 5
-10 10 0 6 5 10 10 10 6 0 10 -4 10 -10z m590 -11 c0 -5 -7 -9 -15 -9 -9 0
-12 6 -9 15 6 15 24 11 24 -6z m367 7 c-3 -7 0 -19 6 -25 6 -6 7 -14 3 -18 -9
-9 -26 16 -26 40 0 9 5 17 11 17 6 0 9 -6 6 -14z m-4237 -6 c0 -5 -4 -10 -10
-10 -5 0 -10 5 -10 10 0 6 5 10 10 10 6 0 10 -4 10 -10z m90 -11 c0 -6 -4 -7
-10 -4 -5 3 -10 11 -10 16 0 6 5 7 10 4 6 -3 10 -11 10 -16z m808 3 c6 -18
-15 -14 -22 4 -4 10 -1 14 6 12 6 -2 14 -10 16 -16z m2482 8 c0 -5 -2 -10 -4
-10 -3 0 -8 5 -11 10 -3 6 -1 10 4 10 6 0 11 -4 11 -10z m-2440 -10 c0 -5 -4
-10 -10 -10 -5 0 -10 5 -10 10 0 6 5 10 10 10 6 0 10 -4 10 -10z m700 -5 c14
-16 10 -18 -14 -9 -9 3 -16 10 -16 15 0 14 16 11 30 -6z m-1090 -16 c0 -5 -4
-9 -10 -9 -5 0 -10 7 -10 16 0 8 5 12 10 9 6 -3 10 -10 10 -16z m205 11 c3 -5
2 -10 -4 -10 -5 0 -13 5 -16 10 -3 6 -2 10 4 10 5 0 13 -4 16 -10z m-257 -19
c3 -8 -1 -12 -9 -9 -7 2 -15 10 -17 17 -3 8 1 12 9 9 7 -2 15 -10 17 -17z
m107 9 c3 -5 -1 -10 -9 -10 -8 0 -18 5 -21 10 -3 6 1 10 9 10 8 0 18 -4 21
-10z m3278 -18 c-6 -23 -18 -29 -28 -13 -5 9 24 46 31 39 2 -2 1 -14 -3 -26z
m-1673 8 c0 -5 -4 -10 -10 -10 -5 0 -10 5 -10 10 0 6 5 10 10 10 6 0 10 -4 10
-10z m-1997 -15 c4 -8 2 -17 -3 -20 -6 -4 -10 -4 -10 -1 0 2 -3 11 -6 20 -3 9
-2 16 4 16 5 0 12 -7 15 -15z m187 5 c0 -5 -4 -10 -10 -10 -5 0 -10 5 -10 10
0 6 5 10 10 10 6 0 10 -4 10 -10z m435 -48 c-7 -7 -55 39 -55 52 0 5 13 -3 30
-19 16 -16 28 -31 25 -33z m8 44 c4 -10 1 -13 -9 -9 -15 6 -19 23 -5 23 5 0
11 -7 14 -14z m3327 -7 c0 -5 -4 -9 -10 -9 -5 0 -10 7 -10 16 0 8 5 12 10 9 6
-3 10 -10 10 -16z m-4335 1 c3 -5 1 -10 -4 -10 -6 0 -11 5 -11 10 0 6 2 10 4
10 3 0 8 -4 11 -10z m731 -5 c17 -16 14 -18 -10 -9 -9 3 -16 10 -16 15 0 13 9
11 26 -6z m474 11 c0 -3 -4 -8 -10 -11 -5 -3 -10 -1 -10 4 0 6 5 11 10 11 6 0
10 -2 10 -4z m30 -17 c0 -6 -4 -7 -10 -4 -5 3 -10 11 -10 16 0 6 5 7 10 4 6
-3 10 -11 10 -16z m510 6 c17 -9 30 -20 30 -25 0 -12 -63 15 -68 29 -5 15 3
14 38 -4z m2260 0 c0 -8 -4 -15 -10 -15 -5 0 -10 7 -10 15 0 8 5 15 10 15 6 0
10 -7 10 -15z m540 5 c0 -5 -5 -10 -11 -10 -5 0 -7 5 -4 10 3 6 8 10 11 10 2
0 4 -4 4 -10z m-4076 -69 c-7 -7 -54 50 -54 64 1 6 14 -5 30 -24 16 -19 27
-37 24 -40z m26 59 c0 -5 -4 -10 -10 -10 -5 0 -10 5 -10 10 0 6 5 10 10 10 6
0 10 -4 10 -10z m603 -13 c9 -13 30 -30 49 -37 18 -8 47 -23 63 -34 17 -12 33
-21 37 -21 3 0 10 -4 15 -9 5 -5 3 -6 -4 -2 -16 9 -17 -10 -2 -20 13 -8 63
-115 73 -156 4 -17 11 -25 20 -22 7 3 16 -2 19 -10 4 -9 1 -13 -7 -10 -9 4
-12 -19 -13 -93 -1 -117 -3 -131 -23 -157 -27 -36 -75 -83 -89 -87 -12 -4 -11
-10 4 -32 21 -33 7 -36 -23 -4 -17 18 -29 22 -64 19 l-42 -5 29 -23 c16 -13
26 -27 21 -31 -4 -4 -12 0 -17 10 -6 9 -16 17 -24 17 -8 0 -19 9 -25 20 -6 11
-18 20 -27 20 -9 0 -24 7 -34 16 -16 15 -19 14 -33 -15 -9 -16 -16 -38 -16
-48 0 -12 -3 -14 -11 -6 -12 12 -2 103 12 103 5 0 -5 19 -21 43 -31 44 -93
204 -84 218 3 5 1 17 -4 26 -5 10 -6 46 -1 83 6 54 5 68 -9 84 -16 18 -16 18
5 12 19 -6 25 -2 39 27 9 19 34 45 55 58 21 13 39 27 39 32 0 4 10 5 23 2 12
-3 31 1 42 8 16 13 17 17 6 31 -7 9 -9 16 -3 16 5 0 17 -11 25 -23z m197 13
c0 -5 -4 -10 -10 -10 -5 0 -10 5 -10 10 0 6 5 10 10 10 6 0 10 -4 10 -10z
m1570 0 c0 -5 -4 -10 -10 -10 -5 0 -10 5 -10 10 0 6 5 10 10 10 6 0 10 -4 10
-10z m410 6 c0 -3 -4 -8 -10 -11 -5 -3 -10 -1 -10 4 0 6 5 11 10 11 6 0 10 -2
10 -4z m830 -17 c0 -6 -4 -7 -10 -4 -5 3 -10 11 -10 16 0 6 5 7 10 4 6 -3 10
-11 10 -16z m-2930 -10 c0 -24 -23 -21 -28 4 -2 10 3 17 12 17 10 0 16 -9 16
-21z m640 7 c0 -17 -14 -29 -23 -20 -8 8 3 34 14 34 5 0 9 -6 9 -14z m-1550
-6 c0 -5 -5 -10 -11 -10 -5 0 -7 5 -4 10 3 6 8 10 11 10 2 0 4 -4 4 -10z m614
-6 c4 -10 1 -14 -6 -12 -15 5 -23 28 -10 28 5 0 13 -7 16 -16z m441 6 c3 -5 1
-10 -4 -10 -6 0 -11 5 -11 10 0 6 2 10 4 10 3 0 8 -4 11 -10z m2365 -39 c-12
-30 -30 -42 -30 -21 0 6 5 10 11 10 5 0 7 5 4 10 -3 6 -2 10 3 10 6 0 8 10 5
23 -5 17 -3 20 7 10 10 -10 10 -18 0 -42z m498 28 c25 -21 26 -22 5 -16 -13 3
-23 1 -23 -4 0 -5 8 -9 17 -9 9 0 14 -3 10 -6 -14 -14 -45 8 -43 31 1 30 1 30
34 4z m-3613 -27 c-6 -7 -35 18 -35 31 0 5 9 2 20 -8 11 -10 18 -20 15 -23z
m71 11 c-28 -15 -33 -29 -13 -36 9 -4 9 -7 0 -18 -15 -15 -19 -12 -28 23 -6
22 -2 29 22 41 15 8 32 13 37 10 5 -3 -3 -12 -18 -20z m124 7 c7 -13 7 -20 1
-20 -6 0 -15 9 -21 20 -7 13 -7 20 -1 20 6 0 15 -9 21 -20z m1240 10 c0 -5 -4
-10 -10 -10 -5 0 -10 5 -10 10 0 6 5 10 10 10 6 0 10 -4 10 -10z m2290 -36 c0
-12 5 -26 10 -29 12 -7 13 -25 3 -25 -5 0 -17 7 -27 15 -16 12 -17 17 -6 30 8
10 9 15 1 15 -6 0 -11 10 -11 21 0 18 2 19 15 9 8 -7 15 -23 15 -36z m-3926
-3 c-6 -6 -24 19 -24 34 1 6 7 1 15 -9 8 -11 12 -22 9 -25z m3616 29 c0 -5 -5
-10 -11 -10 -5 0 -7 5 -4 10 3 6 8 10 11 10 2 0 4 -4 4 -10z m130 -31 c0 -12
-17 -11 -25 1 -3 6 -15 10 -26 10 -16 0 -18 2 -7 14 11 11 16 11 35 -1 13 -9
23 -19 23 -24z m-3686 -1 c9 -17 14 -33 12 -35 -7 -7 -36 29 -31 38 4 5 1 9
-4 9 -6 0 -11 5 -11 10 0 21 19 9 34 -22z m846 22 c0 -5 -2 -10 -4 -10 -3 0
-8 5 -11 10 -3 6 -1 10 4 10 6 0 11 -4 11 -10z m-1170 -10 c0 -5 -4 -10 -10
-10 -5 0 -10 5 -10 10 0 6 5 10 10 10 6 0 10 -4 10 -10z m180 -4 c0 -8 6 -16
13 -19 6 -2 8 -8 4 -13 -5 -5 -15 -1 -23 10 -16 23 -18 36 -4 36 6 0 10 -6 10
-14z m250 4 c8 -5 12 -12 9 -15 -8 -8 -39 5 -39 16 0 11 11 11 30 -1z m370
-33 c0 -6 -9 -1 -20 11 -11 12 -20 24 -20 28 0 4 9 -1 20 -11 11 -10 20 -23
20 -28z m2010 33 c0 -5 -2 -10 -4 -10 -3 0 -8 5 -11 10 -3 6 -1 10 4 10 6 0
11 -4 11 -10z m345 0 c3 -5 -1 -10 -9 -10 -9 0 -16 5 -16 10 0 6 4 10 9 10 6
0 13 -4 16 -10z m-2585 -14 c0 -8 -7 -16 -15 -20 -17 -6 -18 -4 -9 18 8 20 24
21 24 2z m1175 4 c3 -5 1 -10 -4 -10 -6 0 -11 5 -11 10 0 6 2 10 4 10 3 0 8
-4 11 -10z m35 0 c0 -5 -4 -10 -10 -10 -5 0 -10 5 -10 10 0 6 5 10 10 10 6 0
10 -4 10 -10z m1300 0 c0 -5 -4 -10 -10 -10 -5 0 -10 5 -10 10 0 6 5 10 10 10
6 0 10 -4 10 -10z m690 0 c0 -5 -4 -10 -10 -10 -5 0 -10 5 -10 10 0 6 5 10 10
10 6 0 10 -4 10 -10z m-3720 -10 c0 -5 -4 -10 -10 -10 -5 0 -10 5 -10 10 0 6
5 10 10 10 6 0 10 -4 10 -10z m668 -21 c13 -16 19 -29 13 -29 -5 0 -19 14 -31
30 -28 39 -12 38 18 -1z m2122 11 c0 -5 -4 -10 -10 -10 -5 0 -10 5 -10 10 0 6
5 10 10 10 6 0 10 -4 10 -10z m295 0 c3 -5 1 -10 -4 -10 -6 0 -11 5 -11 10 0
6 2 10 4 10 3 0 8 -4 11 -10z m535 -7 c0 -8 -31 -36 -35 -31 -10 10 8 46 21
41 8 -3 14 -7 14 -10z m-3180 1 c0 -3 -7 -12 -15 -21 -20 -19 -32 -10 -14 11
14 15 29 21 29 10z m165 -5 c11 -17 -1 -21 -15 -4 -8 9 -8 15 -2 15 6 0 14 -5
17 -11z m3305 1 c0 -5 -4 -10 -10 -10 -5 0 -10 5 -10 10 0 6 5 10 10 10 6 0
10 -4 10 -10z m-3890 -10 c0 -5 -4 -10 -10 -10 -5 0 -10 5 -10 10 0 6 5 10 10
10 6 0 10 -4 10 -10z m170 -20 c-8 -5 -19 -9 -25 -9 -5 0 -4 3 3 6 6 2 12 12
12 21 0 13 3 13 12 4 10 -10 10 -15 -2 -22z m1655 20 c3 -5 1 -10 -4 -10 -6 0
-11 5 -11 10 0 6 2 10 4 10 3 0 8 -4 11 -10z m65 -16 c0 -8 -4 -12 -10 -9 -5
3 -10 13 -10 21 0 8 5 12 10 9 6 -3 10 -13 10 -21z m1630 16 c0 -5 -4 -10 -10
-10 -5 0 -10 5 -10 10 0 6 5 10 10 10 6 0 10 -4 10 -10z m273 -2 c-6 -7 -10
-26 -9 -41 1 -16 -2 -31 -6 -33 -9 -6 -11 47 -2 70 3 9 11 16 16 16 7 0 7 -4
1 -12z m432 1 c10 -15 -1 -23 -20 -15 -9 3 -13 10 -10 16 8 13 22 13 30 -1z
m-4095 -83 c0 -5 7 -18 17 -28 9 -10 13 -21 10 -24 -7 -8 -56 46 -57 62 0 6
-7 17 -15 24 -8 7 -15 19 -15 28 0 10 11 4 30 -18 17 -18 30 -38 30 -44z m272
42 c13 13 42 17 34 4 -3 -5 22 -14 55 -21 32 -8 59 -17 59 -22 0 -4 6 -14 13
-21 8 -7 26 -33 41 -56 16 -25 31 -40 38 -36 7 5 9 -1 4 -20 -5 -19 -2 -28 9
-32 16 -7 55 -65 55 -83 0 -6 -5 -11 -11 -11 -5 0 -8 4 -5 8 3 5 -6 21 -19 38
l-24 29 14 -42 c8 -22 17 -71 21 -107 4 -44 10 -63 18 -59 6 4 4 -2 -5 -13 -9
-10 -16 -26 -16 -34 0 -8 -10 -35 -21 -59 -12 -25 -22 -51 -22 -59 0 -8 -6
-12 -14 -9 -7 3 -27 -7 -43 -22 -27 -25 -36 -27 -102 -25 -39 1 -71 -3 -71 -7
0 -5 8 -9 18 -9 21 0 50 -46 37 -57 -4 -5 -10 -2 -12 5 -3 6 -12 12 -20 12 -9
0 -13 6 -10 14 4 10 1 13 -8 10 -9 -4 -16 3 -21 20 -3 14 -11 26 -16 26 -6 0
-19 11 -29 25 -13 15 -26 22 -36 18 -13 -5 -15 -2 -11 15 4 13 -1 27 -13 38
-10 9 -19 23 -19 31 0 7 -4 13 -9 13 -5 0 -9 10 -9 23 -1 31 -40 169 -52 181
-6 6 -10 17 -10 26 0 13 2 13 11 0 8 -11 9 3 5 53 -4 55 -3 67 9 67 8 0 15 7
15 15 0 25 79 103 111 110 28 6 29 8 15 24 -26 28 -18 37 9 11 20 -18 28 -21
37 -12z m2658 22 c0 -5 -4 -10 -10 -10 -5 0 -10 5 -10 10 0 6 5 10 10 10 6 0
10 -4 10 -10z m640 0 c0 -5 -2 -10 -4 -10 -3 0 -8 5 -11 10 -3 6 -1 10 4 10 6
0 11 -4 11 -10z m280 0 c0 -5 -4 -10 -10 -10 -5 0 -10 5 -10 10 0 6 5 10 10
10 6 0 10 -4 10 -10z m-4046 -16 c4 -10 1 -14 -6 -12 -15 5 -23 28 -10 28 5 0
13 -7 16 -16z m3612 8 c6 -4 16 -17 23 -29 16 -31 -7 -21 -32 12 -17 24 -13
32 9 17z m338 -7 c11 -8 17 -17 14 -21 -8 -8 -48 14 -48 26 0 14 12 12 34 -5z
m-3854 -5 c0 -5 -4 -10 -10 -10 -5 0 -10 5 -10 10 0 6 5 10 10 10 6 0 10 -4
10 -10z m198 -26 c32 -38 34 -72 4 -54 -43 25 -63 50 -57 70 9 28 19 25 53
-16z m3458 -9 c-9 -10 -20 -14 -24 -11 -3 4 -1 11 6 15 8 4 10 15 6 27 -6 18
-6 18 11 2 17 -16 17 -18 1 -33z m-3426 25 c0 -5 -2 -10 -4 -10 -3 0 -8 5 -11
10 -3 6 -1 10 4 10 6 0 11 -4 11 -10z m31 -3 c-1 -12 -15 -9 -19 4 -3 6 1 10
8 8 6 -3 11 -8 11 -12z m-231 -7 c0 -5 -4 -10 -10 -10 -5 0 -10 5 -10 10 0 6
5 10 10 10 6 0 10 -4 10 -10z m1850 -9 c12 -24 13 -31 2 -31 -5 0 -14 11 -20
25 -14 29 2 34 18 6z m1146 -8 c-7 -7 -26 7 -26 19 0 6 6 6 15 -2 9 -7 13 -15
11 -17z m914 12 c0 -8 -4 -15 -9 -15 -5 0 -11 7 -15 15 -3 9 0 15 9 15 8 0 15
-7 15 -15z m-635 -5 c3 -5 1 -10 -4 -10 -6 0 -11 5 -11 10 0 6 2 10 4 10 3 0
8 -4 11 -10z m-3315 -10 c0 -5 -4 -10 -10 -10 -5 0 -10 5 -10 10 0 6 5 10 10
10 6 0 10 -4 10 -10z m615 -10 c0 -7 -5 -15 -10 -17 -6 -2 -11 6 -11 17 0 11
5 19 11 17 5 -2 10 -10 10 -17z m543 -19 c-15 -5 -21 7 -13 26 7 17 8 17 15
-2 4 -11 3 -22 -2 -24z m1822 35 c0 -3 -4 -8 -10 -11 -5 -3 -10 -1 -10 4 0 6
5 11 10 11 6 0 10 -2 10 -4z m253 -16 c-3 -11 -9 -20 -14 -20 -11 0 -11 3 -3
24 9 23 23 20 17 -4z m227 10 c0 -5 -4 -10 -10 -10 -5 0 -10 5 -10 10 0 6 5
10 10 10 6 0 10 -4 10 -10z m76 -17 c-15 -53 -17 -73 -7 -73 6 0 11 -4 11 -10
0 -5 -6 -10 -14 -10 -7 0 -16 -10 -20 -22 -4 -18 -8 -20 -18 -10 -9 9 -9 15 0
24 16 16 15 23 -4 43 -9 9 -13 19 -9 23 4 4 10 1 12 -5 7 -20 23 -15 23 6 0
27 10 51 22 51 5 0 7 -8 4 -17z m269 7 c3 -5 1 -10 -4 -10 -6 0 -11 5 -11 10
0 6 2 10 4 10 3 0 8 -4 11 -10z m-3755 -10 c0 -5 -4 -10 -9 -10 -6 0 -13 5
-16 10 -3 6 1 10 9 10 9 0 16 -4 16 -10z m610 -10 c0 -5 -2 -10 -4 -10 -3 0
-8 5 -11 10 -3 6 -1 10 4 10 6 0 11 -4 11 -10z m480 -11 c0 -5 -4 -9 -10 -9
-5 0 -10 7 -10 16 0 8 5 12 10 9 6 -3 10 -10 10 -16z m1975 11 c3 -5 1 -10 -4
-10 -6 0 -11 5 -11 10 0 6 2 10 4 10 3 0 8 -4 11 -10z m326 0 c5 0 9 -10 9
-21 0 -20 -2 -20 -22 -7 -28 19 -38 44 -14 35 10 -4 22 -7 27 -7z m-395 -12
c5 -8 1 -9 -10 -5 -11 4 -16 3 -14 -4 2 -6 8 -11 13 -11 14 -1 55 -47 55 -61
-1 -7 -10 -1 -20 12 -11 13 -20 21 -20 18 0 -4 -11 4 -25 17 -14 13 -25 27
-25 33 0 13 38 14 46 1z m40 -15 c-10 -10 -19 5 -10 18 6 11 8 11 12 0 2 -7 1
-15 -2 -18z m-3146 7 c0 -5 -4 -10 -10 -10 -5 0 -10 5 -10 10 0 6 5 10 10 10
6 0 10 -4 10 -10z m30 0 c0 -5 -4 -10 -10 -10 -5 0 -10 5 -10 10 0 6 5 10 10
10 6 0 10 -4 10 -10z m1216 -4 c14 -15 14 -50 -1 -63 -4 -5 -5 2 -2 15 3 13
-1 28 -9 36 -8 8 -14 17 -14 20 0 10 11 7 26 -8z m724 -7 c0 -5 -4 -9 -10 -9
-5 0 -10 7 -10 16 0 8 5 12 10 9 6 -3 10 -10 10 -16z m1840 11 c0 -5 -4 -10
-10 -10 -5 0 -10 5 -10 10 0 6 5 10 10 10 6 0 10 -4 10 -10z m-3642 -32 c2
-20 10 -28 33 -33 29 -7 37 -19 19 -30 -5 -3 -10 -1 -10 4 0 6 -6 11 -14 11
-10 0 -14 -9 -13 -27 2 -23 -3 -28 -36 -36 -26 -6 -37 -14 -33 -23 6 -16 -10
-19 -19 -4 -10 17 -35 11 -35 -7 0 -10 5 -35 11 -56 9 -34 12 -37 37 -31 15 4
28 10 30 14 1 4 17 4 34 1 23 -5 34 -14 41 -36 5 -17 19 -40 30 -52 11 -13 17
-26 14 -30 -4 -3 -7 -1 -7 5 0 7 -4 12 -10 12 -5 0 -10 -6 -10 -14 0 -9 -17
-16 -48 -21 -67 -9 -75 -16 -62 -49 5 -15 10 -38 10 -52 0 -13 3 -24 7 -24 13
0 43 33 43 47 0 8 5 11 10 8 16 -10 12 -22 -19 -57 -22 -26 -27 -38 -20 -55 5
-13 14 -23 21 -23 10 0 10 -2 -1 -9 -7 -5 -10 -14 -7 -20 4 -6 -4 -16 -18 -23
-20 -9 -23 -14 -14 -25 17 -21 0 -28 -21 -9 -14 13 -28 16 -53 11 l-34 -6 -19
90 c-10 49 -21 89 -24 89 -19 -2 -31 3 -31 13 0 6 7 9 15 5 19 -7 19 -5 -4 79
-10 39 -22 83 -25 98 -4 15 -11 25 -16 22 -6 -3 -10 1 -10 10 0 10 5 14 13 10
6 -4 3 1 -8 10 -16 13 -17 17 -6 24 11 7 10 18 -3 64 -26 89 -25 92 44 107 33
7 60 17 60 22 0 6 7 8 15 4 8 -3 15 -1 15 5 0 6 8 8 18 5 9 -3 31 -2 47 3 45
14 60 9 63 -21z m542 24 c0 -14 -39 -46 -47 -39 -3 4 2 16 12 27 19 21 35 26
35 12z m2557 -14 c-3 -8 -6 -5 -6 6 -1 11 2 17 5 13 3 -3 4 -12 1 -19z m-3312
2 c3 -5 1 -10 -4 -10 -6 0 -11 5 -11 10 0 6 2 10 4 10 3 0 8 -4 11 -10z m3245
-28 c-7 -3 -16 2 -21 9 -16 25 -9 32 12 13 13 -12 16 -20 9 -22z m-3310 18 c0
-5 -4 -10 -10 -10 -5 0 -10 5 -10 10 0 6 5 10 10 10 6 0 10 -4 10 -10z m2645
0 c3 -5 1 -10 -4 -10 -6 0 -11 5 -11 10 0 6 2 10 4 10 3 0 8 -4 11 -10z m340
-9 c10 -18 -6 -90 -20 -85 -7 3 -16 1 -20 -5 -3 -6 -11 -11 -16 -11 -6 0 -3 7
6 17 21 21 37 63 31 80 -6 15 10 18 19 4z m815 -10 c0 -12 -20 -25 -27 -18 -7
7 6 27 18 27 5 0 9 -4 9 -9z m-944 -18 c20 -27 16 -38 -6 -18 -20 18 -26 35
-14 35 4 0 13 -8 20 -17z m94 7 c0 -5 -4 -10 -10 -10 -5 0 -10 5 -10 10 0 6 5
10 10 10 6 0 10 -4 10 -10z m540 0 c0 -5 -4 -10 -10 -10 -5 0 -10 5 -10 10 0
6 5 10 10 10 6 0 10 -4 10 -10z m-1560 -10 c0 -5 -4 -10 -10 -10 -5 0 -10 5
-10 10 0 6 5 10 10 10 6 0 10 -4 10 -10z m1303 -11 c3 -13 1 -19 -6 -16 -15 5
-22 37 -9 37 5 0 12 -9 15 -21z m122 -17 c-6 -7 -35 18 -35 31 0 5 9 2 20 -8
11 -10 18 -20 15 -23z m75 18 c0 -5 -2 -10 -4 -10 -3 0 -8 5 -11 10 -3 6 -1
10 4 10 6 0 11 -4 11 -10z m-2042 -19 c3 -8 -1 -12 -9 -9 -7 2 -15 10 -17 17
-3 8 1 12 9 9 7 -2 15 -10 17 -17z m1522 -2 c0 -5 -4 -9 -10 -9 -5 0 -10 7
-10 16 0 8 5 12 10 9 6 -3 10 -10 10 -16z m306 -26 c-3 -3 -1 -12 6 -20 13
-17 7 -25 -11 -14 -7 5 -15 23 -17 40 -3 30 -2 31 12 16 9 -9 14 -19 10 -22z
m132 8 c3 -8 -1 -12 -9 -9 -7 2 -15 10 -17 17 -3 8 1 12 9 9 7 -2 15 -10 17
-17z m-28 -12 c0 -6 -4 -7 -10 -4 -5 3 -10 11 -10 16 0 6 5 7 10 4 6 -3 10
-11 10 -16z m-890 -9 c7 -13 7 -20 1 -20 -6 0 -15 9 -21 20 -7 13 -7 20 -1 20
6 0 15 -9 21 -20z m-2110 0 c0 -5 -4 -10 -10 -10 -5 0 -10 5 -10 10 0 6 5 10
10 10 6 0 10 -4 10 -10z m1710 -20 c0 -5 -5 -10 -11 -10 -5 0 -7 5 -4 10 3 6
8 10 11 10 2 0 4 -4 4 -10z m1010 0 c0 -5 -4 -10 -10 -10 -5 0 -10 5 -10 10 0
6 5 10 10 10 6 0 10 -4 10 -10z m-3034 -47 c-4 -5 -14 1 -22 11 -21 30 -17 39
8 16 12 -11 18 -23 14 -27z m2794 32 c14 -16 10 -18 -14 -9 -9 3 -16 10 -16
15 0 14 16 11 30 -6z m460 5 c0 -5 -2 -10 -4 -10 -3 0 -8 5 -11 10 -3 6 -1 10
4 10 6 0 11 -4 11 -10z m35 0 c3 -5 1 -10 -4 -10 -6 0 -11 5 -11 10 0 6 2 10
4 10 3 0 8 -4 11 -10z m-1215 -10 c0 -5 -4 -10 -10 -10 -5 0 -10 5 -10 10 0 6
5 10 10 10 6 0 10 -4 10 -10z m840 0 c0 -5 -4 -10 -10 -10 -5 0 -10 5 -10 10
0 6 5 10 10 10 6 0 10 -4 10 -10z m-600 -10 c0 -5 -4 -10 -10 -10 -5 0 -10 5
-10 10 0 6 5 10 10 10 6 0 10 -4 10 -10z m130 -6 c0 -8 -4 -12 -10 -9 -5 3
-10 10 -10 16 0 5 5 9 10 9 6 0 10 -7 10 -16z m-2205 -4 c3 -5 2 -10 -4 -10
-5 0 -13 5 -16 10 -3 6 -2 10 4 10 5 0 13 -4 16 -10z m2184 -16 c11 -14 23
-35 27 -47 3 -12 20 -34 36 -49 41 -39 17 -35 -27 4 -30 26 -75 93 -75 113 0
13 20 3 39 -21z m741 16 c0 -5 -4 -10 -10 -10 -5 0 -10 5 -10 10 0 6 5 10 10
10 6 0 10 -4 10 -10z m-3255 -20 c3 -5 1 -10 -4 -10 -6 0 -11 5 -11 10 0 6 2
10 4 10 3 0 8 -4 11 -10z m1445 0 c0 -5 -2 -10 -4 -10 -3 0 -8 5 -11 10 -3 6
-1 10 4 10 6 0 11 -4 11 -10z m850 6 c0 -3 -4 -8 -10 -11 -5 -3 -10 -1 -10 4
0 6 5 11 10 11 6 0 10 -2 10 -4z m610 -6 c0 -5 -4 -10 -10 -10 -5 0 -10 5 -10
10 0 6 5 10 10 10 6 0 10 -4 10 -10z m-1420 -14 c0 -8 -4 -18 -10 -21 -5 -3
-10 3 -10 14 0 12 5 21 10 21 6 0 10 -6 10 -14z m1655 4 c3 -5 1 -10 -4 -10
-6 0 -11 5 -11 10 0 6 2 10 4 10 3 0 8 -4 11 -10z m-2180 -36 c24 -37 13 -40
-14 -4 -12 17 -17 30 -12 30 5 0 16 -12 26 -26z m1245 16 c0 -5 -4 -10 -10
-10 -5 0 -10 5 -10 10 0 6 5 10 10 10 6 0 10 -4 10 -10z m275 0 c3 -5 1 -10
-4 -10 -6 0 -11 5 -11 10 0 6 2 10 4 10 3 0 8 -4 11 -10z m320 -10 c3 -5 2
-10 -4 -10 -5 0 -13 5 -16 10 -3 6 -2 10 4 10 5 0 13 -4 16 -10z m155 0 c0 -5
-4 -10 -10 -10 -5 0 -10 5 -10 10 0 6 5 10 10 10 6 0 10 -4 10 -10z m256 -37
c-10 -10 -19 5 -10 18 6 11 8 11 12 0 2 -7 1 -15 -2 -18z m-1286 -3 c0 -5 -4
-10 -10 -10 -5 0 -10 5 -10 10 0 6 5 10 10 10 6 0 10 -4 10 -10z m2400 -15 c0
-8 5 -15 10 -15 6 0 10 -5 10 -10 0 -10 -59 -5 -69 6 -5 5 30 33 42 34 4 0 7
-7 7 -15z m-2060 -5 c0 -5 -2 -10 -4 -10 -3 0 -8 5 -11 10 -3 6 -1 10 4 10 6
0 11 -4 11 -10z m-811 -25 c6 3 11 4 11 1 0 -2 3 -11 6 -20 3 -9 2 -16 -3 -16
-14 0 -53 39 -53 53 0 7 7 4 15 -7 7 -10 18 -15 24 -11z m715 9 c9 -24 7 -28
-9 -14 -17 14 -20 30 -6 30 5 0 12 -7 15 -16z m141 6 c3 -5 -1 -10 -9 -10 -9
0 -16 5 -16 10 0 6 4 10 9 10 6 0 13 -4 16 -10z m585 -30 c0 -5 -2 -10 -4 -10
-3 0 -8 5 -11 10 -3 6 -1 10 4 10 6 0 11 -4 11 -10z m-445 -10 c3 -5 1 -10 -4
-10 -6 0 -11 5 -11 10 0 6 2 10 4 10 3 0 8 -4 11 -10z m-145 -10 c0 -5 -2 -10
-4 -10 -3 0 -8 5 -11 10 -3 6 -1 10 4 10 6 0 11 -4 11 -10z m2000 -5 c0 -8 -7
-15 -15 -15 -16 0 -20 12 -8 23 11 12 23 8 23 -8z m-2740 1 c0 -3 -4 -8 -10
-11 -5 -3 -10 -1 -10 4 0 6 5 11 10 11 6 0 10 -2 10 -4z m490 -6 c0 -5 -4 -10
-10 -10 -5 0 -10 5 -10 10 0 6 5 10 10 10 6 0 10 -4 10 -10z m-180 -10 c0 -5
-2 -10 -4 -10 -3 0 -8 5 -11 10 -3 6 -1 10 4 10 6 0 11 -4 11 -10z m30 0 c0
-5 -4 -10 -10 -10 -5 0 -10 5 -10 10 0 6 5 10 10 10 6 0 10 -4 10 -10z m-1565
-10 c3 -5 1 -10 -4 -10 -6 0 -11 5 -11 10 0 6 2 10 4 10 3 0 8 -4 11 -10z
m1338 -2 c14 -13 10 -68 -4 -68 -5 0 -9 11 -9 24 0 13 -3 31 -6 40 -7 19 2 21
19 4z m-1233 -7 c0 -6 -4 -13 -10 -16 -5 -3 -10 1 -10 9 0 9 5 16 10 16 6 0
10 -4 10 -9z m565 -2 c11 -17 -1 -21 -15 -4 -8 9 -8 15 -2 15 6 0 14 -5 17
-11z m628 -18 c-2 -11 2 -21 7 -21 6 0 10 -5 10 -10 0 -7 -6 -8 -17 -2 -19 11
-28 66 -10 59 7 -2 11 -14 10 -26z m2654 14 c8 -22 -6 -33 -17 -15 -13 20 -12
30 0 30 6 0 13 -7 17 -15z m-3312 -5 c3 -5 1 -10 -4 -10 -6 0 -11 5 -11 10 0
6 2 10 4 10 3 0 8 -4 11 -10z m625 -10 c0 -5 -4 -10 -10 -10 -5 0 -10 5 -10
10 0 6 5 10 10 10 6 0 10 -4 10 -10z m-120 -10 c0 -5 -4 -10 -10 -10 -5 0 -10
5 -10 10 0 6 5 10 10 10 6 0 10 -4 10 -10z m990 -10 c0 -5 -4 -10 -10 -10 -5
0 -10 5 -10 10 0 6 5 10 10 10 6 0 10 -4 10 -10z m-922 -30 c3 -9 0 -10 -9 -4
-8 5 -18 9 -23 9 -5 0 -11 6 -13 12 -4 10 2 11 18 5 13 -5 25 -15 27 -22z
m2730 11 c3 -8 -1 -12 -9 -9 -7 2 -15 10 -17 17 -3 8 1 12 9 9 7 -2 15 -10 17
-17z m-2288 -1 c0 -5 -5 -10 -11 -10 -5 0 -7 5 -4 10 3 6 8 10 11 10 2 0 4 -4
4 -10z m-1585 -10 c3 -5 1 -10 -4 -10 -6 0 -11 5 -11 10 0 6 2 10 4 10 3 0 8
-4 11 -10z m704 -11 c13 -11 21 -22 18 -25 -6 -7 -56 27 -57 39 0 12 14 7 39
-14z m251 2 c0 -6 -4 -13 -10 -16 -5 -3 -10 1 -10 9 0 9 5 16 10 16 6 0 10 -4
10 -9z m2910 -11 c0 -5 -4 -10 -10 -10 -5 0 -10 5 -10 10 0 6 5 10 10 10 6 0
10 -4 10 -10z m-3830 -26 c0 -9 -5 -14 -12 -12 -18 6 -21 28 -4 28 9 0 16 -7
16 -16z m600 2 c0 -8 -4 -18 -10 -21 -5 -3 -10 -17 -10 -31 0 -13 -3 -24 -8
-24 -4 0 -18 -29 -30 -65 -13 -36 -30 -65 -37 -65 -7 0 -18 -7 -25 -15 -15
-18 -30 -20 -30 -3 0 6 3 8 7 5 7 -8 63 98 63 119 0 8 4 14 9 14 5 0 12 12 15
26 12 48 56 95 56 60z m240 -1 c11 -13 11 -18 0 -28 -10 -9 -11 -9 -6 1 4 7 1
15 -8 18 -9 3 -16 10 -16 15 0 14 16 11 30 -6z m-410 -15 c0 -5 -5 -10 -11
-10 -5 0 -7 5 -4 10 3 6 8 10 11 10 2 0 4 -4 4 -10z m295 0 c3 -5 1 -10 -4
-10 -6 0 -11 5 -11 10 0 6 2 10 4 10 3 0 8 -4 11 -10z m-207 -31 c19 -30 -6
-21 -26 9 -12 19 -12 22 -1 17 8 -3 20 -15 27 -26z m122 27 c0 -3 -4 -8 -10
-11 -5 -3 -10 -1 -10 4 0 6 5 11 10 11 6 0 10 -2 10 -4z m420 -8 c0 -4 -9 -8
-20 -8 -11 0 -20 4 -20 9 0 6 9 9 20 8 11 -1 20 -5 20 -9z m-680 -8 c0 -5 -4
-10 -10 -10 -5 0 -10 5 -10 10 0 6 5 10 10 10 6 0 10 -4 10 -10z m570 -12 c0
-13 -23 -5 -28 10 -2 7 2 10 12 6 9 -3 16 -11 16 -16z m165 12 c3 -5 1 -10 -4
-10 -6 0 -11 5 -11 10 0 6 2 10 4 10 3 0 8 -4 11 -10z m-445 -15 c0 -8 -4 -15
-10 -15 -5 0 -10 7 -10 15 0 8 5 15 10 15 6 0 10 -7 10 -15z m162 -33 c28 -17
36 -32 19 -32 -5 0 -16 6 -23 13 -7 7 -25 20 -40 30 -16 10 -28 22 -28 28 0 7
10 4 23 -5 12 -9 34 -24 49 -34z m-432 18 c0 -5 -7 -10 -15 -10 -8 0 -15 5
-15 10 0 6 7 10 15 10 8 0 15 -4 15 -10z m3406 -17 c-7 -7 -26 7 -26 19 0 6 6
6 15 -2 9 -7 13 -15 11 -17z m-3466 7 c0 -5 -2 -10 -4 -10 -3 0 -8 5 -11 10
-3 6 -1 10 4 10 6 0 11 -4 11 -10z m-670 -10 c0 -5 -4 -10 -10 -10 -5 0 -10 5
-10 10 0 6 5 10 10 10 6 0 10 -4 10 -10z m300 -10 c0 -5 -5 -10 -11 -10 -5 0
-7 5 -4 10 3 6 8 10 11 10 2 0 4 -4 4 -10z m482 -21 c32 -33 32 -47 0 -30 -11
6 -22 7 -26 3 -4 -3 -4 1 -1 10 4 9 2 19 -4 23 -12 7 -15 25 -5 25 4 0 20 -14
36 -31z m181 -5 c22 -8 22 -24 -1 -24 -9 0 -23 9 -30 21 -11 18 -11 20 0 15 7
-3 21 -9 31 -12z m117 6 c0 -5 -4 -10 -10 -10 -5 0 -10 5 -10 10 0 6 5 10 10
10 6 0 10 -4 10 -10z m3030 0 c0 -5 -4 -10 -10 -10 -5 0 -10 5 -10 10 0 6 5
10 10 10 6 0 10 -4 10 -10z m-3815 -40 c3 -5 1 -10 -4 -10 -6 0 -11 5 -11 10
0 6 2 10 4 10 3 0 8 -4 11 -10z m251 -42 c3 -10 19 -27 35 -39 17 -12 28 -23
25 -26 -9 -10 -62 29 -81 60 -29 47 -29 50 -6 35 12 -7 24 -21 27 -30z m119
12 c3 -5 -1 -10 -9 -10 -9 0 -16 5 -16 10 0 6 4 10 9 10 6 0 13 -4 16 -10z
m-555 -10 c0 -5 -4 -10 -10 -10 -5 0 -10 5 -10 10 0 6 5 10 10 10 6 0 10 -4
10 -10z m620 0 c0 -5 -4 -10 -10 -10 -5 0 -10 5 -10 10 0 6 5 10 10 10 6 0 10
-4 10 -10z m-301 -31 c13 -11 21 -22 18 -26 -8 -7 -57 24 -57 37 0 15 12 12
39 -11z m3659 2 c3 -8 -1 -12 -9 -9 -7 2 -15 10 -17 17 -3 8 1 12 9 9 7 -2 15
-10 17 -17z m-3780 -9 c2 -7 -2 -10 -12 -6 -9 3 -16 11 -16 16 0 13 23 5 28
-10z m-278 -27 c0 -5 -5 -3 -10 5 -5 8 -10 20 -10 25 0 6 5 3 10 -5 5 -8 10
-19 10 -25z m149 4 c37 -22 37 -35 -1 -20 -25 9 -57 41 -42 41 5 0 24 -9 43
-21z m169 -17 c6 -18 -15 -14 -22 4 -4 10 -1 14 6 12 6 -2 14 -10 16 -16z
m3672 -32 c0 -5 -4 -10 -10 -10 -5 0 -10 5 -10 10 0 6 5 10 10 10 6 0 10 -4
10 -10z m-3790 -4 c0 -3 -4 -8 -10 -11 -5 -3 -10 -1 -10 4 0 6 5 11 10 11 6 0
10 -2 10 -4z m430 -16 c0 -5 -2 -10 -4 -10 -3 0 -8 5 -11 10 -3 6 -1 10 4 10
6 0 11 -4 11 -10z m-190 -45 c0 -8 -4 -15 -10 -15 -5 0 -10 7 -10 15 0 8 5 15
10 15 6 0 10 -7 10 -15z m3475 5 c3 -5 1 -10 -4 -10 -6 0 -11 5 -11 10 0 6 2
10 4 10 3 0 8 -4 11 -10z m8 -104 c4 -10 1 -13 -9 -9 -15 6 -19 23 -5 23 5 0
11 -7 14 -14z m-3425 -48 c19 -19 14 -30 -8 -18 -11 6 -20 15 -20 20 0 14 14
12 28 -2z m37 -48 c3 -5 1 -10 -4 -10 -6 0 -11 5 -11 10 0 6 2 10 4 10 3 0 8
-4 11 -10z m-25 -60 c0 -5 -4 -10 -10 -10 -5 0 -10 5 -10 10 0 6 5 10 10 10 6
0 10 -4 10 -10z m88 -68 c6 -18 -15 -14 -22 4 -4 10 -1 14 6 12 6 -2 14 -10
16 -16z"/>
<path d="M2837 2305 c3 -66 6 -121 7 -122 1 -1 20 3 43 9 l42 10 -16 32 c-9
17 -31 67 -49 111 l-33 80 6 -120z"/>
<path d="M1570 2208 c1 -7 8 -24 16 -38 8 -14 13 -17 10 -7 -3 10 -6 27 -6 38
0 10 -4 19 -10 19 -5 0 -10 -6 -10 -12z"/>
<path d="M1740 2190 c0 -5 6 -10 13 -10 9 0 9 -2 0 -8 -13 -8 -6 -62 9 -62 5
0 7 -4 4 -9 -5 -8 6 -69 35 -189 9 -39 17 -52 28 -49 9 2 15 9 14 15 -2 7 6
12 17 12 11 0 20 1 21 3 0 1 3 30 6 64 6 70 -20 173 -43 173 -7 0 -11 6 -8 14
3 7 -7 23 -22 35 -28 22 -74 29 -74 11z m70 -156 c0 -19 -16 -18 -24 2 -11 27
-7 37 9 24 8 -7 15 -19 15 -26z m50 16 c0 -5 -7 -10 -15 -10 -8 0 -15 5 -15
10 0 6 7 10 15 10 8 0 15 -4 15 -10z m-20 -50 c0 -5 -4 -10 -10 -10 -5 0 -10
5 -10 10 0 6 5 10 10 10 6 0 10 -4 10 -10z m-3 -54 c10 -32 9 -36 -7 -36 -11
0 -19 10 -23 28 -3 15 -9 35 -13 46 -6 16 -4 17 13 8 10 -6 24 -27 30 -46z
m43 44 c0 -5 -2 -10 -4 -10 -3 0 -8 5 -11 10 -3 6 -1 10 4 10 6 0 11 -4 11
-10z"/>
<path d="M1282 2093 c-7 -2 -17 -14 -24 -26 -10 -20 -10 -21 6 -8 22 18 31 8
14 -18 -11 -18 -10 -22 7 -35 11 -8 16 -18 12 -23 -5 -4 -13 0 -18 10 -6 9
-14 17 -19 17 -18 0 -10 -32 13 -51 20 -17 21 -20 5 -32 -15 -12 -15 -18 7
-82 34 -103 80 -128 128 -72 14 16 17 31 13 57 -3 19 -6 47 -6 62 0 15 -6 33
-14 41 -9 9 -12 24 -9 37 4 16 0 27 -11 36 -10 7 -15 17 -11 23 3 6 -3 25 -15
41 -20 29 -46 36 -78 23z m48 -124 c0 -6 -4 -7 -10 -4 -5 3 -10 11 -10 16 0 6
5 7 10 4 6 -3 10 -11 10 -16z m40 1 c0 -5 -2 -10 -4 -10 -3 0 -8 5 -11 10 -3
6 -1 10 4 10 6 0 11 -4 11 -10z m-41 -81 c13 -11 21 -22 18 -25 -3 -3 -18 6
-34 20 -32 30 -19 35 16 5z m51 -25 c0 -8 -4 -14 -10 -14 -5 0 -10 9 -10 21 0
11 5 17 10 14 6 -3 10 -13 10 -21z m40 -63 c0 -6 -4 -13 -10 -16 -5 -3 -10 1
-10 9 0 9 5 16 10 16 6 0 10 -4 10 -9z"/>
<path d="M770 1954 c-13 -32 -12 -37 0 -29 6 4 10 -5 10 -20 0 -15 -4 -24 -10
-20 -14 9 -13 -6 11 -106 17 -74 24 -89 40 -89 10 0 19 -4 19 -10 0 -5 -5 -10
-12 -10 -6 0 -9 -3 -6 -6 4 -3 10 -6 15 -6 4 1 16 -6 25 -15 24 -21 54 -8 67
29 17 47 13 68 -12 77 -29 11 -56 41 -37 41 8 0 22 -7 32 -17 21 -19 22 -15 6
61 -6 32 -17 60 -24 63 -7 2 -11 10 -8 17 3 7 -5 24 -16 39 -30 38 -86 38
-100 1z m40 -14 c8 -5 11 -12 7 -16 -4 -4 -15 0 -24 9 -18 18 -8 23 17 7z m60
-41 c0 -5 -4 -9 -10 -9 -5 0 -10 7 -10 16 0 8 5 12 10 9 6 -3 10 -10 10 -16z
m-70 -29 c0 -5 -5 -10 -11 -10 -5 0 -7 5 -4 10 3 6 8 10 11 10 2 0 4 -4 4 -10z
m25 -30 c3 -5 1 -10 -4 -10 -6 0 -11 5 -11 10 0 6 2 10 4 10 3 0 8 -4 11 -10z
m73 -10 c-13 -20 -28 -27 -28 -12 0 10 22 32 32 32 5 0 3 -9 -4 -20z m-70 -99
c3 -8 -1 -12 -9 -9 -7 2 -15 10 -17 17 -3 8 1 12 9 9 7 -2 15 -10 17 -17z m72
-21 c0 -5 -4 -10 -10 -10 -5 0 -10 5 -10 10 0 6 5 10 10 10 6 0 10 -4 10 -10z
m5 -61 c-10 -15 -25 -10 -19 6 4 8 10 12 15 9 5 -3 7 -10 4 -15z"/>
<path d="M2346 3563 c-21 -2 -46 -11 -54 -20 -14 -14 -12 -15 24 -9 21 3 63 7
92 8 30 2 51 7 49 13 -4 11 -50 14 -111 8z"/>
<path d="M2239 3540 c-13 -10 -19 -19 -13 -20 6 0 21 9 34 20 30 26 10 26 -21
0z"/>
<path d="M2123 3527 c-40 -9 -53 -20 -35 -30 12 -7 102 25 96 34 -6 10 -4 10
-61 -4z"/>
<path d="M2005 3493 c-41 -14 -62 -29 -54 -38 11 -10 108 30 101 41 -5 8 -18
7 -47 -3z"/>
<path d="M1822 3416 c-46 -24 -91 -51 -101 -60 -10 -9 -21 -16 -26 -16 -12 0
-143 -102 -201 -157 -98 -93 -244 -285 -244 -321 0 -8 -8 -21 -17 -28 -14 -9
-15 -16 -7 -24 9 -9 19 0 40 37 32 55 103 163 118 179 6 6 38 41 70 78 75 84
197 183 299 243 43 25 81 52 84 59 3 8 10 11 15 8 13 -8 89 26 82 37 -9 15
-27 10 -112 -35z"/>
<path d="M1004 3391 c-12 -5 -35 -26 -53 -47 -44 -54 -44 -108 2 -151 76 -73
168 -133 202 -133 58 0 125 74 125 137 -1 37 -19 58 -117 132 -84 63 -122 77
-159 62z m99 -143 c42 -33 81 -57 86 -54 5 3 15 -2 22 -11 11 -13 11 -15 1 -9
-9 6 -12 3 -10 -10 2 -14 -4 -18 -29 -20 -18 -1 -33 3 -33 8 0 5 5 6 10 3 6
-3 10 -4 10 -2 0 3 -31 28 -68 55 -81 60 -106 87 -97 102 8 13 10 11 108 -62z
m-83 -19 c0 -5 -4 -9 -10 -9 -5 0 -10 7 -10 16 0 8 5 12 10 9 6 -3 10 -10 10
-16z m35 -29 c3 -5 2 -10 -4 -10 -5 0 -13 5 -16 10 -3 6 -2 10 4 10 5 0 13 -4
16 -10z m205 -20 c0 -5 -2 -10 -4 -10 -3 0 -8 5 -11 10 -3 6 -1 10 4 10 6 0
11 -4 11 -10z m-166 -26 c4 -10 1 -14 -6 -12 -15 5 -23 28 -10 28 5 0 13 -7
16 -16z m-54 -14 c0 -5 -2 -10 -4 -10 -3 0 -8 5 -11 10 -3 6 -1 10 4 10 6 0
11 -4 11 -10z"/>
<path d="M2158 3279 l-14 -64 -63 -26 -63 -26 60 -38 61 -37 3 -67 3 -66 48
44 47 44 53 -11 c28 -6 60 -14 70 -17 14 -6 12 3 -12 58 l-29 65 34 51 c19 27
34 53 34 57 0 3 -29 3 -64 0 l-63 -7 -45 52 -46 53 -14 -65z m107 -70 c11 -17
-1 -21 -15 -4 -8 9 -8 15 -2 15 6 0 14 -5 17 -11z"/>
<path d="M2646 3220 c-6 -36 -36 -69 -58 -62 -18 5 -6 -8 27 -28 53 -33 42
-46 -12 -16 -27 15 -37 19 -23 9 48 -35 59 -51 55 -83 -4 -36 4 -38 43 -5 26
22 33 23 66 14 21 -6 40 -8 43 -6 2 3 -3 22 -12 43 -15 36 -15 39 10 76 l25
38 -25 0 c-16 0 -25 -6 -25 -15 0 -8 -4 -15 -10 -15 -5 0 -6 8 -3 17 5 12 2
15 -10 10 -12 -4 -25 4 -44 28 -16 19 -31 35 -34 35 -4 0 -9 -18 -13 -40z m54
-55 c17 -9 33 -15 37 -14 4 0 9 -4 11 -10 2 -6 -11 -8 -35 -4 -39 6 -63 19
-63 34 0 13 17 11 50 -6z"/>
<path d="M786 3080 c-14 -27 -21 -50 -16 -50 6 0 10 -7 10 -15 0 -26 38 -38
85 -26 55 14 55 14 55 -4 0 -9 -9 -15 -24 -15 -12 0 -38 -5 -56 -11 -27 -10
-30 -13 -16 -21 9 -5 21 -6 28 -2 7 4 8 3 4 -4 -6 -10 41 -37 68 -40 5 0 12
-5 15 -10 12 -18 90 -52 108 -46 14 4 15 3 4 -4 -8 -6 -9 -12 -3 -16 9 -6 59
81 51 88 -2 2 -31 19 -64 37 -33 18 -61 37 -63 41 -2 4 -12 3 -23 -2 -16 -9
-19 -7 -19 15 0 20 5 25 23 25 34 0 40 11 16 28 -19 13 -23 12 -43 -13 -20
-24 -24 -26 -49 -14 -31 14 -32 18 -15 54 10 22 9 27 -8 40 -31 23 -42 18 -68
-35z m24 -50 c0 -5 -2 -10 -4 -10 -3 0 -8 5 -11 10 -3 6 -1 10 4 10 6 0 11 -4
11 -10z"/>
<path d="M1780 3026 c0 -33 -30 -88 -45 -83 -5 3 -21 0 -35 -5 -24 -9 -24 -9
18 -34 39 -23 42 -28 44 -72 l1 -47 4 40 c6 54 43 80 43 29 0 -20 3 -24 13
-16 7 6 29 9 50 7 41 -4 44 2 21 46 -13 26 -13 33 -2 42 7 7 22 22 33 35 l19
23 -52 -3 c-35 -2 -52 -7 -52 -16 0 -26 -25 -5 -25 21 -1 15 -9 35 -18 44 -16
16 -17 16 -17 -11z m60 -123 c0 -37 -24 -22 -28 17 -3 30 -2 32 12 21 9 -8 16
-25 16 -38z"/>
<path d="M750 3012 c0 -6 -2 -16 -5 -24 -3 -8 6 -18 25 -25 29 -11 29 -10 18
10 -14 28 -38 51 -38 39z"/>
<path d="M1193 2755 c-16 -36 -18 -45 -6 -45 17 0 48 69 36 81 -5 5 -18 -10
-30 -36z"/>
<path d="M4337 2002 c-12 -11 -20 -13 -25 -6 -10 15 -80 -7 -75 -23 3 -7 0
-13 -5 -13 -6 0 -12 5 -14 11 -6 17 -78 2 -78 -15 0 -18 48 -30 64 -17 7 6 16
8 19 5 9 -9 157 28 151 38 -4 5 -12 7 -20 4 -8 -3 -14 -1 -14 3 0 5 6 11 13
14 6 2 9 7 6 10 -3 4 -13 -1 -22 -11z"/>
<path d="M4035 1943 c-33 -8 -62 -18 -65 -22 -3 -4 -19 -8 -36 -8 -53 0 -123
-23 -117 -39 3 -8 1 -14 -5 -14 -6 0 -12 6 -14 12 -4 10 -15 10 -54 1 -27 -7
-84 -20 -126 -29 -43 -10 -78 -21 -78 -24 0 -4 -11 -5 -25 -2 -32 6 -32 -11
-1 -27 20 -11 39 -10 122 9 55 13 104 25 110 27 6 2 15 -6 18 -19 l7 -23 10
26 c13 36 54 57 80 41 11 -7 19 -8 19 -2 0 5 7 10 16 10 14 0 14 3 4 15 -7 9
-10 19 -6 23 4 4 12 -1 18 -12 8 -14 17 -17 46 -11 20 4 41 10 47 13 5 3 16 7
25 7 8 1 38 7 67 14 51 12 51 13 32 32 -10 10 -22 19 -26 18 -5 -1 -35 -8 -68
-16z m-20 -23 c3 -5 1 -10 -4 -10 -6 0 -11 5 -11 10 0 6 2 10 4 10 3 0 8 -4
11 -10z m-60 -38 c-7 -8 -35 7 -35 18 0 6 7 6 20 -2 10 -7 17 -14 15 -16z
m-200 -32 c3 -5 1 -10 -4 -10 -6 0 -11 5 -11 10 0 6 2 10 4 10 3 0 8 -4 11
-10z"/>
<path d="M4375 1823 c-3 -21 -9 -48 -11 -59 -4 -13 0 -23 10 -27 12 -5 15 2
13 36 -1 23 2 52 6 65 5 13 4 22 -1 22 -5 0 -13 -17 -17 -37z"/>
<path d="M3829 1828 c-19 -15 -73 -173 -65 -187 4 -5 -2 -12 -11 -14 -17 -4
-17 -5 0 -6 9 0 17 -8 17 -17 0 -37 26 -2 55 77 38 99 50 143 36 135 -5 -4
-11 1 -13 9 -2 13 -6 14 -19 3z m-29 -148 c0 -5 -4 -10 -10 -10 -5 0 -10 5
-10 10 0 6 5 10 10 10 6 0 10 -4 10 -10z"/>
<path d="M3732 1735 c-24 -62 -27 -85 -12 -85 12 0 24 45 15 59 -3 6 -2 11 3
11 14 0 34 52 24 62 -5 5 -18 -14 -30 -47z"/>
<path d="M4355 1717 c-8 -19 -2 -31 13 -26 5 2 6 13 2 24 -7 19 -8 19 -15 2z"/>
<path d="M4330 1633 c-7 -27 -12 -54 -11 -60 1 -7 -3 -13 -9 -13 -5 0 -10 -7
-10 -15 0 -18 -62 -169 -102 -249 -21 -42 -26 -62 -19 -69 8 -8 11 -7 11 2 0
7 9 24 20 38 11 14 20 36 20 49 0 13 4 24 10 24 5 0 7 7 4 15 -4 8 -1 15 5 15
16 0 45 60 29 60 -8 1 -7 5 5 14 9 7 17 23 17 35 0 11 5 21 11 21 5 0 8 4 4 9
-3 5 0 13 6 16 5 4 8 13 5 21 -3 8 -1 14 5 14 5 0 7 11 3 26 -5 21 -4 25 6 19
9 -6 12 -4 8 6 -3 8 0 23 8 34 18 24 18 35 0 35 -8 0 -19 -20 -26 -47z"/>
<path d="M3645 1544 c-27 -53 -78 -132 -111 -177 -84 -111 -252 -271 -329
-312 -36 -19 -53 -40 -42 -51 9 -9 117 68 117 84 0 8 3 12 6 9 10 -10 44 12
44 28 0 8 6 12 13 9 18 -7 159 143 230 243 62 88 137 223 137 247 0 33 -17 13
-65 -80z"/>
<path d="M3692 1518 c-40 -76 -41 -82 -27 -105 17 -26 10 -30 -15 -8 -15 14
-20 11 -48 -32 -38 -59 -135 -171 -180 -208 -28 -24 -32 -32 -27 -59 6 -29 5
-30 -9 -12 -15 18 -18 17 -88 -36 -40 -30 -83 -60 -96 -67 -18 -10 -20 -15
-12 -31 12 -22 1 -27 -18 -8 -8 8 -32 1 -96 -30 -47 -23 -97 -47 -110 -52 -17
-6 -24 -14 -20 -25 3 -8 2 -15 -4 -15 -6 0 -12 6 -15 13 -3 9 -20 7 -73 -10
-38 -11 -82 -24 -99 -28 -16 -4 -34 -12 -38 -18 -6 -9 -10 -9 -13 -1 -3 8 -16
9 -42 3 -20 -5 -98 -12 -172 -14 -74 -3 -134 -8 -132 -10 1 -3 2 -14 2 -25 0
-19 7 -20 103 -20 135 0 177 7 169 29 -4 12 -3 14 9 5 8 -5 31 -11 52 -13 32
-2 37 0 37 20 0 20 1 21 18 7 15 -15 24 -14 87 2 39 11 74 19 78 19 5 1 5 11
2 24 -7 21 -6 21 10 6 16 -16 22 -15 84 11 116 48 123 52 118 72 -6 20 4 23
20 7 9 -9 25 -3 64 21 29 17 59 38 66 46 8 8 18 14 22 14 5 0 48 34 97 76 145
124 249 251 338 413 44 79 45 85 30 103 -10 10 -20 18 -23 18 -3 0 -25 -37
-49 -82z m-88 -204 c9 -24 7 -27 -9 -10 -17 17 -19 26 -6 26 5 0 12 -7 15 -16z
m-139 -164 c3 -5 2 -10 -4 -10 -5 0 -13 5 -16 10 -3 6 -2 10 4 10 5 0 13 -4
16 -10z m-745 -390 c0 -5 -4 -10 -10 -10 -5 0 -10 5 -10 10 0 6 5 10 10 10 6
0 10 -4 10 -10z m-310 -21 c0 -5 -4 -9 -10 -9 -5 0 -10 7 -10 16 0 8 5 12 10
9 6 -3 10 -10 10 -16z m70 1 c0 -5 -4 -10 -10 -10 -5 0 -10 5 -10 10 0 6 5 10
10 10 6 0 10 -4 10 -10z"/>
<path d="M3851 1563 c-10 -21 -9 -29 1 -38 7 -7 52 -48 100 -93 52 -48 94 -79
102 -76 15 6 51 -25 41 -35 -4 -3 -13 3 -21 13 -7 11 -16 17 -19 15 -3 -3 8
-18 24 -33 32 -30 56 -27 45 6 -4 13 -2 18 4 14 13 -8 23 6 14 20 -4 5 -19 17
-33 26 -20 12 -29 14 -38 5 -8 -8 -11 -8 -11 0 0 6 -34 45 -75 85 -54 53 -78
71 -87 63 -8 -7 -9 -5 -5 8 4 11 1 25 -7 33 -19 19 -21 18 -35 -13z"/>
<path d="M3110 1499 c-19 -16 -41 -27 -50 -24 -8 2 -28 7 -45 11 -29 6 -29 6
-10 -9 11 -9 15 -17 8 -17 -8 0 -8 -7 0 -29 9 -24 7 -33 -11 -59 -12 -16 -22
-33 -22 -36 0 -12 58 -6 63 7 3 7 21 -5 47 -33 23 -25 39 -37 36 -27 -3 9 -2
17 3 17 5 0 11 13 14 29 5 24 14 32 47 42 22 7 40 15 40 18 0 4 -16 15 -35 25
-34 19 -42 32 -47 88 l-3 26 -35 -29z m58 -95 c-10 -10 -28 6 -28 24 0 15 1
15 17 -1 9 -9 14 -19 11 -23z"/>
<path d="M2155 1501 c-11 -5 -50 -14 -87 -21 -65 -12 -66 -13 -56 -35 9 -20
16 -23 42 -18 17 3 39 14 49 25 14 14 22 16 32 8 13 -11 65 -4 65 9 0 20 -26
39 -45 32z"/>
<path d="M1943 1452 c-13 -2 -23 -10 -23 -18 0 -8 -4 -14 -10 -14 -5 0 -10 5
-10 10 0 6 -4 10 -10 10 -5 0 -7 -7 -4 -15 4 -8 2 -15 -4 -15 -6 0 -12 5 -14
11 -3 8 -50 0 -153 -25 -83 -21 -163 -40 -180 -42 -16 -2 -43 -8 -60 -13 -16
-5 -75 -19 -130 -31 -55 -13 -101 -24 -103 -25 -2 -2 2 -12 9 -23 10 -15 20
-19 39 -16 21 5 34 -3 71 -43 25 -27 51 -47 58 -45 6 2 9 -2 7 -10 -7 -20 185
-178 270 -221 20 -10 35 -12 45 -6 20 13 29 11 29 -6 0 -9 -6 -12 -15 -9 -35
14 -11 -8 35 -31 53 -27 64 -30 55 -16 -3 6 3 9 14 8 10 0 17 -7 14 -13 -6
-15 82 -55 102 -48 8 4 15 1 15 -5 0 -6 7 -11 16 -11 11 0 14 8 12 27 -2 22
-12 29 -55 44 -104 35 -265 126 -398 224 -56 42 -190 183 -181 192 3 4 30 -17
59 -45 29 -29 58 -52 65 -52 7 0 12 -4 12 -10 0 -35 217 -183 364 -247 103
-46 136 -55 136 -40 0 7 -28 23 -62 36 -35 13 -77 32 -95 41 -22 13 -33 15
-36 7 -2 -7 -9 -2 -16 11 -6 12 -16 22 -22 22 -36 0 -349 252 -349 281 0 5 11
9 25 9 14 0 25 3 25 8 0 4 16 8 36 10 20 1 88 15 152 31 64 16 160 38 213 50
87 20 96 24 92 42 -6 23 -11 26 -40 21z m-208 -72 c3 -5 1 -10 -4 -10 -6 0
-11 5 -11 10 0 6 2 10 4 10 3 0 8 -4 11 -10z m-165 -50 c0 -5 -4 -10 -10 -10
-5 0 -10 5 -10 10 0 6 5 10 10 10 6 0 10 -4 10 -10z m-185 -120 c3 -5 1 -10
-4 -10 -6 0 -11 5 -11 10 0 6 2 10 4 10 3 0 8 -4 11 -10z"/>
<path d="M3780 1425 c-27 -43 -25 -55 8 -55 48 0 206 -32 229 -46 34 -21 41
-17 13 9 -14 13 -38 27 -52 30 -15 4 -40 21 -55 37 -15 16 -49 36 -75 44 l-48
14 -20 -33z"/>
<path d="M2707 1318 l-49 -41 -60 17 c-62 17 -86 14 -56 -8 10 -7 15 -15 13
-18 -3 -3 2 -21 10 -42 16 -38 11 -59 -20 -96 -8 -8 -15 -22 -17 -30 -2 -8 -7
-18 -13 -22 -5 -4 0 -8 12 -8 17 0 21 4 16 17 -5 13 -3 15 13 8 10 -5 31 -9
47 -10 15 -2 31 -3 36 -4 5 0 28 -25 52 -53 36 -46 41 -49 35 -25 -4 18 -3 26
3 22 6 -3 13 7 16 22 3 15 12 41 20 56 8 15 11 25 5 22 -5 -3 -11 -1 -14 4 -8
12 30 21 41 10 8 -8 68 5 82 18 10 8 -35 32 -51 27 -12 -3 -18 0 -18 9 0 8
-11 22 -25 31 -17 11 -24 23 -21 34 3 9 2 36 -2 59 l-7 43 -48 -42z m13 -58
c0 -5 -4 -10 -10 -10 -5 0 -10 5 -10 10 0 6 5 10 10 10 6 0 10 -4 10 -10z
m-140 -10 c0 -5 -2 -10 -4 -10 -3 0 -8 5 -11 10 -3 6 -1 10 4 10 6 0 11 -4 11
-10z m104 -15 c20 -30 20 -35 1 -35 -8 0 -15 7 -15 16 0 9 -6 14 -12 11 -7 -2
-12 -10 -10 -16 3 -17 -18 -13 -25 4 -3 9 2 22 13 30 26 19 29 19 48 -10z
m-76 -23 c6 -18 -15 -14 -22 4 -4 10 -1 14 6 12 6 -2 14 -10 16 -16z m112 -92
c0 -14 -14 -12 -28 2 -19 19 -14 30 8 18 11 -6 20 -15 20 -20z m-64 -9 c2 -28
-20 -21 -24 8 -3 16 1 22 10 19 7 -3 14 -15 14 -27z m64 -47 c0 -8 -4 -12 -10
-9 -5 3 -10 10 -10 16 0 5 5 9 10 9 6 0 10 -7 10 -16z"/>
<path d="M2238 1300 c-29 -24 -43 -29 -63 -24 -24 6 -26 5 -20 -22 6 -28 6
-28 -9 -10 -9 11 -16 26 -16 33 0 7 -5 13 -10 13 -6 0 -1 -18 10 -41 l21 -41
-26 -40 -27 -41 46 5 c44 5 49 4 74 -28 32 -41 42 -43 42 -8 0 37 15 60 50 74
37 16 38 23 1 50 -24 17 -30 29 -33 66 l-3 45 -37 -31z m-24 -122 c-5 -8 -10
-5 -14 8 -10 25 0 41 12 20 5 -9 6 -21 2 -28z m106 12 c0 -5 -7 -10 -15 -10
-8 0 -15 5 -15 10 0 6 7 10 15 10 8 0 15 -4 15 -10z m-80 -60 c0 -5 -4 -10
-10 -10 -5 0 -10 5 -10 10 0 6 5 10 10 10 6 0 10 -4 10 -10z"/>
<path d="M3656 1243 l-68 -86 23 -18 c31 -24 35 -23 53 3 l15 21 35 -26 c19
-15 42 -27 50 -27 9 0 16 -6 16 -12 0 -7 16 -24 36 -38 19 -14 49 -37 66 -52
l32 -26 28 35 c15 20 28 39 28 43 0 5 -23 25 -51 47 -28 21 -72 54 -97 73 -25
19 -43 29 -39 22 5 -6 3 -12 -2 -12 -10 0 -15 14 -12 33 0 4 -3 7 -9 7 -15 0
-12 26 4 39 12 10 11 16 -9 36 -12 14 -24 25 -27 25 -2 0 -35 -39 -72 -87z
m24 -33 c0 -5 -4 -10 -10 -10 -5 0 -10 5 -10 10 0 6 5 10 10 10 6 0 10 -4 10
-10z m0 -30 c0 -5 -4 -10 -10 -10 -5 0 -10 5 -10 10 0 6 5 10 10 10 6 0 10 -4
10 -10z m230 -100 c0 -5 -4 -10 -10 -10 -5 0 -10 5 -10 10 0 6 5 10 10 10 6 0
10 -4 10 -10z m-50 -10 c0 -5 7 -10 15 -10 8 0 15 -4 15 -10 0 -13 -11 -12
-32 4 -20 15 -23 26 -8 26 6 0 10 -4 10 -10z"/>
<path d="M4126 1167 c-50 -89 -166 -237 -279 -354 -74 -77 -104 -114 -96 -119
19 -11 230 212 222 234 -3 9 -3 14 2 10 11 -11 36 12 28 25 -3 5 -2 7 4 4 16
-10 177 228 167 245 -10 16 -20 7 -48 -45z"/>
<path d="M3487 1062 l-57 -57 33 -36 c91 -103 119 -129 129 -123 7 4 8 3 4 -4
-8 -14 32 -61 62 -73 14 -5 20 -14 16 -21 -4 -7 -3 -8 5 -4 6 4 8 12 5 18 -4
7 -2 8 4 4 16 -10 62 33 55 52 -5 11 -2 14 9 9 9 -3 24 3 34 14 17 18 16 20
-6 44 l-24 25 -29 -27 c-19 -18 -31 -24 -34 -16 -2 7 -11 9 -20 6 -11 -4 -14
-3 -9 6 4 6 2 19 -5 27 -10 12 -8 19 11 39 13 14 18 25 12 25 -7 0 -12 6 -12
14 0 26 -21 29 -45 6 l-23 -21 -28 26 -29 27 29 24 28 25 -23 25 c-12 13 -25
24 -29 24 -3 0 -31 -26 -63 -58z m19 -79 c5 -10 20 -35 33 -55 14 -24 18 -36
9 -33 -12 5 -68 88 -68 100 0 12 16 3 26 -12z m34 13 c0 -3 -4 -8 -10 -11 -5
-3 -10 -1 -10 4 0 6 5 11 10 11 6 0 10 -2 10 -4z m30 -46 c0 -5 -5 -10 -11
-10 -5 0 -7 5 -4 10 3 6 8 10 11 10 2 0 4 -4 4 -10z m153 -153 c-7 -11 -23 12
-23 33 1 12 4 11 15 -4 8 -10 12 -23 8 -29z m-78 13 c3 -5 1 -10 -4 -10 -6 0
-11 5 -11 10 0 6 2 10 4 10 3 0 8 -4 11 -10z"/>
<path d="M1373 894 c-129 -169 -125 -160 -83 -195 l35 -30 32 38 c18 21 38 49
45 63 7 14 13 26 14 28 1 2 14 -8 29 -22 l27 -26 21 27 21 26 -27 21 -26 21
23 30 23 29 29 -23 29 -22 17 21 c10 12 18 26 18 30 0 15 -114 100 -134 100
-3 0 -45 -52 -93 -116z m87 76 c0 -5 -4 -10 -10 -10 -5 0 -10 5 -10 10 0 6 5
10 10 10 6 0 10 -4 10 -10z m-14 -57 c-10 -10 -19 5 -10 18 6 11 8 11 12 0 2
-7 1 -15 -2 -18z m-10 -50 c-10 -10 -19 5 -10 18 6 11 8 11 12 0 2 -7 1 -15
-2 -18z m4 -32 c0 -6 -4 -13 -10 -16 -5 -3 -10 1 -10 9 0 9 5 16 10 16 6 0 10
-4 10 -9z m-70 -52 c0 -14 -17 -10 -23 5 -4 10 -1 13 9 9 7 -3 14 -9 14 -14z"/>
<path d="M3088 984 c-16 -8 -28 -19 -28 -24 0 -5 -6 -7 -14 -4 -16 6 -31 -12
-18 -20 13 -8 113 44 106 55 -7 12 -14 11 -46 -7z"/>
<path d="M3362 958 c-7 -7 -12 -19 -12 -27 0 -12 -2 -13 -8 -4 -10 16 -92 -41
-92 -64 0 -13 153 -256 180 -286 4 -5 26 3 49 18 43 29 52 38 26 29 -8 -4 -15
-1 -15 5 0 6 5 11 10 11 6 0 -7 25 -27 56 -36 54 -37 57 -18 70 10 8 22 14 27
14 13 0 9 13 -12 38 -18 22 -21 23 -42 8 -30 -21 -31 -21 -53 16 -12 22 -15
33 -7 36 7 2 21 11 31 20 20 17 20 17 -2 45 -18 21 -26 24 -35 15z m88 -258
c0 -5 -4 -10 -10 -10 -5 0 -10 5 -10 10 0 6 5 10 10 10 6 0 10 -4 10 -10z"/>
<path d="M2980 924 c0 -12 -3 -14 -13 -6 -10 8 -21 6 -43 -7 -16 -10 -46 -21
-67 -25 -21 -4 -37 -13 -37 -21 0 -11 7 -11 38 -3 20 5 42 14 48 19 6 5 14 6
17 2 4 -3 7 2 7 12 0 14 3 16 11 8 9 -9 19 -8 40 3 31 16 38 34 14 34 -8 0
-15 -7 -15 -16z"/>
<path d="M2050 870 c-8 -6 -12 -10 -9 -10 3 0 41 -9 84 -20 57 -15 81 -17 86
-9 5 8 13 7 30 -5 26 -18 94 -23 84 -6 -4 6 -10 8 -15 5 -4 -3 -26 2 -49 10
-23 8 -48 12 -55 9 -8 -3 -17 -1 -21 5 -3 6 -13 11 -21 11 -9 0 -12 -5 -8 -11
4 -8 -1 -9 -17 -4 -13 4 -27 13 -31 19 -4 6 -10 7 -14 3 -4 -4 -12 -3 -18 3
-7 5 -17 5 -26 0z"/>
<path d="M2750 861 c-22 -6 -23 -8 -7 -14 31 -12 57 -8 57 8 0 16 -10 17 -50
6z"/>
<path d="M3876 761 c-72 -72 -95 -102 -90 -114 5 -14 9 -15 20 -6 11 9 14 8
14 -3 0 -19 -38 -18 -49 1 -7 10 -21 3 -65 -33 -106 -86 -234 -165 -385 -238
-149 -72 -151 -73 -146 -102 4 -23 3 -26 -9 -17 -7 6 -21 9 -30 5 -11 -4 -16
-1 -16 11 0 12 -5 15 -17 10 -38 -15 -184 -55 -223 -61 -33 -5 -38 -9 -29 -21
7 -7 9 -17 5 -21 -4 -4 -14 1 -21 12 -13 17 -20 17 -78 7 -35 -6 -78 -11 -95
-11 -22 0 -32 -5 -32 -15 0 -8 -4 -15 -10 -15 -5 0 -10 5 -10 10 0 6 -55 10
-146 10 l-146 0 6 -25 c5 -19 3 -23 -9 -19 -8 4 -15 14 -15 24 0 15 -10 20
-47 25 -132 17 -198 29 -308 57 -66 17 -142 39 -168 49 -26 11 -50 19 -52 19
-3 0 -5 -27 -5 -60 0 -71 -12 -63 178 -116 236 -64 540 -88 774 -61 70 9 133
19 140 23 7 5 25 7 39 6 15 -2 33 4 41 12 9 9 19 11 25 5 8 -8 254 59 269 74
3 3 1 14 -5 25 -8 15 -7 23 4 32 12 10 16 8 25 -14 5 -14 14 -26 19 -26 15 0
168 68 231 103 169 93 360 230 360 259 0 14 5 18 18 14 24 -8 198 165 189 188
-8 20 13 33 24 15 5 -8 9 -9 9 -4 0 15 -31 49 -61 67 l-26 16 -97 -97z m-66
-179 c0 -13 -12 -22 -22 -16 -10 6 -1 24 13 24 5 0 9 -4 9 -8z m-76 -48 c9
-22 -3 -32 -14 -14 -12 19 -12 30 -1 30 5 0 12 -7 15 -16z m-109 -64 c3 -5 2
-10 -4 -10 -5 0 -13 5 -16 10 -3 6 -2 10 4 10 5 0 13 -4 16 -10z m-5 -30 c0
-5 -4 -10 -10 -10 -5 0 -10 5 -10 10 0 6 5 10 10 10 6 0 10 -4 10 -10z m-80
-30 c0 -5 -4 -10 -10 -10 -5 0 -10 5 -10 10 0 6 5 10 10 10 6 0 10 -4 10 -10z
m-400 -206 c0 -8 -4 -12 -10 -9 -5 3 -10 10 -10 16 0 5 5 9 10 9 6 0 10 -7 10
-16z m-160 -15 c0 -11 -27 -12 -34 0 -3 4 -3 11 0 14 8 8 34 -3 34 -14z
m-1120 -11 c0 -19 -2 -20 -10 -8 -13 19 -13 30 0 30 6 0 10 -10 10 -22z m915
-8 c-3 -5 -11 -10 -16 -10 -6 0 -7 5 -4 10 3 6 11 10 16 10 6 0 7 -4 4 -10z
m35 -16 c0 -8 -4 -14 -10 -14 -5 0 -10 9 -10 21 0 11 5 17 10 14 6 -3 10 -13
10 -21z m120 16 c0 -5 -4 -10 -10 -10 -5 0 -10 5 -10 10 0 6 5 10 10 10 6 0
10 -4 10 -10z m-834 -14 c15 -16 18 -26 6 -26 -4 0 -13 9 -20 20 -14 23 -7 26
14 6z m-161 -6 c3 -5 1 -10 -4 -10 -6 0 -11 5 -11 10 0 6 2 10 4 10 3 0 8 -4
11 -10z m85 -16 c0 -2 -7 -4 -15 -4 -8 0 -15 4 -15 10 0 5 7 7 15 4 8 -4 15
-8 15 -10z m206 -6 c-10 -6 -20 -7 -24 -3 -9 8 20 25 31 18 5 -3 2 -10 -7 -15z
m324 2 c0 -5 -4 -10 -10 -10 -5 0 -10 5 -10 10 0 6 5 10 10 10 6 0 10 -4 10
-10z m66 -35 c-1 -20 -3 -22 -15 -11 -7 8 -10 19 -7 25 12 19 24 12 22 -14z
m-326 5 c0 -5 -4 -10 -10 -10 -5 0 -10 5 -10 10 0 6 5 10 10 10 6 0 10 -4 10
-10z m48 -8 c6 -18 -15 -14 -22 4 -4 10 -1 14 6 12 6 -2 14 -10 16 -16z m72 2
c0 -8 -4 -12 -10 -9 -5 3 -10 10 -10 16 0 5 5 9 10 9 6 0 10 -7 10 -16z m150
0 c0 -8 -4 -12 -10 -9 -5 3 -10 10 -10 16 0 5 5 9 10 9 6 0 10 -7 10 -16z
m100 1 c0 -12 -19 -12 -23 0 -4 9 -1 12 9 8 7 -3 14 -7 14 -8z m145 5 c3 -5 1
-10 -4 -10 -6 0 -11 5 -11 10 0 6 2 10 4 10 3 0 8 -4 11 -10z"/>
<path d="M1679 829 c30 -25 20 -37 -13 -16 -22 15 -25 15 -39 -1 -8 -9 -36
-60 -61 -112 -47 -96 -52 -132 -23 -168 19 -23 85 -52 120 -52 38 0 47 15 47
77 0 36 9 63 20 63 10 0 1 -78 -12 -102 -6 -12 -5 -18 2 -18 6 0 36 51 66 114
53 108 56 116 44 150 -15 46 -79 86 -136 86 l-39 -1 24 -20z m71 -60 c0 -19
-111 -229 -121 -229 -20 0 -20 30 -1 67 74 139 95 173 108 173 8 0 14 -5 14
-11z m-90 -31 c0 -19 -2 -20 -10 -8 -13 19 -13 30 0 30 6 0 10 -10 10 -22z
m150 -8 c0 -5 -9 -10 -20 -10 -11 0 -20 5 -20 10 0 6 9 10 20 10 11 0 20 -4
20 -10z m-68 -65 c-5 -16 -11 -25 -14 -20 -9 15 3 68 13 58 5 -5 5 -22 1 -38z
m-122 15 c0 -5 -4 -10 -10 -10 -5 0 -10 5 -10 10 0 6 5 10 10 10 6 0 10 -4 10
-10z m-50 -70 c0 -5 -7 -10 -15 -10 -8 0 -15 5 -15 10 0 6 7 10 15 10 8 0 15
-4 15 -10z"/>
<path d="M2696 834 c-5 -12 -2 -15 10 -10 8 3 21 6 27 6 7 0 6 4 -3 10 -21 14
-27 12 -34 -6z"/>
<path d="M2600 831 c-14 -3 -76 -6 -137 -6 -89 0 -113 -3 -113 -14 0 -11 22
-12 123 -7 67 3 132 6 144 6 12 0 25 5 28 10 4 6 11 8 16 5 5 -4 9 -1 9 4 0
12 -32 13 -70 2z"/>
<path d="M941 818 c0 -10 -8 -38 -17 -64 l-16 -47 44 -43 c43 -43 73 -60 47
-26 -13 15 -12 16 3 3 10 -7 15 -17 12 -23 -6 -10 35 -46 51 -44 5 0 9 7 7 14
-4 18 18 15 25 -4 3 -9 0 -20 -8 -24 -14 -9 -9 -14 94 -93 115 -87 431 -260
492 -269 18 -3 20 2 19 54 l-1 57 -129 65 c-71 35 -157 83 -191 105 -36 23
-69 38 -78 35 -10 -4 -13 -2 -10 8 7 18 -41 52 -68 50 -12 0 -17 4 -13 13 2 7
-6 21 -19 29 -13 9 -67 57 -120 107 -52 50 -95 86 -95 80 0 -20 -19 -11 -23
12 -3 14 -5 16 -6 5z m49 -38 c0 -5 -4 -10 -10 -10 -5 0 -10 5 -10 10 0 6 5
10 10 10 6 0 10 -4 10 -10z m91 -140 c14 -11 18 -19 11 -20 -19 0 -52 19 -52
30 0 16 16 12 41 -10z m59 -70 c0 -5 -4 -10 -10 -10 -5 0 -10 5 -10 10 0 6 5
10 10 10 6 0 10 -4 10 -10z m54 -6 c10 -25 1 -27 -19 -4 -15 17 -16 20 -3 20
9 0 19 -7 22 -16z m74 -43 c3 -8 -1 -12 -9 -9 -7 2 -15 10 -17 17 -3 8 1 12 9
9 7 -2 15 -10 17 -17z m372 -281 c0 -5 -7 -10 -15 -10 -8 0 -15 5 -15 10 0 6
7 10 15 10 8 0 15 -4 15 -10z m35 0 c3 -5 -1 -10 -9 -10 -9 0 -16 5 -16 10 0
6 4 10 9 10 6 0 13 -4 16 -10z"/>
<path d="M2040 802 c0 -28 2 -29 83 -45 45 -9 89 -16 97 -16 8 0 28 -3 44 -7
25 -6 28 -4 23 10 -4 9 -2 16 3 16 5 0 12 -10 15 -21 6 -17 9 -19 16 -8 23 37
11 45 -83 59 -51 7 -113 19 -138 26 -60 18 -60 18 -60 -14z m140 -32 c0 -5 -4
-10 -10 -10 -5 0 -10 5 -10 10 0 6 5 10 10 10 6 0 10 -4 10 -10z"/>
<path d="M3077 793 c-25 -10 -36 -20 -33 -29 3 -8 1 -14 -4 -14 -6 0 -10 4
-10 10 0 5 -6 7 -14 4 -17 -6 -4 -89 18 -113 8 -9 20 -29 25 -45 10 -24 9 -27
-3 -23 -10 4 -13 1 -10 -8 3 -8 12 -11 20 -8 8 3 14 1 14 -5 0 -6 3 -19 7 -29
6 -16 5 -17 -12 -3 -16 14 -17 13 -12 -5 3 -11 11 -43 18 -71 l12 -51 49 21
c49 20 51 25 34 67 -13 30 25 33 48 4 l21 -26 42 18 c24 10 43 21 43 25 0 4
-7 5 -16 1 -13 -5 -15 -2 -9 16 7 24 -17 61 -41 61 -7 0 -16 5 -20 12 -5 8 -2
9 10 5 22 -9 23 -11 -53 106 -35 53 -69 97 -75 96 -6 0 -28 -7 -49 -16z m33
-53 c0 -5 -2 -10 -4 -10 -3 0 -8 5 -11 10 -3 6 -1 10 4 10 6 0 11 -4 11 -10z
m50 -40 c0 -11 -4 -20 -10 -20 -5 0 -10 9 -10 20 0 11 5 20 10 20 6 0 10 -9
10 -20z m-15 -52 c41 -82 40 -80 15 -76 -19 2 -26 15 -41 68 -10 36 -18 66
-19 68 0 1 3 2 8 1 4 0 21 -27 37 -61z m-61 6 c9 -22 -3 -32 -14 -14 -12 19
-12 30 -1 30 5 0 12 -7 15 -16z m137 -55 c5 -11 7 -19 3 -19 -11 0 -44 32 -44
41 0 14 30 -2 41 -22z m39 -80 c0 -11 -4 -17 -10 -14 -5 3 -10 13 -10 21 0 8
5 14 10 14 6 0 10 -9 10 -21z m-90 -54 c8 -9 8 -15 2 -15 -18 0 -42 12 -42 21
0 14 26 10 40 -6z m-45 -15 c3 -5 1 -10 -4 -10 -6 0 -11 5 -11 10 0 6 2 10 4
10 3 0 8 -4 11 -10z"/>
<path d="M1964 716 c-31 -14 -49 -45 -63 -109 -7 -28 -5 -36 11 -46 11 -7 17
-15 14 -18 -3 -3 -12 0 -21 7 -17 14 -24 3 -29 -42 -1 -13 -6 -29 -10 -36 -4
-7 -2 -28 4 -46 13 -41 84 -83 107 -64 9 7 13 7 13 -1 0 -6 7 -11 15 -11 8 0
15 9 15 20 0 11 5 20 10 20 6 0 10 -7 10 -16 0 -46 64 46 73 106 2 14 7 32 10
40 20 47 27 113 15 138 -26 52 -117 83 -174 58z m64 -21 c17 -21 19 -37 16
-122 -2 -54 -3 -104 -4 -110 0 -26 -20 -12 -21 15 0 21 -3 17 -15 -20 -9 -31
-20 -48 -30 -48 -20 0 -17 26 20 164 23 89 25 101 11 116 -8 9 -15 20 -15 23
0 15 20 6 38 -18z m52 -25 c0 -5 -4 -10 -10 -10 -5 0 -10 5 -10 10 0 6 5 10
10 10 6 0 10 -4 10 -10z m-150 -40 c0 -5 -5 -10 -11 -10 -5 0 -7 5 -4 10 3 6
8 10 11 10 2 0 4 -4 4 -10z m155 -10 c3 -5 2 -10 -4 -10 -5 0 -13 5 -16 10 -3
6 -2 10 4 10 5 0 13 -4 16 -10z m-45 -205 c0 -8 -4 -15 -10 -15 -5 0 -10 7
-10 15 0 8 5 15 10 15 6 0 10 -7 10 -15z"/>
<path d="M2820 703 c0 -5 -18 -8 -40 -8 -27 -1 -47 -8 -65 -25 -30 -28 -30
-33 -7 -56 16 -17 16 -18 -1 -11 -16 6 -18 3 -12 -26 9 -41 29 -60 85 -81 72
-28 90 -43 90 -77 0 -42 -31 -36 -44 8 -8 29 -12 32 -35 26 -38 -9 -68 -22
-53 -22 8 -1 10 -9 7 -24 -21 -84 158 -103 210 -23 15 23 16 33 5 74 -16 64
-34 82 -84 82 -23 0 -48 5 -56 10 -8 5 -11 10 -6 10 5 0 -1 11 -13 24 -24 25
-25 56 -4 63 7 3 18 -7 25 -22 15 -33 50 -30 58 5 l6 25 8 -22 c4 -13 12 -23
17 -23 25 0 -15 78 -46 90 -31 12 -45 13 -45 3z m-40 -114 c15 -28 4 -38 -15
-13 -17 22 -19 34 -5 34 5 0 14 -9 20 -21z m-40 -45 c0 -8 -4 -12 -10 -9 -5 3
-10 10 -10 16 0 5 5 9 10 9 6 0 10 -7 10 -16z m60 -14 c0 -5 -4 -10 -10 -10
-5 0 -10 5 -10 10 0 6 5 10 10 10 6 0 10 -4 10 -10z m84 -46 c8 -20 8 -24 -1
-24 -17 0 -35 19 -29 29 10 16 23 14 30 -5z m21 -74 c3 -5 1 -10 -4 -10 -6 0
-11 5 -11 10 0 6 2 10 4 10 3 0 8 -4 11 -10z"/>
<path d="M1176 684 c19 -15 19 -16 -1 -10 -16 5 -14 1 8 -19 16 -14 33 -23 38
-20 5 4 9 0 9 -7 1 -18 77 -71 91 -63 6 4 13 -2 16 -13 3 -13 11 -18 19 -15 9
3 14 -1 14 -12 0 -9 6 -15 12 -13 7 3 19 -4 28 -14 14 -17 263 -148 281 -148
5 0 9 6 9 13 -1 6 -44 32 -98 57 -109 51 -239 130 -324 196 -32 25 -58 40 -58
33 0 -8 -4 -8 -15 1 -9 7 -13 15 -10 18 7 7 -15 32 -28 32 -6 0 -2 -7 9 -16z"/>
<path d="M3720 692 c0 -5 -23 -24 -50 -43 -28 -19 -53 -42 -56 -52 -3 -9 -10
-15 -14 -12 -5 3 -33 -10 -61 -29 -39 -26 -47 -35 -32 -38 19 -4 73 29 172
107 62 48 69 59 51 70 -5 3 -10 2 -10 -3z"/>
<path d="M2244 655 c-8 -21 14 -45 33 -38 11 4 14 2 11 -8 -3 -8 -14 -13 -26
-13 -19 1 -21 -6 -26 -95 -4 -53 -8 -117 -11 -143 l-4 -46 47 -6 c61 -8 157
-5 172 4 30 19 40 155 13 177 -16 13 -16 14 -1 9 28 -8 29 22 1 44 -15 12 -20
20 -11 20 8 0 19 -5 26 -12 9 -9 12 -7 12 13 0 46 -12 68 -45 83 -43 21 -105
21 -105 1 0 -22 -17 -18 -23 5 -6 24 -55 28 -63 5z m133 -95 c-1 -33 3 -62 8
-64 6 -3 5 -8 -2 -13 -6 -4 -13 -35 -15 -68 -2 -50 -6 -61 -20 -61 -14 0 -18
8 -18 37 0 54 -11 99 -24 99 -7 0 -12 10 -13 21 -2 16 1 19 9 11 8 -8 15 -9
25 -1 16 14 17 41 2 56 -8 8 -5 13 10 18 12 3 21 11 21 16 0 5 4 9 9 9 5 0 9
-27 8 -60z m66 44 c17 -6 24 -34 9 -34 -5 0 -19 12 -33 26 -13 15 -17 24 -9
20 8 -3 23 -9 33 -12z m-13 -174 c0 -5 -4 -10 -9 -10 -6 0 -13 5 -16 10 -3 6
1 10 9 10 9 0 16 -4 16 -10z m-162 -59 c3 -8 -1 -12 -9 -9 -7 2 -15 10 -17 17
-3 8 1 12 9 9 7 -2 15 -10 17 -17z m47 -1 c3 -5 1 -10 -4 -10 -6 0 -11 5 -11
10 0 6 2 10 4 10 3 0 8 -4 11 -10z m105 -30 c0 -5 -4 -10 -10 -10 -5 0 -10 5
-10 10 0 6 5 10 10 10 6 0 10 -4 10 -10z"/>
<path d="M3433 489 c-18 -12 -33 -25 -33 -30 0 -4 -6 -6 -14 -3 -8 3 -21 -4
-29 -16 -9 -12 -20 -19 -26 -16 -11 7 -81 -23 -81 -35 0 -4 4 -10 8 -13 11 -6
225 107 224 119 -1 17 -16 15 -49 -6z"/>
<path d="M3183 368 c-19 -9 -33 -38 -19 -38 15 0 85 38 79 43 -9 10 -34 7 -60
-5z"/>
<path d="M1716 354 c-3 -8 0 -17 7 -19 6 -2 45 -15 85 -29 41 -15 78 -24 83
-21 4 3 20 -1 33 -10 14 -9 33 -15 43 -13 10 1 24 -1 31 -6 13 -8 30 -1 20 9
-11 12 -211 66 -224 61 -7 -3 -17 1 -21 8 -5 7 -18 18 -30 24 -17 9 -22 9 -27
-4z"/>
<path d="M2980 298 c-74 -21 -155 -42 -180 -44 -25 -3 -72 -9 -105 -14 -33 -6
-79 -10 -102 -10 -41 0 -55 -11 -33 -25 14 -8 237 21 340 45 105 25 240 71
240 82 0 12 -15 9 -160 -34z"/>
<path d="M2040 254 c0 -15 42 -26 51 -13 4 8 9 8 14 -1 4 -6 13 -9 21 -6 8 3
14 1 14 -3 0 -5 18 -11 40 -13 24 -2 40 1 40 7 0 6 -40 18 -90 26 -69 12 -90
13 -90 3z"/>
<path d="M2241 223 c0 -12 2 -13 6 -5 4 10 8 9 18 -5 11 -14 16 -15 28 -5 9 8
18 9 21 3 8 -13 218 -9 223 4 2 6 -44 11 -123 12 -69 1 -137 4 -150 7 -19 5
-24 2 -23 -11z"/>
</g>
</svg>
