<?xml version="1.0" encoding="iso-8859-1"?>
<!-- Generator: Adobe Illustrator 19.0.0, SVG Export Plug-In . SVG Version: 6.00 Build 0)  -->
<svg version="1.1" id="Capa_1" xmlns="http://www.w3.org/2000/svg" xmlns:xlink="http://www.w3.org/1999/xlink" x="0px" y="0px"
	 viewBox="0 0 512 512" style="enable-background:new 0 0 512 512;" xml:space="preserve">
<path style="fill:#A6D5FA;" d="M332.8,443.733V384H8.533v59.733c0,32.99,26.743,59.733,59.733,59.733l0,0h324.267
	C359.543,503.467,332.8,476.723,332.8,443.733L332.8,443.733z"/>
<path style="fill:#B7E5FF;" d="M187.733,8.533C154.743,8.533,128,35.277,128,68.267V384h204.8v59.733
	c0,32.99,26.743,59.733,59.733,59.733s59.733-26.743,59.733-59.733l0,0V68.267c0-32.99,26.743-59.733,59.733-59.733H187.733z"/>
<path d="M187.733,0c-37.683,0.043-68.224,30.583-68.267,68.267v307.2H8.533C3.823,375.467,0,379.29,0,384v59.733
	C0.043,481.417,30.583,511.957,68.267,512h332.8v-0.529c34.108-4.343,59.691-33.348,59.733-67.738V68.267
	c0.034-28.262,22.938-51.166,51.2-51.2V0H187.733z M68.267,494.933c-28.262-0.034-51.166-22.938-51.2-51.2v-51.2h307.2v51.2
	c-0.009,19.601,8.431,38.263,23.159,51.2H68.267z M443.733,68.267v375.467c0,28.279-22.921,51.2-51.2,51.2s-51.2-22.921-51.2-51.2
	V384c0-4.71-3.823-8.533-8.533-8.533H136.533v-307.2c0.034-28.262,22.938-51.166,51.2-51.2h279.262
	C452.224,29.986,443.742,48.649,443.733,68.267z"/>
<rect x="204.8" y="34.133" width="170.667" height="17.067"/>
<rect x="153.6" y="68.267" width="273.067" height="17.067"/>
<rect x="170.667" y="119.467" width="85.333" height="17.067"/>
<rect x="170.667" y="153.6" width="68.267" height="17.067"/>
<rect x="170.667" y="187.733" width="102.4" height="17.067"/>
<rect x="170.667" y="221.867" width="51.2" height="17.067"/>
<rect x="170.667" y="256" width="85.333" height="17.067"/>
<rect x="375.467" y="119.467" width="34.133" height="17.067"/>
<rect x="375.467" y="153.6" width="34.133" height="17.067"/>
<rect x="375.467" y="187.733" width="34.133" height="17.067"/>
<rect x="375.467" y="221.867" width="34.133" height="17.067"/>
<rect x="375.467" y="256" width="34.133" height="17.067"/>
<path d="M401.067,341.333v-17.067H384v17.067c-14.14,0-25.6,11.46-25.6,25.6V384c0,14.14,11.46,25.6,25.6,25.6h17.067
	c4.71,0,8.533,3.823,8.533,8.533V435.2c0,4.71-3.823,8.533-8.533,8.533H384c-4.71,0-8.533-3.823-8.533-8.533v-8.533H358.4v8.533
	c0,14.14,11.46,25.6,25.6,25.6v17.067h17.067V460.8c14.14,0,25.6-11.46,25.6-25.6v-17.067c0-14.14-11.46-25.6-25.6-25.6H384
	c-4.71,0-8.533-3.823-8.533-8.533v-17.067c0-4.71,3.823-8.533,8.533-8.533h17.067c4.71,0,8.533,3.823,8.533,8.533v8.533h17.067
	v-8.533C426.667,352.794,415.206,341.333,401.067,341.333z"/>
<rect x="170.667" y="341.333" width="136.533" height="17.067"/>
<rect x="170.667" y="307.2" width="136.533" height="17.067"/>
<g>
</g>
<g>
</g>
<g>
</g>
<g>
</g>
<g>
</g>
<g>
</g>
<g>
</g>
<g>
</g>
<g>
</g>
<g>
</g>
<g>
</g>
<g>
</g>
<g>
</g>
<g>
</g>
<g>
</g>
</svg>
