<?xml version="1.0" encoding="utf-8"?>
<!-- Generator: Adobe Illustrator 23.0.2, SVG Export Plug-In . SVG Version: 6.00 Build 0)  -->
<svg version="1.1" id="Capa_1" xmlns="http://www.w3.org/2000/svg" xmlns:xlink="http://www.w3.org/1999/xlink" x="0px" y="0px"
	 viewBox="0 0 512 512" style="enable-background:new 0 0 512 512;" xml:space="preserve">
<style type="text/css">
	.st0{fill:#FFFFFF;}
</style>
<g>
	<g>
		<path class="st0" d="M165.3,420.1c4.1,0,7.5-3.4,7.5-7.5v-4.9c10.6-2.6,18.8-10.7,21-21.3c2.6-12.7-3.9-24.5-16.6-30.2
			c-1.4-0.6-2.9-1.3-4.5-2v-22.8c2.6,1,4.3,2.1,4.4,2.2c3.4,2.3,8,1.5,10.4-1.9c2.4-3.4,1.5-8.1-1.9-10.4c-0.3-0.2-5.3-3.7-12.9-5.6
			v-4.1c0-4.1-3.4-7.5-7.5-7.5s-7.5,3.4-7.5,7.5v3.2c-1.1,0.2-2.3,0.4-3.5,0.6c-8.9,2.1-15.6,9.2-17.4,18.5
			c-1.8,9.1,1.7,18.2,8.7,23.2c3,2.1,7.2,4.3,12.1,6.7v29.4c-3.1-0.5-5.4-1.6-9.2-4c-3.5-2.3-8.1-1.3-10.4,2.2
			c-2.3,3.5-1.3,8.1,2.2,10.4c6.6,4.3,11.4,6,17.4,6.6v4.2C157.8,416.7,161.1,420.1,165.3,420.1L165.3,420.1z M179.1,383.3
			c-0.7,3.2-2.8,6.5-6.4,8.4v-21C177.8,373.6,180.2,378.2,179.1,383.3L179.1,383.3z M154.2,344.8c-2.7-1.9-3.1-5.5-2.6-8.1
			c0.3-1.3,1.5-5.7,6.1-6.8c0,0,0.1,0,0.1,0v17C156.4,346.2,155.2,345.5,154.2,344.8L154.2,344.8z"/>
		<path class="st0" d="M427.7,0H84.3c-4.1,0-7.5,3.4-7.5,7.5v325.3c0,4.1,3.4,7.5,7.5,7.5s7.5-3.4,7.5-7.5V15h328.5v64
			c0,4.1,3.4,7.5,7.5,7.5s7.5-3.4,7.5-7.5V7.5C435.2,3.4,431.9,0,427.7,0z"/>
		<path class="st0" d="M427.7,106.6c-4.1,0-7.5,3.4-7.5,7.5v370l-21.1-24.9c-1.4-1.7-3.5-2.6-5.7-2.6c-2.2,0-4.3,1-5.7,2.6
			L359,492.9l-28.6-33.7c-1.4-1.7-3.5-2.6-5.7-2.6c-2.2,0-4.3,1-5.7,2.6l-28.6,33.7l-28.6-33.7c-1.4-1.7-3.5-2.6-5.7-2.6
			s-4.3,1-5.7,2.6l-28.6,33.7L193,459.2c-1.4-1.7-3.5-2.6-5.7-2.6c-2.2,0-4.3,1-5.7,2.6L153,492.9l-28.6-33.7
			c-1.4-1.7-3.5-2.6-5.7-2.6c-2.2,0-4.3,1-5.7,2.6l-21.1,24.9V367.9c0-4.1-3.4-7.5-7.5-7.5s-7.5,3.4-7.5,7.5v136.6c0,3.1,2,6,4.9,7
			c2.9,1.1,6.3,0.2,8.3-2.2l28.6-33.7l28.6,33.7c1.4,1.7,3.5,2.6,5.7,2.6c2.2,0,4.3-1,5.7-2.6l28.6-33.7l28.6,33.7
			c1.4,1.7,3.5,2.6,5.7,2.6c2.2,0,4.3-1,5.7-2.6l28.6-33.7l28.6,33.7c1.4,1.7,3.5,2.6,5.7,2.6c2.2,0,4.3-1,5.7-2.6l28.6-33.7
			l28.6,33.7c1.4,1.7,3.5,2.6,5.7,2.6c2.2,0,4.3-1,5.7-2.6l28.6-33.7l28.6,33.7c1.5,1.7,3.6,2.6,5.7,2.6c0.9,0,1.7-0.1,2.6-0.5
			c3-1.1,4.9-3.9,4.9-7V114.1C435.2,109.9,431.9,106.6,427.7,106.6L427.7,106.6z"/>
		<path class="st0" d="M346.9,32.3H165.1c-4.1,0-7.5,3.4-7.5,7.5v32.3c0,4.1,3.4,7.5,7.5,7.5h181.8c4.1,0,7.5-3.4,7.5-7.5V39.8
			C354.4,35.7,351.1,32.3,346.9,32.3z M339.4,64.7H172.6V47.3h166.8L339.4,64.7L339.4,64.7z"/>
		<path class="st0" d="M122.7,192.8h161.6c4.1,0,7.5-3.4,7.5-7.5s-3.4-7.5-7.5-7.5H122.7c-4.1,0-7.5,3.4-7.5,7.5
			S118.5,192.8,122.7,192.8z"/>
		<path class="st0" d="M115.2,144.9c0,4.1,3.4,7.5,7.5,7.5h161.6c4.1,0,7.5-3.4,7.5-7.5s-3.4-7.5-7.5-7.5H122.7
			C118.5,137.4,115.2,140.7,115.2,144.9z"/>
		<path class="st0" d="M122.7,233.2h161.6c4.1,0,7.5-3.4,7.5-7.5s-3.4-7.5-7.5-7.5H122.7c-4.1,0-7.5,3.4-7.5,7.5
			S118.5,233.2,122.7,233.2z"/>
		<path class="st0" d="M122.7,273.6h161.6c4.1,0,7.5-3.4,7.5-7.5s-3.4-7.5-7.5-7.5H122.7c-4.1,0-7.5,3.4-7.5,7.5
			S118.5,273.6,122.7,273.6z"/>
		<path class="st0" d="M389.3,177.8H355c-4.1,0-7.5,3.4-7.5,7.5s3.4,7.5,7.5,7.5h34.3c4.1,0,7.5-3.4,7.5-7.5
			S393.5,177.8,389.3,177.8z"/>
		<path class="st0" d="M389.3,137.4H355c-4.1,0-7.5,3.4-7.5,7.5s3.4,7.5,7.5,7.5h34.3c4.1,0,7.5-3.4,7.5-7.5
			S393.5,137.4,389.3,137.4z"/>
		<path class="st0" d="M389.3,218.2H355c-4.1,0-7.5,3.4-7.5,7.5s3.4,7.5,7.5,7.5h34.3c4.1,0,7.5-3.4,7.5-7.5
			S393.5,218.2,389.3,218.2z"/>
		<path class="st0" d="M389.3,258.6H355c-4.1,0-7.5,3.4-7.5,7.5s3.4,7.5,7.5,7.5h34.3c4.1,0,7.5-3.4,7.5-7.5
			S393.5,258.6,389.3,258.6z"/>
		<path class="st0" d="M389.3,299H355c-4.1,0-7.5,3.4-7.5,7.5s3.4,7.5,7.5,7.5h34.3c4.1,0,7.5-3.4,7.5-7.5S393.5,299,389.3,299z"/>
	</g>
</g>
</svg>
