<svg xmlns="http://www.w3.org/2000/svg" width="38.234" height="38.234" viewBox="0 0 38.234 38.234">
  <g id="Group_192" data-name="Group 192" transform="translate(-1502 -175.266)">
    <g id="XMLID_2123_" transform="translate(1502 175.266)">
      <g id="XMLID_197_" transform="translate(0 0)">
        <path id="XMLID_606_" d="M33.091,182.65a3.768,3.768,0,0,0,.778-2.3v-1.323a3.789,3.789,0,1,0-7.578,0v1.323a3.768,3.768,0,0,0,.777,2.3H22.83a5.36,5.36,0,0,0,1.664-3.883v-3.439a5.377,5.377,0,1,0-10.753,0v3.439a5.36,5.36,0,0,0,1.664,3.883H11.165a3.769,3.769,0,0,0,.777-2.3v-1.323a3.789,3.789,0,1,0-7.578,0v1.323a3.769,3.769,0,0,0,.778,2.3A5.2,5.2,0,0,0,0,187.842v2.828a.747.747,0,0,0,.747.747H6.721v3.329a.747.747,0,0,0,.747.747H9.559a.747.747,0,0,0,0-1.494H8.214v-3.638a6.226,6.226,0,0,1,5.728-6.2L18,194H16.279a.747.747,0,0,0,0,1.494H30.766a.747.747,0,0,0,.747-.747v-3.329h5.974a.747.747,0,0,0,.747-.747v-2.828A5.2,5.2,0,0,0,33.091,182.65Zm-5.306-2.3v-1.323a2.3,2.3,0,1,1,4.591,0v1.323a2.3,2.3,0,0,1-4.591,0Zm-8.668-8.91A3.888,3.888,0,0,1,23,175.327v.007h0a6.324,6.324,0,0,1-3.471-1.035.746.746,0,0,0-.818,0,6.324,6.324,0,0,1-3.471,1.035h0v-.007A3.888,3.888,0,0,1,19.117,171.443Zm-3.883,7.322v-1.938h0a7.81,7.81,0,0,0,3.88-1.029A7.81,7.81,0,0,0,23,176.828h0v1.938a3.883,3.883,0,1,1-7.766,0Zm-9.376.265a2.3,2.3,0,1,1,4.591,0v1.323a2.3,2.3,0,1,1-4.591,0Zm.875,10.893H1.494v-2.081a3.7,3.7,0,0,1,3.7-3.7H9.877A7.71,7.71,0,0,0,6.733,189.923Zm8.827-5.781h2.81v1.792a.747.747,0,0,0,1.494,0v-1.792h2.821l-3.568,8.646-3.568-8.646ZM30.02,194H20.233l4.059-9.836a6.226,6.226,0,0,1,5.728,6.2Zm6.721-4.076H31.5a7.71,7.71,0,0,0-3.144-5.781h4.684a3.7,3.7,0,0,1,3.7,3.7Z" transform="translate(0 -157.259)"/>
        <path id="XMLID_619_" d="M179.74,5.753l1.783,1.289-.682,2.083a1.467,1.467,0,0,0,2.259,1.641l1.77-1.292,1.77,1.292a1.445,1.445,0,0,0,1.727,0,1.445,1.445,0,0,0,.532-1.643l-.682-2.083L190,5.753a1.467,1.467,0,0,0-.86-2.656h-2.2l-.673-2.082a1.467,1.467,0,0,0-2.792,0L182.8,3.1h-2.2a1.467,1.467,0,0,0-.86,2.656Zm3.6-1.162a.747.747,0,0,0,.711-.517l.815-2.521.815,2.521a.747.747,0,0,0,.711.517h2.663L186.9,6.152a.747.747,0,0,0-.272.837l.825,2.522L185.31,7.947a.747.747,0,0,0-.881,0l-2.144,1.565.826-2.522a.747.747,0,0,0-.272-.837l-2.158-1.56h2.663Z" transform="translate(-165.753 0)"/>
        <path id="XMLID_620_" d="M163.747,492a.747.747,0,1,0,.528.219A.752.752,0,0,0,163.747,492Z" transform="translate(-150.828 -455.26)"/>
      </g>
    </g>
  </g>
</svg>
