<svg xmlns="http://www.w3.org/2000/svg" width="33.379" height="33.359" viewBox="0 0 33.379 33.359">
  <g id="Group_189" data-name="Group 189" transform="translate(-1648.685 -180.141)">
    <g id="portfolio" transform="translate(1648.685 179.994)">
      <g id="Group_70" data-name="Group 70" transform="translate(0 0.146)">
        <path id="Path_113" data-name="Path 113" d="M175.335,50.854H165.178a.489.489,0,0,0,0,.978h10.157a.489.489,0,0,0,0-.978Z" transform="translate(-153.953 -47.548)"/>
        <path id="Path_114" data-name="Path 114" d="M175.335,94.756H165.178a.489.489,0,0,0,0,.978h10.157a.489.489,0,0,0,0-.978Z" transform="translate(-153.953 -88.588)"/>
        <path id="Path_115" data-name="Path 115" d="M178.052,193.025h-2.9V191.66a3.266,3.266,0,0,0-3.263-3.263h-5.5a3.266,3.266,0,0,0-3.263,3.263v1.365h-2.9a2.638,2.638,0,0,0-2.639,2.639v11.182a2.642,2.642,0,0,0,2.639,2.639h17.828a2.642,2.642,0,0,0,2.639-2.639v-2.119a.489.489,0,0,0-.978,0v2.119a1.663,1.663,0,0,1-1.661,1.661H160.225a1.663,1.663,0,0,1-1.661-1.661v-6.93a4.379,4.379,0,0,0,3.233,1.624v.747a1.787,1.787,0,0,0,3.574,0v-.743h7.536v.743a1.787,1.787,0,0,0,3.574,0v-.747a4.379,4.379,0,0,0,3.233-1.624v2.525a.489.489,0,0,0,.978,0v-6.778A2.638,2.638,0,0,0,178.052,193.025Zm-13.947-1.365a2.287,2.287,0,0,1,2.285-2.285h5.5a2.287,2.287,0,0,1,2.285,2.285v1.365h-1.018V191.66a1.268,1.268,0,0,0-1.267-1.266h-5.5a1.268,1.268,0,0,0-1.266,1.266v1.365h-1.018Zm2,1.365V191.66a.289.289,0,0,1,.289-.289h5.5a.289.289,0,0,1,.289.289v1.365Zm-1.709,9.261a.809.809,0,1,1-1.618,0v-1.748a.809.809,0,0,1,1.618,0Zm11.109,0a.809.809,0,0,1-1.618,0v-1.227s0,0,0-.005,0,0,0-.005v-.511a.809.809,0,1,1,1.618,0Zm.978-1.725v-.022a1.787,1.787,0,0,0-3.574,0v.027h-7.536v-.027a1.787,1.787,0,1,0-3.574,0v.022a3.411,3.411,0,0,1-3.233-3.4v-1.5A1.661,1.661,0,0,1,160.225,194h17.828a1.661,1.661,0,0,1,1.661,1.661v1.5A3.411,3.411,0,0,1,176.48,200.56Z" transform="translate(-147.313 -176.124)"/>
        <path id="Path_116" data-name="Path 116" d="M9.643,32.528H2.418a1.442,1.442,0,0,1-1.44-1.44V7.6a1.45,1.45,0,0,1,.033-.31h4.45A1.687,1.687,0,0,0,7.146,5.607V1.157a1.454,1.454,0,0,1,.31-.033H24.034a1.442,1.442,0,0,1,1.44,1.44v8.389a.489.489,0,0,0,.978,0V2.564A2.421,2.421,0,0,0,24.034.146H7.456a2.4,2.4,0,0,0-1.71.708L.708,5.892A2.4,2.4,0,0,0,0,7.6V31.088a2.421,2.421,0,0,0,2.418,2.418H9.643a.489.489,0,1,0,0-.978ZM6.168,1.815V5.607a.708.708,0,0,1-.707.707H1.669Z" transform="translate(0 -0.146)"/>
      </g>
    </g>
  </g>
</svg>
