<?xml version="1.0" encoding="utf-8"?>
<!-- Generator: Adobe Illustrator 23.0.2, SVG Export Plug-In . SVG Version: 6.00 Build 0)  -->
<svg version="1.1" id="Layer_1" xmlns="http://www.w3.org/2000/svg" xmlns:xlink="http://www.w3.org/1999/xlink" x="0px" y="0px"
	 viewBox="0 0 512 512" style="enable-background:new 0 0 512 512;" xml:space="preserve">
<style type="text/css">
	.st0{fill:#FFFFFF;}
</style>
<g id="Outline">
	<path class="st0" d="M136,288H48c-17.7,0-32-14.3-32-32V48c0-17.7,14.3-32,32-32h208c17.7,0,32,14.3,32,32v136h-16V48
		c0-8.8-7.2-16-16-16H48c-8.8,0-16,7.2-16,16v208c0,8.8,7.2,16,16,16h88V288z"/>
	<path class="st0" d="M120,256H72c-4.4,0-8-3.6-8-8V56c0-4.4,3.6-8,8-8h96c39.8,0,72,32.2,72,72s-32.2,72-72,72h-40v56
		C128,252.4,124.4,256,120,256z M80,240h32v-56c0-4.4,3.6-8,8-8h48c30.9,0,56-25.1,56-56s-25.1-56-56-56H80V240z M168,144h-48
		c-4.4,0-8-3.6-8-8v-32c0-4.4,3.6-8,8-8h48c13.3,0,24,10.7,24,24S181.3,144,168,144z M128,128h40c4.4,0,8-3.6,8-8s-3.6-8-8-8h-40
		V128z"/>
	<path class="st0" d="M485.7,330.3c-6.3-6.4-14.9-10.1-23.9-10.3l-32.7-98.1c-4.3-13.1-16.6-21.9-30.4-21.9H209.3
		c-13.8,0-26,8.8-30.4,21.9L146.2,320c-19.1,0.6-34.2,16.2-34.2,35.3V416c0,17.7,14.3,32,32,32h56v32h-48v-16h-16v16
		c0,8.8,7.2,16,16,16h48c8.8,0,16-7.2,16-16v-32h176v32c0,8.8,7.2,16,16,16h48c8.8,0,16-7.2,16-16v-33c14.1-3.7,24-16.4,24-31v-60.7
		C496,345.9,492.3,337,485.7,330.3L485.7,330.3z M209.3,216h189.4c6.9,0,13,4.4,15.2,10.9l1.7,5.1H192.4l1.7-5.1
		C196.3,220.4,202.4,216,209.3,216z M187.1,248h233.8l24,72H163.1L187.1,248z M456,480h-48v-32h48V480L456,480z M480,416
		c0,8.8-7.2,16-16,16H144c-8.8,0-16-7.2-16-16v-60.7c0-10.7,8.6-19.3,19.3-19.3h313.4c10.7,0,19.3,8.6,19.3,19.3V416z"/>
	<path class="st0" d="M176,352c-17.7,0-32,14.3-32,32s14.3,32,32,32s32-14.3,32-32C208,366.3,193.7,352,176,352z M176,400
		c-8.8,0-16-7.2-16-16s7.2-16,16-16s16,7.2,16,16C192,392.8,184.8,400,176,400z"/>
	<path class="st0" d="M432,352c-17.7,0-32,14.3-32,32s14.3,32,32,32s32-14.3,32-32C464,366.3,449.7,352,432,352z M432,400
		c-8.8,0-16-7.2-16-16s7.2-16,16-16s16,7.2,16,16C448,392.8,440.8,400,432,400z"/>
	<path class="st0" d="M224,360h160v16H224V360z"/>
	<path class="st0" d="M224,392h160v16H224V392z"/>
</g>
</svg>
