<?xml version="1.0" encoding="utf-8"?>
<!-- Generator: Adobe Illustrator 23.0.2, SVG Export Plug-In . SVG Version: 6.00 Build 0)  -->
<svg version="1.1" id="Capa_1" xmlns="http://www.w3.org/2000/svg" xmlns:xlink="http://www.w3.org/1999/xlink" x="0px" y="0px"
	 viewBox="0 0 512 512" style="enable-background:new 0 0 512 512;" xml:space="preserve">
<style type="text/css">
	.st0{fill:#FFFFFF;}
</style>
<g>
	<g>
		<path class="st0" d="M328,50.9H172.2c-4.1,0-7.5,3.4-7.5,7.5s3.4,7.5,7.5,7.5H328c4.1,0,7.5-3.4,7.5-7.5S332.1,50.9,328,50.9z"/>
		<path class="st0" d="M328,94.8H172.2c-4.1,0-7.5,3.4-7.5,7.5s3.4,7.5,7.5,7.5H328c4.1,0,7.5-3.4,7.5-7.5S332.1,94.8,328,94.8z"/>
		<path class="st0" d="M471.5,259.4H427v-20.9c0-27.6-22.5-50-50-50h-84.3c-27.6,0-50,22.4-50,50v20.9h-44.5
			c-22.4,0-40.5,18.2-40.5,40.5v171.5c0,22.3,18.2,40.5,40.5,40.5h273.5c22.3,0,40.5-18.2,40.5-40.5v-32.5c0-4.1-3.4-7.5-7.5-7.5
			s-7.5,3.4-7.5,7.5v32.5c0,14-11.4,25.5-25.5,25.5H198.1c-14,0-25.5-11.4-25.5-25.5V365.1c11.8,14.6,29.6,24.1,49.6,24.9v11.5
			c0,15.1,12.3,27.4,27.4,27.4s27.4-12.3,27.4-27.4V390h115.6v11.4c0,15.1,12.3,27.4,27.4,27.4s27.4-12.3,27.4-27.4V390
			c20-0.8,37.8-10.3,49.6-24.9v38.7c0,4.1,3.4,7.5,7.5,7.5s7.5-3.4,7.5-7.5v-104C512,277.5,493.9,259.4,471.5,259.4L471.5,259.4z
			 M257.6,238.4c0-19.3,15.7-35,35-35H377c19.3,0,35,15.7,35,35v20.9h-15.6v-20.9c0-10.7-8.7-19.4-19.4-19.4h-84.3
			c-10.7,0-19.4,8.7-19.4,19.4v20.9h-15.6V238.4z M288.2,259.4v-20.9c0-2.4,2-4.4,4.4-4.4H377c2.4,0,4.4,2,4.4,4.4v20.9H288.2z
			 M262,401.4c0,6.8-5.6,12.4-12.4,12.4s-12.4-5.6-12.4-12.4v-26.8c0-6.8,5.6-12.4,12.4-12.4c6.8,0,12.4,5.6,12.4,12.4V401.4z
			 M432.4,401.4c0,6.8-5.6,12.4-12.4,12.4s-12.4-5.6-12.4-12.4v-18.8c0,0,0-0.1,0-0.1s0-0.1,0-0.1v-7.8c0-6.8,5.6-12.4,12.4-12.4
			s12.4,5.6,12.4,12.4V401.4z M447.4,375v-0.3c0-15.1-12.3-27.4-27.4-27.4s-27.4,12.3-27.4,27.4v0.4H277v-0.4
			c0-15.1-12.3-27.4-27.4-27.4s-27.4,12.3-27.4,27.4v0.3c-27.6-1.4-49.6-24.3-49.6-52.2v-22.9c0-14.1,11.4-25.5,25.5-25.5h273.5
			c14,0,25.5,11.4,25.5,25.5v22.9C497,350.7,475,373.6,447.4,375L447.4,375z"/>
		<path class="st0" d="M147.9,496.9H37.1c-12.2,0-22.1-9.9-22.1-22.1V114.5c0-1.6,0.2-3.2,0.5-4.8h68.3c14.3,0,25.8-11.6,25.8-25.8
			V15.7c1.5-0.3,3.1-0.5,4.8-0.5h254.3c12.2,0,22.1,9.9,22.1,22.1v128.7c0,4.1,3.4,7.5,7.5,7.5s7.5-3.4,7.5-7.5V37.2
			c0-20.5-16.6-37.1-37.1-37.1H114.4C104.5,0.1,95.1,4,88.1,11L10.9,88.3c-7,7-10.9,16.3-10.9,26.2v360.3
			c0,20.5,16.6,37.1,37.1,37.1h110.8c4.1,0,7.5-3.4,7.5-7.5S152.1,496.9,147.9,496.9z M94.6,25.8v58.2c0,6-4.9,10.8-10.8,10.8H25.6
			L94.6,25.8z"/>
	</g>
</g>
</svg>
