<svg id="Capa_1" enable-background="new 0 0 511.896 511.896" height="512" viewBox="0 0 511.896 511.896" width="512" xmlns="http://www.w3.org/2000/svg"><g><path d="m496.889 218.365c-14.985 0-90.44 0-105.47 0v-203.352c0-10.46-10.47-17.725-20.267-14.045l-54.969 20.613-54.968-20.613c-3.395-1.273-7.139-1.273-10.533 0l-54.969 20.613-54.969-20.613c-9.793-3.675-20.267 3.58-20.267 14.045v203.352c-15.03 0-90.485 0-105.47 0-8.284 0-15 6.716-15 15v203.3c0 8.284 6.716 15 15 15h45.234v45.231c0 8.284 6.716 15 15 15h361.412c8.284 0 15-6.716 15-15v-45.231h45.234c8.284 0 15-6.716 15-15v-203.3c.002-8.284-6.714-15-14.998-15zm-75.231 30v30.24h-30.239v-30.24zm-231.212-196.718c3.395 1.273 7.139 1.273 10.533 0l54.969-20.613 54.969 20.613c3.395 1.273 7.139 1.273 10.533 0l39.969-14.988v241.943h-210.942c0-.53 0-238.483 0-241.943zm-69.969 196.718v30.24h-30.239v-30.24zm301.177 233.531h-331.412v-30.231h331.412zm60.235-60.231c-727.179 0-320.504 0-451.881 0v-173.3h30.23v45.24c0 8.284 6.716 15 15 15h361.42c8.284 0 15-6.716 15-15v-45.24h30.23v173.3z"/><path d="m195.713 120.367h120.471c8.284 0 15-6.716 15-15s-6.716-15-15-15h-120.471c-8.284 0-15 6.716-15 15s6.716 15 15 15z"/><path d="m195.713 180.602h120.471c8.284 0 15-6.716 15-15s-6.716-15-15-15h-120.471c-8.284 0-15 6.716-15 15s6.716 15 15 15z"/><path d="m195.713 240.838h120.471c8.284 0 15-6.716 15-15s-6.716-15-15-15h-120.471c-8.284 0-15 6.716-15 15s6.716 15 15 15z"/><path d="m143.007 349.896h-67.765c-8.284 0-15 6.716-15 15s6.716 15 15 15h67.765c8.284 0 15-6.716 15-15s-6.716-15-15-15z"/><path d="m201.767 349.974c-7.784.792-13.529 7.338-13.529 14.92 0 11.906 13.239 19.102 23.33 12.471 12.94-8.534 5.617-28.954-9.801-27.391z"/><path d="m260.548 350.194c-12.255 2.321-16.433 18.246-6.58 26.301 6.174 5.031 15.467 4.603 21.11-2.09 9.054-11.177-1.144-26.986-14.53-24.211z"/></g></svg>