<svg id="Capa_1" enable-background="new 0 0 511.896 511.896" height="512" viewBox="0 0 511.896 511.896" width="512" xmlns="http://www.w3.org/2000/svg"><g><path d="m451.658 436.665v60.23c0 8.29-6.72 15-15 15h-361.42c-8.28 0-15-6.71-15-15v-60.23c0-8.29 6.72-15 15-15h361.42c8.28 0 15 6.71 15 15z" fill="#5564bf"/><path d="m451.658 436.665v60.23c0 8.29-6.72 15-15 15h-180.71v-90.23h180.71c8.28 0 15 6.71 15 15z" fill="#393e9f"/><path d="m511.888 233.365v203.3c0 8.28-6.72 15-15 15h-481.88c-8.28 0-15-6.72-15-15v-203.3c0-8.28 6.72-15 15-15h45.23l190.29 24.78c8.645-1.07 191.853-23.637 201.13-24.78h45.23c8.28 0 15 6.72 15 15z" fill="#393e9f"/><path d="m511.888 233.365v203.3c0 8.28-6.72 15-15 15h-240.94v-209.19l195.71-24.109h45.23c8.28-.001 15 6.719 15 14.999z" fill="#340d66"/><path d="m451.658 218.365v75.24c0 8.279-6.72 15-15 15h-45.24l-129.65-16.62c-167.065 19.51-125.058 16.62-186.53 16.62-8.28 0-15-6.721-15-15v-75.24z" fill="#5564bf"/><path d="m451.658 218.365v75.24c0 8.279-6.72 15-15 15h-45.24c-146.801-18.819-127.197-16.907-135.47-15.94v-74.3z" fill="#393e9f"/><path d="m391.418 15.015v293.59h-270.94v-293.59c0-10.469 10.464-17.708 20.27-14.05l49.69 18.643c3.399 1.275 7.151 1.272 10.549-.004 53.776-20.195 51.23-19.589 54.961-19.589 3.776 0 1.298-.565 54.961 19.588 3.399 1.276 7.15 1.279 10.549.004l49.69-18.643c9.763-3.663 20.27 3.557 20.27 14.051z" fill="#e3f6ff"/><path d="m391.418 15.015v293.59h-135.47v-308.59c3.776 0 1.298-.565 54.961 19.588 3.399 1.276 7.15 1.279 10.549.004l49.69-18.643c9.763-3.663 20.27 3.557 20.27 14.051z" fill="#bbecff"/><path d="m331.188 105.365c0 8.29-6.72 15-15 15h-120.48c-8.28 0-15-6.71-15-15 0-8.28 6.72-15 15-15h120.48c8.28 0 15 6.72 15 15z" fill="#ffea80"/><path d="m316.188 120.365h-60.24v-30h60.24c8.28 0 15 6.72 15 15 0 8.29-6.72 15-15 15z" fill="#fc6"/><path d="m331.188 165.606c0 8.279-6.72 15-15 15h-120.48c-8.28 0-15-6.721-15-15 0-8.29 6.72-15 15-15h120.48c8.28 0 15 6.71 15 15z" fill="#ffea80"/><path d="m331.188 165.606c0 8.279-6.72 15-15 15h-60.24v-30h60.24c8.28 0 15 6.71 15 15z" fill="#fc6"/><path d="m331.188 225.835c0 8.29-6.72 15-15 15h-120.48c-8.28 0-15-6.71-15-15 0-8.28 6.72-15 15-15h120.48c8.28 0 15 6.72 15 15z" fill="#ffea80"/><path d="m331.188 225.835c0 8.29-6.72 15-15 15h-60.24v-30h60.24c8.28 0 15 6.72 15 15z" fill="#fc6"/><path d="m143.006 391.426h-67.764c-8.284 0-15-6.716-15-15s6.716-15 15-15h67.765c8.284 0 15 6.716 15 15s-6.716 15-15.001 15z" fill="#57d9ad"/><circle cx="203.242" cy="376.426" fill="#57d9ad" r="15"/><circle cx="271.065" cy="376.426" fill="#26bfa6" r="15"/></g></svg>