<svg id="_x31__px" height="512" viewBox="0 0 24 24" width="512" xmlns="http://www.w3.org/2000/svg"><g><path d="m21.5 6h-3c-.276 0-.5-.224-.5-.5s.224-.5.5-.5h2.5v-2.5c0-.276.224-.5.5-.5s.5.224.5.5v3c0 .276-.224.5-.5.5z"/></g><g><path d="m12 24c-6.617 0-12-5.383-12-12s5.383-12 12-12c3.8 0 7.409 1.83 9.653 4.895.163.223.115.536-.108.699s-.537.115-.699-.108c-2.056-2.809-5.364-4.486-8.846-4.486-6.065 0-11 4.935-11 11s4.935 11 11 11 11-4.935 11-11c0-.516-.031-.983-.095-1.429-.039-.273.151-.526.424-.566.272-.039.526.15.566.424.071.493.105 1.007.105 1.571 0 6.617-5.383 12-12 12z"/></g><g><path d="m12 20c-.066 0-.132-.013-.194-.04-.238-.099-5.806-2.506-5.806-7.424v-4.179c0-.214.137-.405.34-.474l5.5-1.857c.104-.035.216-.035.32 0l5.5 1.857c.203.069.34.26.34.474v4.179c0 4.918-5.568 7.325-5.806 7.425-.062.026-.128.039-.194.039zm-5-11.284v3.82c0 3.785 4.055 5.958 5 6.414.944-.457 5-2.638 5-6.414v-3.82l-5-1.688z"/></g><g><path d="m11.5 15c-.009 0-.019 0-.028-.001-.142-.008-.274-.076-.363-.187l-2-2.5c-.172-.216-.137-.53.078-.703.217-.172.53-.137.703.078l1.651 2.064 3.105-3.105c.195-.195.512-.195.707 0s.195.512 0 .707l-3.5 3.5c-.093.095-.221.147-.353.147z"/></g></svg>